<?xml version="1.0" encoding="UTF-8"?>
<svg xmlns="http://www.w3.org/2000/svg" xmlns:xlink="http://www.w3.org/1999/xlink" width="30px" height="30px" viewBox="0 0 30 24" version="1.1">
<g id="surface1">
<path style=" stroke:none;fill-rule:nonzero;fill:rgb(100%,100%,100%);fill-opacity:1;" d="M 11.796875 13.320312 C 11.90625 11.402344 12.859375 9.710938 14.300781 8.511719 C 15.710938 7.332031 17.613281 6.613281 19.6875 6.613281 C 21.761719 6.613281 23.660156 7.332031 25.074219 8.511719 C 26.511719 9.710938 27.46875 11.402344 27.578125 13.324219 C 27.6875 15.296875 26.882812 17.128906 25.46875 18.488281 C 24.027344 19.871094 21.980469 20.738281 19.6875 20.738281 C 17.394531 20.738281 15.339844 19.871094 13.902344 18.488281 C 12.488281 17.125 11.6875 15.292969 11.796875 13.320312 Z M 11.796875 13.320312 "/>
<path style=" stroke:none;fill-rule:nonzero;fill:rgb(14.901961%,34.117647%,52.941176%);fill-opacity:1;" d="M 15.640625 13.496094 C 15.695312 12.507812 16.183594 11.640625 16.921875 11.023438 C 18.53125 9.726562 20.84375 9.726562 22.453125 11.023438 C 23.191406 11.640625 23.679688 12.507812 23.734375 13.492188 C 23.792969 14.507812 23.375 15.445312 22.65625 16.144531 C 21.917969 16.851562 20.867188 17.296875 19.691406 17.296875 C 18.511719 17.296875 17.460938 16.851562 16.722656 16.144531 C 15.992188 15.445312 15.582031 14.507812 15.640625 13.496094 Z M 15.640625 13.496094 "/>
<path style=" stroke:none;fill-rule:nonzero;fill:rgb(91.764706%,46.27451%,0%);fill-opacity:1;" d="M 9.191406 15.488281 C 9.199219 15.875 9.324219 16.625 9.511719 17.207031 C 9.914062 18.46875 10.59375 19.628906 11.5 20.601562 C 12.472656 21.65625 13.65625 22.496094 14.980469 23.066406 C 17.898438 24.320312 21.214844 24.3125 24.128906 23.046875 C 25.449219 22.472656 26.636719 21.628906 27.609375 20.574219 C 28.511719 19.59375 29.191406 18.433594 29.597656 17.171875 C 29.792969 16.554688 29.917969 15.917969 29.972656 15.273438 C 30.019531 14.644531 30 14.011719 29.910156 13.386719 C 29.734375 12.171875 29.304688 11.007812 28.640625 9.964844 C 28.027344 9 27.246094 8.148438 26.328125 7.453125 L 16.957031 0.367188 C 16.949219 0.359375 16.941406 0.351562 16.933594 0.347656 C 16.316406 -0.117188 15.285156 -0.117188 14.609375 0.347656 C 13.933594 0.808594 13.847656 1.597656 14.453125 2.089844 L 18.363281 5.222656 L 6.453125 5.234375 L 6.4375 5.234375 C 5.449219 5.238281 4.507812 5.875 4.316406 6.679688 C 4.125 7.5 4.792969 8.179688 5.816406 8.183594 L 5.816406 8.1875 L 11.855469 8.175781 L 1.082031 16.316406 L 1.039062 16.347656 C 0.0234375 17.117188 -0.304688 18.390625 0.335938 19.195312 C 0.984375 20.015625 2.363281 20.019531 3.394531 19.203125 L 9.273438 14.460938 C 9.226562 14.800781 9.199219 15.144531 9.191406 15.488281 Z M 24.296875 17.628906 C 23.085938 18.84375 21.390625 19.53125 19.554688 19.535156 C 17.722656 19.539062 16.023438 18.855469 14.8125 17.644531 C 14.238281 17.078125 13.796875 16.398438 13.515625 15.648438 C 13.253906 14.933594 13.148438 14.171875 13.21875 13.417969 C 13.28125 12.679688 13.503906 11.960938 13.867188 11.3125 C 14.234375 10.667969 14.722656 10.09375 15.308594 9.625 C 16.484375 8.679688 17.984375 8.167969 19.550781 8.167969 C 21.117188 8.164062 22.617188 8.671875 23.796875 9.613281 C 24.382812 10.078125 24.871094 10.648438 25.238281 11.296875 C 25.601562 11.945312 25.824219 12.660156 25.886719 13.398438 C 25.953125 14.152344 25.851562 14.914062 25.589844 15.625 C 25.308594 16.378906 24.867188 17.058594 24.296875 17.628906 Z M 24.296875 17.628906 "/>
</g>
</svg>
