<?xml version="1.0" encoding="UTF-8"?>
<svg xmlns="http://www.w3.org/2000/svg" xmlns:xlink="http://www.w3.org/1999/xlink" width="30px" height="30px" viewBox="0 0 30 30" version="1.1">
<defs>
<filter id="alpha" filterUnits="objectBoundingBox" x="0%" y="0%" width="100%" height="100%">
  <feColorMatrix type="matrix" in="SourceGraphic" values="0 0 0 0 1 0 0 0 0 1 0 0 0 0 1 0 0 0 1 0"/>
</filter>
<mask id="mask0">
  <g filter="url(#alpha)">
<rect x="0" y="0" width="30" height="30" style="fill:rgb(0%,0%,0%);fill-opacity:0.301961;stroke:none;"/>
  </g>
</mask>
<clipPath id="clip1">
  <rect x="0" y="0" width="30" height="30"/>
</clipPath>
<g id="surface5" clip-path="url(#clip1)">
<path style=" stroke:none;fill-rule:nonzero;fill:rgb(10.196078%,10.196078%,10.196078%);fill-opacity:1;" d="M 11.441406 8.515625 L 11.4375 8.519531 L 13.484375 10.511719 L 14.886719 10.316406 L 12.054688 8.953125 C 11.8125 8.835938 11.605469 8.6875 11.441406 8.515625 Z M 22.460938 11.792969 L 22.453125 11.796875 C 23.800781 13.058594 24.566406 14.8125 24.570312 16.648438 C 24.570312 20.339844 21.558594 23.335938 17.839844 23.335938 C 14.480469 23.332031 11.636719 20.867188 11.179688 17.558594 L 7.910156 21.234375 C 7.34375 21.871094 6.539062 22.070312 6.101562 21.683594 L 5.953125 21.550781 L 12.777344 28.183594 L 25.726562 28.183594 C 27.085938 28.183594 28.183594 27.085938 28.183594 25.726562 L 28.183594 17.160156 L 28.085938 17.261719 Z M 17.839844 12.339844 C 15.460938 12.339844 13.53125 14.269531 13.53125 16.648438 C 13.53125 19.03125 15.460938 20.960938 17.839844 20.960938 C 20.222656 20.960938 22.152344 19.03125 22.152344 16.648438 C 22.152344 14.269531 20.222656 12.339844 17.839844 12.339844 Z M 12.136719 13.023438 L 7.128906 13.714844 C 6.53125 13.800781 5.984375 13.636719 5.6875 13.332031 L 8.996094 16.546875 L 12.089844 13.074219 C 12.105469 13.054688 12.121094 13.039062 12.136719 13.023438 Z M 17.839844 13.875 C 19.371094 13.875 20.613281 15.117188 20.613281 16.648438 C 20.613281 18.183594 19.371094 19.425781 17.839844 19.425781 C 16.308594 19.425781 15.066406 18.183594 15.066406 16.648438 C 15.066406 15.117188 16.308594 13.875 17.839844 13.875 Z M 17.839844 13.875 "/>
</g>
</defs>
<g id="surface1">
<path style=" stroke:none;fill-rule:nonzero;fill:rgb(13.333333%,21.176471%,33.72549%);fill-opacity:1;" d="M 4.273438 1.816406 L 25.726562 1.816406 C 27.082031 1.816406 28.183594 2.917969 28.183594 4.273438 L 28.183594 25.726562 C 28.183594 27.082031 27.082031 28.183594 25.726562 28.183594 L 4.273438 28.183594 C 2.917969 28.183594 1.816406 27.082031 1.816406 25.726562 L 1.816406 4.273438 C 1.816406 2.917969 2.917969 1.816406 4.273438 1.816406 Z M 4.273438 1.816406 "/>
<use xlink:href="#surface5" mask="url(#mask0)"/>
<path style=" stroke:none;fill-rule:nonzero;fill:rgb(96.470588%,27.843137%,27.843137%);fill-opacity:1;" d="M 12.199219 6.664062 C 11.75 6.660156 11.371094 6.832031 11.210938 7.160156 L 11.125 7.339844 C 10.875 7.867188 11.285156 8.585938 12.054688 8.953125 L 14.886719 10.316406 L 6.8125 11.433594 C 5.96875 11.550781 5.355469 12.109375 5.4375 12.6875 L 5.464844 12.882812 C 5.542969 13.460938 6.285156 13.832031 7.128906 13.714844 L 12.136719 13.023438 C 12.121094 13.039062 12.105469 13.054688 12.089844 13.074219 L 6.1875 19.703125 C 5.621094 20.339844 5.515625 21.164062 5.953125 21.550781 L 6.101562 21.683594 C 6.539062 22.070312 7.34375 21.871094 7.910156 21.234375 L 11.179688 17.558594 C 11.636719 20.867188 14.480469 23.332031 17.839844 23.335938 C 21.558594 23.335938 24.570312 20.34375 24.570312 16.648438 C 24.566406 14.453125 23.476562 12.398438 21.65625 11.152344 C 21.496094 10.988281 21.292969 10.839844 21.054688 10.722656 L 13.050781 6.875 C 12.765625 6.738281 12.46875 6.671875 12.199219 6.664062 Z M 17.839844 12.339844 C 20.222656 12.339844 22.152344 14.269531 22.152344 16.648438 C 22.152344 19.03125 20.222656 20.960938 17.839844 20.960938 C 15.460938 20.960938 13.53125 19.03125 13.53125 16.648438 C 13.53125 14.269531 15.460938 12.339844 17.839844 12.339844 Z M 17.839844 13.875 C 16.308594 13.875 15.066406 15.117188 15.066406 16.648438 C 15.066406 18.183594 16.308594 19.425781 17.839844 19.425781 C 19.371094 19.425781 20.613281 18.183594 20.613281 16.648438 C 20.613281 15.117188 19.371094 13.875 17.839844 13.875 Z M 17.839844 13.875 "/>
</g>
</svg>
