<?xml version="1.0" encoding="UTF-8"?>
<svg xmlns="http://www.w3.org/2000/svg" xmlns:xlink="http://www.w3.org/1999/xlink" width="30px" height="30px" viewBox="0 0 30 30" version="1.1">
<g id="surface1">
<path style=" stroke:none;fill-rule:nonzero;fill:rgb(60.784314%,30.980392%,58.823529%);fill-opacity:1;" d="M 27.046875 7.195312 L 15.726562 0.679688 C 15.539062 0.5625 15.28125 0.515625 15 0.515625 C 14.71875 0.515625 14.460938 0.585938 14.273438 0.679688 L 3.023438 7.21875 C 2.625 7.453125 2.34375 8.039062 2.34375 8.484375 L 2.34375 21.539062 C 2.34375 21.796875 2.390625 22.101562 2.578125 22.359375 L 27.609375 7.828125 C 27.46875 7.546875 27.257812 7.335938 27.046875 7.195312 Z M 27.046875 7.195312 "/>
<path style=" stroke:none;fill-rule:nonzero;fill:rgb(40.784314%,12.941176%,47.843137%);fill-opacity:1;" d="M 2.507812 22.335938 C 2.625 22.523438 2.789062 22.6875 2.953125 22.78125 L 14.25 29.320312 C 14.4375 29.4375 14.695312 29.484375 14.976562 29.484375 C 15.257812 29.484375 15.515625 29.414062 15.703125 29.320312 L 26.953125 22.78125 C 27.351562 22.546875 27.632812 21.960938 27.632812 21.515625 L 27.632812 8.460938 C 27.632812 8.25 27.609375 8.015625 27.492188 7.804688 Z M 2.507812 22.335938 "/>
<path style=" stroke:none;fill-rule:nonzero;fill:rgb(100%,100%,100%);fill-opacity:1;" d="M 19.992188 17.835938 C 19.007812 19.570312 17.132812 20.742188 15 20.742188 C 11.835938 20.742188 9.257812 18.164062 9.257812 15 C 9.257812 11.835938 11.835938 9.257812 15 9.257812 C 17.132812 9.257812 19.007812 10.429688 19.992188 12.1875 L 23.039062 10.429688 C 21.445312 7.640625 18.445312 5.742188 15 5.742188 C 9.890625 5.742188 5.742188 9.890625 5.742188 15 C 5.742188 20.109375 9.890625 24.257812 15 24.257812 C 18.421875 24.257812 21.421875 22.382812 23.015625 19.617188 Z M 22.734375 15.515625 L 22.945312 14.507812 L 21.960938 14.507812 L 21.960938 13.40625 L 23.15625 13.40625 L 23.4375 11.953125 L 24.585938 11.953125 L 24.304688 13.382812 L 25.195312 13.382812 L 25.476562 11.953125 L 26.601562 11.953125 L 26.320312 13.382812 L 26.882812 13.382812 L 26.882812 14.484375 L 26.109375 14.484375 L 25.898438 15.492188 L 26.882812 15.492188 L 26.882812 16.59375 L 25.6875 16.59375 L 25.40625 18 L 24.257812 18 L 24.539062 16.59375 L 23.648438 16.59375 L 23.367188 18 L 22.242188 18 L 22.523438 16.59375 L 21.960938 16.59375 L 21.960938 15.492188 L 22.734375 15.492188 Z M 23.859375 15.515625 L 24.75 15.515625 L 24.960938 14.507812 L 24.070312 14.507812 Z M 23.859375 15.515625 "/>
</g>
</svg>
