<?xml version="1.0" encoding="UTF-8"?>
<svg xmlns="http://www.w3.org/2000/svg" xmlns:xlink="http://www.w3.org/1999/xlink" width="30px" height="px" viewBox="0 0 30 30" version="1.1">
<g id="surface1">
<path style=" stroke:none;fill-rule:nonzero;fill:rgb(8.235294%,44.705882%,71.372549%);fill-opacity:1;" d="M 5.53125 25.5 L 3.425781 1.875 L 26.574219 1.875 L 24.464844 25.496094 L 14.984375 28.125 Z M 5.53125 25.5 "/>
<path style=" stroke:none;fill-rule:nonzero;fill:rgb(20%,66.27451%,86.27451%);fill-opacity:1;" d="M 15 26.117188 L 22.660156 23.992188 L 24.460938 3.808594 L 15 3.808594 Z M 15 26.117188 "/>
<path style=" stroke:none;fill-rule:nonzero;fill:rgb(100%,100%,100%);fill-opacity:1;" d="M 15 12.367188 L 18.835938 12.367188 L 19.097656 9.398438 L 15 9.398438 L 15 6.5 L 22.265625 6.5 L 22.195312 7.277344 L 21.484375 15.265625 L 15 15.265625 Z M 15 12.367188 "/>
<path style=" stroke:none;fill-rule:nonzero;fill:rgb(92.156863%,92.156863%,92.156863%);fill-opacity:1;" d="M 15.019531 19.890625 L 15.003906 19.894531 L 11.777344 19.023438 L 11.570312 16.710938 L 8.664062 16.710938 L 9.070312 21.261719 L 15.003906 22.910156 L 15.019531 22.90625 Z M 15.019531 19.890625 "/>
<path style=" stroke:none;fill-rule:nonzero;fill:rgb(100%,100%,100%);fill-opacity:1;" d="M 18.585938 15.140625 L 18.238281 19.023438 L 15.007812 19.894531 L 15.007812 22.910156 L 20.949219 21.261719 L 20.992188 20.773438 L 21.496094 15.140625 Z M 18.585938 15.140625 "/>
<path style=" stroke:none;fill-rule:nonzero;fill:rgb(92.156863%,92.156863%,92.156863%);fill-opacity:1;" d="M 15.011719 6.5 L 15.011719 9.398438 L 8.011719 9.398438 L 7.953125 8.746094 L 7.820312 7.277344 L 7.75 6.5 Z M 15.011719 6.5 "/>
<path style=" stroke:none;fill-rule:nonzero;fill:rgb(92.156863%,92.156863%,92.156863%);fill-opacity:1;" d="M 15 12.367188 L 15 15.265625 L 11.8125 15.265625 L 11.753906 14.613281 L 11.625 13.144531 L 11.554688 12.367188 Z M 15 12.367188 "/>
</g>
</svg>
