<?xml version="1.0" encoding="UTF-8"?>
<svg xmlns="http://www.w3.org/2000/svg" xmlns:xlink="http://www.w3.org/1999/xlink" width="25px" height="25px" viewBox="0 0 25 25" version="1.1">
<g id="surface1">
<path style=" stroke:none;fill-rule:evenodd;fill:rgb(0%,0%,0%);fill-opacity:1;" d="M 20.703125 8.59375 C 20.703125 8.074219 20.496094 7.578125 20.132812 7.210938 C 19.765625 6.847656 19.269531 6.640625 18.75 6.640625 C 15.757812 6.640625 9.242188 6.640625 6.25 6.640625 C 5.730469 6.640625 5.234375 6.847656 4.867188 7.210938 C 4.503906 7.578125 4.296875 8.074219 4.296875 8.59375 C 4.296875 10.671875 4.296875 14.328125 4.296875 16.40625 C 4.296875 16.925781 4.503906 17.421875 4.867188 17.789062 C 5.234375 18.152344 5.730469 18.359375 6.25 18.359375 C 9.242188 18.359375 15.757812 18.359375 18.75 18.359375 C 19.269531 18.359375 19.765625 18.152344 20.132812 17.789062 C 20.496094 17.421875 20.703125 16.925781 20.703125 16.40625 Z M 19.921875 8.59375 C 19.921875 8.28125 19.796875 7.984375 19.578125 7.765625 C 19.359375 7.546875 19.0625 7.421875 18.75 7.421875 C 15.757812 7.421875 9.242188 7.421875 6.25 7.421875 C 5.9375 7.421875 5.640625 7.546875 5.421875 7.765625 C 5.203125 7.984375 5.078125 8.28125 5.078125 8.59375 C 5.078125 10.671875 5.078125 14.328125 5.078125 16.40625 C 5.078125 16.71875 5.203125 17.015625 5.421875 17.234375 C 5.640625 17.453125 5.9375 17.578125 6.25 17.578125 C 9.242188 17.578125 15.757812 17.578125 18.75 17.578125 C 19.0625 17.578125 19.359375 17.453125 19.578125 17.234375 C 19.796875 17.015625 19.921875 16.71875 19.921875 16.40625 Z M 19.921875 8.59375 "/>
<path style=" stroke:none;fill-rule:evenodd;fill:rgb(0%,0%,0%);fill-opacity:1;" d="M 12.5 11.273438 L 19.339844 7.472656 C 19.53125 7.367188 19.769531 7.433594 19.871094 7.621094 C 19.976562 7.8125 19.910156 8.050781 19.722656 8.152344 L 12.691406 12.058594 C 12.570312 12.125 12.429688 12.125 12.308594 12.058594 L 5.277344 8.152344 C 5.089844 8.050781 5.023438 7.8125 5.128906 7.621094 C 5.230469 7.433594 5.46875 7.367188 5.660156 7.472656 Z M 12.5 11.273438 "/>
</g>
</svg>
