<?xml version="1.0" encoding="UTF-8"?>
<svg xmlns="http://www.w3.org/2000/svg" xmlns:xlink="http://www.w3.org/1999/xlink" width="30px" height="px" viewBox="0 0 30 30" version="1.1">
<g id="surface1">
<path style=" stroke:none;fill-rule:evenodd;fill:rgb(26.666667%,37.647059%,62.745098%);fill-opacity:1;" d="M 16.023438 30 L 1.65625 30 C 0.742188 30 0 29.257812 0 28.34375 L 0 1.65625 C 0 0.742188 0.742188 0 1.65625 0 L 28.34375 0 C 29.257812 0 30 0.742188 30 1.65625 L 30 28.34375 C 30 29.257812 29.257812 30 28.34375 30 L 20.699219 30 L 20.699219 18.382812 L 24.597656 18.382812 L 25.183594 13.855469 L 20.699219 13.855469 L 20.699219 10.964844 C 20.699219 9.652344 21.0625 8.761719 22.941406 8.761719 L 25.339844 8.757812 L 25.339844 4.710938 C 24.925781 4.65625 23.503906 4.53125 21.847656 4.53125 C 18.390625 4.53125 16.023438 6.640625 16.023438 10.515625 L 16.023438 13.855469 L 12.113281 13.855469 L 12.113281 18.382812 L 16.023438 18.382812 Z M 16.023438 30 "/>
</g>
</svg>
