<?xml version="1.0" encoding="UTF-8"?>
<svg xmlns="http://www.w3.org/2000/svg" xmlns:xlink="http://www.w3.org/1999/xlink" width="30px" height="px" viewBox="0 0 30 30" version="1.1">
<g id="surface1">
<path style=" stroke:none;fill-rule:nonzero;fill:rgb(89.411765%,30.980392%,14.901961%);fill-opacity:1;" d="M 5.53125 25.5 L 3.425781 1.875 L 26.574219 1.875 L 24.464844 25.496094 L 14.984375 28.125 Z M 5.53125 25.5 "/>
<path style=" stroke:none;fill-rule:nonzero;fill:rgb(94.509804%,40%,16.470588%);fill-opacity:1;" d="M 15 26.117188 L 22.660156 23.992188 L 24.460938 3.808594 L 15 3.808594 Z M 15 26.117188 "/>
<path style=" stroke:none;fill-rule:nonzero;fill:rgb(92.156863%,92.156863%,92.156863%);fill-opacity:1;" d="M 15 12.570312 L 11.164062 12.570312 L 10.902344 9.601562 L 15 9.601562 L 15 6.703125 L 7.734375 6.703125 L 7.804688 7.480469 L 8.515625 15.46875 L 15 15.46875 Z M 15 12.570312 "/>
<path style=" stroke:none;fill-rule:nonzero;fill:rgb(92.156863%,92.156863%,92.156863%);fill-opacity:1;" d="M 15 20.09375 L 14.988281 20.097656 L 11.761719 19.226562 L 11.554688 16.917969 L 8.644531 16.917969 L 9.050781 21.464844 L 14.988281 23.113281 L 15 23.109375 Z M 15 20.09375 "/>
<path style=" stroke:none;fill-rule:nonzero;fill:rgb(100%,100%,100%);fill-opacity:1;" d="M 14.988281 12.570312 L 14.988281 15.46875 L 18.558594 15.46875 L 18.222656 19.226562 L 14.988281 20.097656 L 14.988281 23.113281 L 20.929688 21.464844 L 20.972656 20.976562 L 21.65625 13.347656 L 21.726562 12.570312 Z M 14.988281 12.570312 "/>
<path style=" stroke:none;fill-rule:nonzero;fill:rgb(100%,100%,100%);fill-opacity:1;" d="M 14.988281 6.703125 L 14.988281 9.601562 L 21.988281 9.601562 L 22.046875 8.953125 L 22.179688 7.480469 L 22.25 6.703125 Z M 14.988281 6.703125 "/>
</g>
</svg>
