<?xml version="1.0" encoding="UTF-8"?>
<svg xmlns="http://www.w3.org/2000/svg" xmlns:xlink="http://www.w3.org/1999/xlink" width="30px" height="30px" viewBox="0 0 30 30" version="1.1">
<g id="surface1">
<path style=" stroke:none;fill-rule:nonzero;fill:rgb(0%,45.490196%,74.117647%);fill-opacity:1;" d="M 12.324219 15.894531 C 12.324219 15.894531 11.554688 16.34375 12.871094 16.492188 C 14.46875 16.675781 15.285156 16.648438 17.046875 16.316406 C 17.046875 16.316406 17.507812 16.605469 18.15625 16.859375 C 14.210938 18.550781 9.222656 16.761719 12.324219 15.894531 Z M 11.839844 13.6875 C 11.839844 13.6875 10.976562 14.328125 12.296875 14.464844 C 14.003906 14.640625 15.351562 14.65625 17.683594 14.207031 C 17.683594 14.207031 18.003906 14.53125 18.511719 14.710938 C 13.742188 16.105469 8.429688 14.820312 11.839844 13.6875 Z M 11.839844 13.6875 "/>
<path style=" stroke:none;fill-rule:nonzero;fill:rgb(91.764706%,17.647059%,18.039216%);fill-opacity:1;" d="M 15.90625 9.945312 C 16.878906 11.066406 15.652344 12.070312 15.652344 12.070312 C 15.652344 12.070312 18.121094 10.796875 16.984375 9.199219 C 15.925781 7.710938 15.113281 6.972656 19.511719 4.425781 C 19.511719 4.425781 12.609375 6.148438 15.90625 9.945312 Z M 15.90625 9.945312 "/>
<path style=" stroke:none;fill-rule:nonzero;fill:rgb(0%,45.490196%,74.117647%);fill-opacity:1;" d="M 21.125 17.527344 C 21.125 17.527344 21.695312 17.996094 20.496094 18.359375 C 18.21875 19.050781 11.019531 19.257812 9.015625 18.386719 C 8.300781 18.074219 9.648438 17.640625 10.070312 17.550781 C 10.511719 17.453125 10.765625 17.472656 10.765625 17.472656 C 9.964844 16.90625 5.597656 18.578125 8.546875 19.054688 C 16.589844 20.359375 23.210938 18.46875 21.125 17.527344 Z M 12.695312 11.402344 C 12.695312 11.402344 9.03125 12.273438 11.398438 12.589844 C 12.398438 12.722656 14.386719 12.691406 16.242188 12.535156 C 17.757812 12.410156 19.28125 12.136719 19.28125 12.136719 C 19.28125 12.136719 18.746094 12.367188 18.359375 12.628906 C 14.640625 13.609375 7.453125 13.152344 9.523438 12.152344 C 11.273438 11.304688 12.695312 11.402344 12.695312 11.402344 Z M 19.265625 15.074219 C 23.046875 13.109375 21.296875 11.222656 20.078125 11.476562 C 19.78125 11.539062 19.644531 11.59375 19.644531 11.59375 C 19.644531 11.59375 19.757812 11.417969 19.96875 11.34375 C 22.382812 10.496094 24.238281 13.847656 19.191406 15.175781 C 19.191406 15.175781 19.25 15.121094 19.265625 15.074219 Z M 19.265625 15.074219 "/>
<path style=" stroke:none;fill-rule:nonzero;fill:rgb(91.764706%,17.647059%,18.039216%);fill-opacity:1;" d="M 16.984375 0.308594 C 16.984375 0.308594 19.082031 2.402344 15 5.625 C 11.726562 8.207031 14.253906 9.679688 15 11.367188 C 13.089844 9.640625 11.6875 8.125 12.625 6.710938 C 14.007812 4.640625 17.832031 3.636719 16.984375 0.308594 Z M 16.984375 0.308594 "/>
<path style=" stroke:none;fill-rule:nonzero;fill:rgb(0%,45.490196%,74.117647%);fill-opacity:1;" d="M 13.066406 20.398438 C 16.695312 20.632812 22.269531 20.269531 22.402344 18.554688 C 22.402344 18.554688 22.148438 19.203125 19.402344 19.722656 C 16.304688 20.304688 12.484375 20.234375 10.214844 19.863281 C 10.214844 19.863281 10.679688 20.246094 13.066406 20.398438 Z M 13.066406 20.398438 "/>
<path style=" stroke:none;fill-rule:nonzero;fill:rgb(91.764706%,17.647059%,18.039216%);fill-opacity:1;" d="M 22.234375 23.480469 L 22.125 23.480469 L 22.125 23.417969 L 22.421875 23.417969 L 22.421875 23.480469 L 22.3125 23.480469 L 22.3125 23.789062 L 22.234375 23.789062 Z M 22.828125 23.496094 L 22.71875 23.789062 L 22.667969 23.789062 L 22.558594 23.496094 L 22.554688 23.496094 L 22.554688 23.789062 L 22.484375 23.789062 L 22.484375 23.417969 L 22.589844 23.417969 L 22.691406 23.679688 L 22.792969 23.417969 L 22.898438 23.417969 L 22.898438 23.789062 L 22.828125 23.789062 Z M 12.472656 26.960938 C 12.128906 27.257812 11.765625 27.425781 11.441406 27.425781 C 10.980469 27.425781 10.726562 27.148438 10.726562 26.703125 C 10.726562 26.21875 10.996094 25.867188 12.074219 25.867188 L 12.472656 25.867188 Z M 13.417969 28.027344 L 13.417969 24.726562 C 13.417969 23.886719 12.933594 23.328125 11.777344 23.328125 C 11.101562 23.328125 10.507812 23.496094 10.023438 23.707031 L 10.164062 24.292969 C 10.542969 24.152344 11.035156 24.023438 11.515625 24.023438 C 12.183594 24.023438 12.472656 24.292969 12.472656 24.847656 L 12.472656 25.265625 L 12.136719 25.265625 C 10.515625 25.265625 9.785156 25.894531 9.785156 26.84375 C 9.785156 27.65625 10.265625 28.121094 11.175781 28.121094 C 11.757812 28.121094 12.195312 27.878906 12.601562 27.527344 L 12.675781 28.027344 Z M 16.570312 28.027344 L 15.390625 28.027344 L 13.972656 23.414062 L 15 23.414062 L 15.882812 26.25 L 16.078125 27.101562 C 16.523438 25.867188 16.835938 24.617188 16.996094 23.414062 L 17.996094 23.414062 C 17.726562 24.933594 17.246094 26.601562 16.570312 28.027344 Z M 21.089844 26.960938 C 20.746094 27.257812 20.382812 27.425781 20.058594 27.425781 C 19.597656 27.425781 19.347656 27.148438 19.347656 26.703125 C 19.347656 26.21875 19.617188 25.867188 20.691406 25.867188 L 21.089844 25.867188 Z M 22.035156 28.027344 L 22.035156 24.726562 C 22.035156 23.886719 21.550781 23.328125 20.394531 23.328125 C 19.71875 23.328125 19.125 23.496094 18.640625 23.707031 L 18.78125 24.292969 C 19.160156 24.152344 19.652344 24.023438 20.132812 24.023438 C 20.800781 24.023438 21.089844 24.292969 21.089844 24.847656 L 21.089844 25.265625 L 20.753906 25.265625 C 19.132812 25.265625 18.402344 25.894531 18.402344 26.84375 C 18.402344 27.65625 18.882812 28.121094 19.792969 28.121094 C 20.375 28.121094 20.8125 27.878906 21.21875 27.527344 L 21.292969 28.027344 Z M 8.746094 28.8125 C 8.480469 29.207031 8.042969 29.515625 7.566406 29.691406 L 7.101562 29.144531 C 7.464844 28.957031 7.773438 28.65625 7.917969 28.375 C 8.042969 28.128906 8.09375 27.808594 8.09375 27.039062 L 8.09375 21.769531 L 9.097656 21.769531 L 9.097656 26.96875 C 9.097656 27.992188 9.015625 28.40625 8.746094 28.8125 Z M 8.746094 28.8125 "/>
</g>
</svg>
