<?xml version="1.0" encoding="UTF-8"?>
<svg xmlns="http://www.w3.org/2000/svg" xmlns:xlink="http://www.w3.org/1999/xlink" width="30px" height="px" viewBox="0 0 30 30" version="1.1">
<g id="surface1">
<path style=" stroke:none;fill-rule:nonzero;fill:rgb(96.078431%,87.058824%,9.803922%);fill-opacity:1;" d="M 1.875 1.875 L 28.125 1.875 L 28.125 28.125 L 1.875 28.125 Z M 1.875 1.875 "/>
<path style=" stroke:none;fill-rule:nonzero;fill:rgb(0%,0%,0%);fill-opacity:1;" d="M 19.507812 22.382812 C 19.964844 23.308594 20.914062 23.894531 21.945312 23.882812 C 22.96875 23.882812 23.621094 23.371094 23.621094 22.664062 C 23.621094 21.820312 22.949219 21.519531 21.824219 21.027344 L 21.207031 20.761719 C 19.425781 20.003906 18.246094 19.054688 18.246094 17.046875 C 18.246094 15.195312 19.652344 13.785156 21.859375 13.785156 C 23.316406 13.679688 24.699219 14.460938 25.367188 15.761719 L 23.4375 16.996094 C 23.179688 16.347656 22.550781 15.925781 21.855469 15.9375 C 21.554688 15.90625 21.253906 16.003906 21.03125 16.207031 C 20.804688 16.40625 20.675781 16.695312 20.671875 16.996094 C 20.671875 17.734375 21.132812 18.035156 22.191406 18.496094 L 22.808594 18.757812 C 24.902344 19.660156 26.089844 20.574219 26.089844 22.632812 C 26.089844 24.855469 24.34375 26.070312 22 26.070312 C 20.136719 26.191406 18.375 25.203125 17.507812 23.550781 Z M 10.792969 22.597656 C 11.179688 23.285156 11.535156 23.863281 12.382812 23.863281 C 13.191406 23.863281 13.703125 23.546875 13.703125 22.316406 L 13.703125 13.925781 L 16.171875 13.925781 L 16.171875 22.347656 C 16.171875 24.902344 14.671875 26.0625 12.488281 26.0625 C 10.90625 26.152344 9.4375 25.257812 8.785156 23.8125 Z M 10.792969 22.597656 "/>
</g>
</svg>
