<?xml version="1.0" encoding="UTF-8"?>
<svg xmlns="http://www.w3.org/2000/svg" xmlns:xlink="http://www.w3.org/1999/xlink" width="30px" height="30px" viewBox="0 0 30 30" version="1.1">
<defs>
<linearGradient id="linear0" gradientUnits="userSpaceOnUse" x1="2163.54" y1="0.64" x2="2163.54" y2="4335.56" gradientTransform="matrix(0.00690242,0,0,0.00690242,0,0)">
<stop offset="0" style="stop-color:rgb(27.058824%,47.058824%,70.980392%);stop-opacity:1;"/>
<stop offset="1" style="stop-color:rgb(0.392157%,32.54902%,72.54902%);stop-opacity:1;"/>
</linearGradient>
<linearGradient id="linear1" gradientUnits="userSpaceOnUse" x1="2200.57" y1="882.13" x2="2200.57" y2="3593.24" gradientTransform="matrix(0.00690242,0,0,0.00690242,0,0)">
<stop offset="0" style="stop-color:rgb(99.607843%,99.607843%,99.607843%);stop-opacity:1;"/>
<stop offset="0.988235" style="stop-color:rgb(97.647059%,97.647059%,97.647059%);stop-opacity:1;"/>
<stop offset="1" style="stop-color:rgb(95.686275%,95.686275%,95.686275%);stop-opacity:1;"/>
</linearGradient>
</defs>
<g id="surface1">
<path style=" stroke:none;fill-rule:evenodd;fill:url(#linear0);" d="M -0.0273438 0.0078125 L 29.894531 0.0078125 L 29.894531 29.929688 L -0.0273438 29.929688 Z M -0.0273438 0.0078125 "/>
<path style=" stroke:none;fill-rule:nonzero;fill:rgb(73.72549%,73.72549%,73.72549%);fill-opacity:1;" d="M 21.769531 22.417969 L 18.996094 22.417969 L 18.996094 18.078125 C 18.996094 17.042969 18.976562 15.710938 17.554688 15.710938 C 16.109375 15.710938 15.890625 16.84375 15.890625 18 L 15.890625 22.417969 L 13.113281 22.417969 L 13.113281 13.488281 L 15.773438 13.488281 L 15.773438 14.710938 L 15.8125 14.710938 C 16.1875 14.003906 17.089844 13.265625 18.4375 13.265625 C 21.246094 13.265625 21.761719 15.117188 21.761719 17.519531 L 21.761719 22.417969 Z M 9.988281 12.265625 C 9.097656 12.265625 8.378906 11.546875 8.378906 10.65625 C 8.378906 9.765625 9.097656 9.050781 9.988281 9.050781 C 10.878906 9.050781 11.597656 9.773438 11.597656 10.65625 C 11.597656 11.546875 10.878906 12.265625 9.988281 12.265625 Z M 11.375 22.417969 L 8.59375 22.417969 L 8.59375 13.488281 L 11.375 13.488281 Z M 23.152344 6.472656 L 7.207031 6.472656 C 6.445312 6.472656 5.824219 7.082031 5.824219 7.820312 L 5.824219 23.835938 C 5.824219 24.578125 6.445312 25.1875 7.207031 25.1875 L 23.152344 25.1875 C 23.917969 25.1875 24.539062 24.578125 24.539062 23.835938 L 24.539062 7.820312 C 24.539062 7.074219 23.917969 6.472656 23.152344 6.472656 Z M 23.152344 6.472656 "/>
<path style=" stroke:none;fill-rule:nonzero;fill:url(#linear1);" d="M 21.777344 22.03125 L 19.003906 22.03125 L 19.003906 17.691406 C 19.003906 16.65625 18.980469 15.324219 17.558594 15.324219 C 16.117188 15.324219 15.894531 16.457031 15.894531 17.613281 L 15.894531 22.03125 L 13.121094 22.03125 L 13.121094 13.101562 L 15.777344 13.101562 L 15.777344 14.324219 L 15.820312 14.324219 C 16.191406 13.617188 17.097656 12.878906 18.441406 12.878906 C 21.253906 12.878906 21.769531 14.730469 21.769531 17.132812 L 21.769531 22.03125 Z M 9.996094 11.878906 C 9.105469 11.878906 8.386719 11.160156 8.386719 10.269531 C 8.386719 9.378906 9.105469 8.664062 9.996094 8.664062 C 10.886719 8.664062 11.601562 9.386719 11.601562 10.269531 C 11.601562 11.160156 10.886719 11.878906 9.996094 11.878906 Z M 11.382812 22.03125 L 8.601562 22.03125 L 8.601562 13.101562 L 11.382812 13.101562 Z M 23.15625 6.089844 L 7.214844 6.089844 C 6.453125 6.089844 5.832031 6.695312 5.832031 7.433594 L 5.832031 23.449219 C 5.832031 24.191406 6.453125 24.800781 7.214844 24.800781 L 23.15625 24.800781 C 23.921875 24.800781 24.546875 24.191406 24.546875 23.449219 L 24.546875 7.433594 C 24.546875 6.6875 23.921875 6.089844 23.15625 6.089844 Z M 23.15625 6.089844 "/>
</g>
</svg>
