<?xml version="1.0" encoding="UTF-8"?>
<svg xmlns="http://www.w3.org/2000/svg" xmlns:xlink="http://www.w3.org/1999/xlink" width="60px" height="60px" viewBox="0 0 60 60" version="1.1">
<defs>
<linearGradient id="linear0" gradientUnits="userSpaceOnUse" x1="-2901.952" y1="923.573" x2="-2061.249" y2="1420.331" gradientTransform="matrix(0.00285039,0,0,-0.00285039,34.852805,38.196631)">
<stop offset="0" style="stop-color:rgb(56.470588%,61.176471%,66.27451%);stop-opacity:1;"/>
<stop offset="1" style="stop-color:rgb(92.941176%,92.941176%,93.333333%);stop-opacity:1;"/>
</linearGradient>
<linearGradient id="linear1" gradientUnits="userSpaceOnUse" x1="-2882.7" y1="10288.81" x2="-2206.249" y2="10288.81" gradientTransform="matrix(0.00285039,0,0,-0.00285039,34.852805,38.196631)">
<stop offset="0" style="stop-color:rgb(57.647059%,62.352941%,67.058824%);stop-opacity:1;"/>
<stop offset="1" style="stop-color:rgb(86.27451%,87.058824%,88.235294%);stop-opacity:1;"/>
</linearGradient>
<radialGradient id="radial0" gradientUnits="userSpaceOnUse" cx="-14217.448" cy="7277.705" fx="-14217.448" fy="7277.705" r="898.12" gradientTransform="matrix(-0.00273721,-0.000411158,-0.000831556,0.00547441,3.501175,-27.974173)">
<stop offset="0" style="stop-color:rgb(93.333333%,20.784314%,17.254902%);stop-opacity:1;"/>
<stop offset="1" style="stop-color:rgb(66.27451%,11.372549%,13.333333%);stop-opacity:1;"/>
</radialGradient>
</defs>
<g id="surface1">
<path style=" stroke:none;fill-rule:nonzero;fill:url(#linear0);" d="M 40.683594 21.195312 L 34.058594 23.359375 L 28.292969 25.902344 L 26.679688 26.328125 C 26.269531 26.71875 25.835938 27.113281 25.371094 27.515625 C 24.859375 27.957031 24.382812 28.355469 24.019531 28.648438 C 23.613281 28.96875 23.011719 29.570312 22.707031 29.949219 C 22.25 30.519531 21.890625 31.128906 21.734375 31.59375 C 21.457031 32.433594 21.59375 33.285156 22.125 34.074219 C 22.804688 35.074219 24.164062 36.097656 25.746094 36.792969 C 26.554688 37.148438 27.910156 37.605469 28.933594 37.859375 C 30.628906 38.289062 33.917969 38.757812 35.726562 38.828125 C 36.089844 38.839844 36.582031 38.839844 36.601562 38.828125 C 36.640625 38.800781 36.921875 38.265625 37.246094 37.597656 C 38.359375 35.328125 39.160156 33.199219 39.597656 31.382812 C 39.855469 30.28125 40.0625 28.8125 40.199219 27.074219 C 40.234375 26.589844 40.246094 24.960938 40.21875 24.410156 C 40.171875 23.507812 40.09375 22.777344 39.96875 22.0625 C 39.949219 21.957031 39.941406 21.859375 39.953125 21.855469 C 39.972656 21.839844 40.03125 21.820312 40.847656 21.585938 Z M 39.171875 22.082031 C 39.230469 22.082031 39.390625 23.617188 39.429688 24.589844 C 39.441406 24.796875 39.4375 24.929688 39.425781 24.929688 C 39.386719 24.929688 38.578125 24.457031 38.003906 24.09375 C 37.503906 23.777344 36.550781 23.148438 36.402344 23.027344 C 36.351562 22.992188 36.355469 22.988281 36.765625 22.847656 C 37.464844 22.613281 39.117188 22.082031 39.171875 22.082031 Z M 35.796875 23.191406 C 35.839844 23.191406 35.957031 23.257812 36.230469 23.429688 C 37.261719 24.074219 38.664062 24.855469 39.265625 25.117188 C 39.453125 25.195312 39.472656 25.167969 39.046875 25.457031 C 38.132812 26.078125 36.996094 26.6875 35.605469 27.304688 C 35.359375 27.414062 35.152344 27.5 35.148438 27.5 C 35.140625 27.5 35.167969 27.375 35.207031 27.226562 C 35.542969 25.976562 35.734375 24.714844 35.746094 23.703125 C 35.75 23.203125 35.75 23.203125 35.796875 23.1875 C 35.785156 23.191406 35.789062 23.191406 35.796875 23.191406 Z M 35.097656 23.457031 C 35.128906 23.488281 35.109375 24.609375 35.070312 24.914062 C 34.980469 25.648438 34.839844 26.328125 34.609375 27.09375 C 34.554688 27.28125 34.503906 27.433594 34.492188 27.445312 C 34.472656 27.46875 33.785156 26.800781 33.5625 26.539062 C 33.171875 26.089844 32.863281 25.636719 32.640625 25.195312 C 32.523438 24.972656 32.34375 24.53125 32.359375 24.515625 C 32.4375 24.460938 35.078125 23.4375 35.097656 23.457031 Z M 31.824219 24.746094 C 31.828125 24.746094 31.832031 24.746094 31.835938 24.75 C 31.847656 24.761719 31.882812 24.839844 31.914062 24.929688 C 32.074219 25.367188 32.433594 26.007812 32.746094 26.417969 C 33.085938 26.871094 33.53125 27.351562 33.902344 27.664062 C 34.023438 27.765625 34.132812 27.859375 34.148438 27.875 C 34.175781 27.90625 34.1875 27.902344 33.371094 28.210938 C 32.425781 28.574219 31.390625 28.933594 30.210938 29.3125 C 29.925781 29.40625 29.644531 29.496094 29.363281 29.589844 C 29.316406 29.605469 29.332031 29.578125 29.464844 29.375 C 30.050781 28.457031 30.941406 26.660156 31.441406 25.386719 C 31.527344 25.167969 31.613281 24.945312 31.628906 24.894531 C 31.648438 24.824219 31.671875 24.800781 31.738281 24.765625 C 31.773438 24.753906 31.808594 24.746094 31.824219 24.746094 Z M 30.820312 25.160156 C 30.835938 25.171875 30.582031 25.707031 30.332031 26.199219 C 29.84375 27.144531 29.3125 28.078125 28.601562 29.207031 C 28.480469 29.402344 28.367188 29.585938 28.351562 29.605469 C 28.328125 29.640625 28.316406 29.628906 28.238281 29.472656 C 28.066406 29.136719 27.925781 28.707031 27.851562 28.3125 C 27.777344 27.921875 27.789062 27.238281 27.875 26.820312 C 27.941406 26.507812 27.9375 26.515625 28.085938 26.4375 C 28.726562 26.113281 30.800781 25.140625 30.820312 25.160156 Z M 39.460938 25.511719 L 39.460938 25.722656 C 39.460938 26.839844 39.339844 28.371094 39.167969 29.488281 C 39.136719 29.683594 39.109375 29.84375 39.105469 29.851562 C 39.105469 29.851562 38.960938 29.808594 38.789062 29.757812 C 38.039062 29.523438 37.222656 29.179688 36.484375 28.773438 C 36 28.507812 35.292969 28.070312 35.3125 28.050781 C 35.320312 28.046875 35.53125 27.9375 35.773438 27.804688 C 36.757812 27.296875 37.699219 26.746094 38.515625 26.199219 C 38.820312 25.992188 39.28125 25.664062 39.382812 25.570312 Z M 27.039062 26.996094 C 27.058594 26.996094 27.054688 27.035156 27.023438 27.214844 C 27.003906 27.34375 26.980469 27.585938 26.96875 27.75 C 26.929688 28.480469 27.050781 29.023438 27.410156 29.765625 C 27.511719 29.96875 27.589844 30.140625 27.585938 30.144531 C 27.550781 30.175781 24.234375 31.148438 23.191406 31.433594 C 22.882812 31.519531 22.609375 31.59375 22.589844 31.597656 C 22.554688 31.609375 22.550781 31.601562 22.566406 31.519531 C 22.679688 30.78125 23.242188 29.820312 24.023438 29.007812 C 24.542969 28.46875 24.960938 28.152344 25.671875 27.746094 C 26.183594 27.457031 26.96875 27.019531 27.027344 27 C 27.027344 26.996094 27.035156 26.996094 27.039062 26.996094 Z M 34.851562 28.390625 C 34.859375 28.386719 34.980469 28.453125 35.125 28.539062 C 36.195312 29.160156 37.6875 29.734375 38.960938 30.03125 L 39.074219 30.054688 L 38.914062 30.144531 C 38.25 30.515625 36.058594 31.425781 33.820312 32.265625 C 33.496094 32.382812 33.175781 32.503906 33.113281 32.53125 C 33.054688 32.554688 33 32.570312 33 32.566406 C 33 32.558594 33.089844 32.382812 33.207031 32.167969 C 33.832031 30.996094 34.460938 29.570312 34.78125 28.578125 C 34.824219 28.480469 34.847656 28.398438 34.851562 28.390625 Z M 34.058594 28.652344 C 34.0625 28.65625 34.023438 28.761719 33.972656 28.882812 C 33.535156 29.941406 32.964844 31.09375 32.234375 32.382812 C 32.046875 32.714844 31.894531 32.980469 31.886719 32.980469 C 31.882812 32.980469 31.734375 32.890625 31.550781 32.78125 C 30.492188 32.128906 29.546875 31.328125 28.933594 30.550781 L 28.84375 30.441406 L 29.296875 30.316406 C 30.929688 29.871094 32.320312 29.390625 33.695312 28.796875 C 33.890625 28.71875 34.050781 28.652344 34.058594 28.652344 Z M 39.007812 30.378906 C 39.007812 30.378906 39.011719 30.386719 39.007812 30.378906 C 39.011719 30.496094 38.753906 31.527344 38.546875 32.273438 C 38.371094 32.898438 38.21875 33.390625 37.945312 34.257812 C 37.824219 34.636719 37.71875 34.953125 37.714844 34.953125 C 37.707031 34.953125 37.679688 34.949219 37.648438 34.9375 C 36.160156 34.667969 34.828125 34.292969 33.574219 33.792969 C 33.226562 33.652344 32.722656 33.425781 32.695312 33.402344 C 32.683594 33.390625 32.984375 33.25 33.367188 33.085938 C 35.644531 32.089844 38.007812 30.957031 38.820312 30.472656 C 38.914062 30.410156 38.992188 30.378906 39.007812 30.378906 Z M 27.582031 30.773438 C 27.589844 30.78125 26.953125 31.699219 26.0625 32.945312 C 25.75 33.382812 25.390625 33.890625 25.257812 34.082031 C 25.121094 34.273438 24.914062 34.574219 24.800781 34.753906 L 24.589844 35.078125 L 24.363281 34.890625 C 24.097656 34.667969 23.636719 34.199219 23.433594 33.9375 C 23 33.402344 22.710938 32.835938 22.597656 32.320312 C 22.539062 32.078125 22.539062 31.957031 22.589844 31.945312 C 22.667969 31.921875 24.003906 31.609375 25.257812 31.316406 C 25.953125 31.15625 26.757812 30.96875 27.050781 30.898438 C 27.339844 30.828125 27.574219 30.773438 27.582031 30.773438 Z M 28.222656 31.015625 L 28.382812 31.199219 C 29.101562 32.003906 29.839844 32.601562 30.730469 33.121094 C 30.890625 33.210938 31.011719 33.292969 31 33.296875 C 30.964844 33.320312 27.90625 34.40625 26.488281 34.898438 C 25.691406 35.179688 25.035156 35.40625 25.03125 35.40625 C 25.027344 35.40625 24.980469 35.375 24.929688 35.339844 L 24.839844 35.273438 L 24.984375 35.0625 C 25.457031 34.382812 26.046875 33.636719 27.335938 32.082031 Z M 32.21875 33.878906 C 32.222656 33.871094 32.445312 33.953125 32.714844 34.050781 C 33.367188 34.296875 33.882812 34.453125 34.574219 34.628906 C 35.425781 34.84375 36.65625 35.054688 37.382812 35.113281 C 37.492188 35.125 37.554688 35.132812 37.535156 35.148438 C 37.5 35.167969 36.761719 35.414062 36.222656 35.585938 C 35.359375 35.855469 32.730469 36.632812 30.585938 37.25 C 30.191406 37.363281 29.847656 37.457031 29.828125 37.464844 C 29.777344 37.472656 29.613281 37.429688 29.613281 37.410156 C 29.613281 37.398438 29.734375 37.242188 29.878906 37.074219 C 30.601562 36.210938 31.316406 35.25 31.914062 34.339844 C 32.078125 34.085938 32.21875 33.882812 32.21875 33.878906 Z M 31.335938 33.902344 C 31.34375 33.90625 30.984375 34.476562 30.367188 35.460938 C 30.101562 35.875 29.804688 36.347656 29.699219 36.511719 C 29.597656 36.671875 29.449219 36.921875 29.363281 37.0625 L 29.21875 37.320312 L 29.144531 37.296875 C 28.960938 37.25 27.695312 36.800781 27.359375 36.667969 C 26.945312 36.5 26.511719 36.300781 26.191406 36.132812 C 25.792969 35.914062 25.289062 35.59375 25.332031 35.585938 C 25.339844 35.582031 26.027344 35.394531 26.855469 35.167969 C 29.046875 34.574219 30.265625 34.226562 31.0625 33.976562 C 31.207031 33.933594 31.332031 33.898438 31.335938 33.902344 Z M 37.574219 35.363281 L 37.578125 35.363281 C 37.597656 35.414062 36.785156 37.667969 36.492188 38.378906 C 36.425781 38.539062 36.402344 38.582031 36.367188 38.574219 C 36.28125 38.570312 35.105469 38.40625 34.386719 38.300781 C 33.140625 38.109375 31.046875 37.742188 30.519531 37.625 L 30.398438 37.597656 L 31.148438 37.429688 C 32.75 37.066406 33.519531 36.871094 34.300781 36.632812 C 35.289062 36.332031 36.265625 35.957031 37.253906 35.496094 C 37.40625 35.425781 37.539062 35.371094 37.574219 35.363281 Z M 37.574219 35.363281 "/>
<path style=" stroke:none;fill-rule:nonzero;fill:url(#linear1);" d="M 33.851562 5.746094 C 33.742188 5.730469 31.964844 6.371094 30.816406 6.839844 C 29.269531 7.46875 28.066406 8.070312 27.324219 8.589844 C 27.050781 8.785156 26.703125 9.132812 26.648438 9.265625 C 26.628906 9.316406 26.617188 9.378906 26.617188 9.4375 L 27.289062 10.074219 L 28.886719 10.585938 L 32.6875 11.265625 L 37.039062 12.011719 L 37.082031 11.636719 C 37.066406 11.636719 37.058594 11.632812 37.042969 11.632812 L 36.472656 11.542969 L 36.355469 11.335938 C 35.765625 10.292969 35.113281 9.003906 34.734375 8.128906 C 34.4375 7.453125 34.15625 6.671875 34 6.113281 C 33.917969 5.769531 33.90625 5.75 33.851562 5.746094 Z M 33.769531 6 L 33.777344 6 C 33.78125 6.007812 33.800781 6.148438 33.820312 6.3125 C 33.90625 7.011719 34.0625 7.691406 34.308594 8.421875 C 34.492188 8.972656 34.492188 8.941406 34.277344 8.875 C 33.765625 8.738281 31.476562 8.339844 29.820312 8.109375 C 29.554688 8.074219 29.328125 8.039062 29.328125 8.035156 C 29.308594 8.015625 30.527344 7.378906 31.0625 7.128906 C 31.746094 6.8125 33.632812 6.027344 33.769531 6 Z M 28.941406 8.246094 L 29.136719 8.3125 C 30.199219 8.671875 32.871094 9.183594 34.34375 9.300781 C 34.507812 9.316406 34.648438 9.332031 34.652344 9.332031 C 34.65625 9.335938 34.519531 9.414062 34.335938 9.496094 C 33.625 9.855469 32.84375 10.289062 32.304688 10.625 C 32.144531 10.726562 32 10.804688 31.976562 10.804688 C 31.957031 10.804688 31.851562 10.785156 31.742188 10.769531 L 31.542969 10.738281 L 31.042969 10.25 C 30.160156 9.394531 29.46875 8.730469 29.203125 8.480469 Z M 28.742188 8.402344 L 29.449219 9.28125 C 29.835938 9.769531 30.226562 10.246094 30.308594 10.347656 C 30.394531 10.453125 30.464844 10.539062 30.460938 10.542969 C 30.441406 10.558594 29.4375 10.363281 28.90625 10.246094 C 28.363281 10.117188 28.136719 10.058594 27.800781 9.953125 L 27.523438 9.863281 L 27.523438 9.792969 C 27.53125 9.457031 27.957031 8.957031 28.675781 8.445312 Z M 34.742188 9.601562 C 34.761719 9.601562 34.789062 9.648438 34.847656 9.785156 C 35.019531 10.160156 35.550781 11.171875 35.679688 11.367188 C 35.71875 11.429688 35.789062 11.4375 35.082031 11.320312 C 33.386719 11.046875 32.839844 10.957031 32.839844 10.945312 C 32.839844 10.941406 32.890625 10.90625 32.953125 10.871094 C 33.480469 10.578125 34.011719 10.210938 34.484375 9.8125 C 34.597656 9.71875 34.703125 9.628906 34.722656 9.613281 C 34.726562 9.601562 34.738281 9.597656 34.742188 9.601562 Z M 34.742188 9.601562 "/>
<path style=" stroke:none;fill-rule:nonzero;fill:url(#radial0);" d="M 26.683594 9.199219 C 26.683594 9.199219 26.574219 9.371094 26.679688 9.632812 C 26.742188 9.792969 26.933594 9.988281 27.148438 10.1875 C 27.148438 10.1875 29.378906 12.363281 29.648438 12.671875 C 30.882812 14.097656 31.417969 15.5 31.46875 17.433594 C 31.496094 18.675781 31.261719 19.765625 30.675781 21.035156 C 29.632812 23.308594 27.433594 25.816406 24.042969 28.601562 L 24.539062 28.4375 C 24.859375 28.195312 25.296875 27.941406 26.316406 27.378906 C 28.675781 26.089844 31.332031 24.902344 34.585938 23.679688 C 39.277344 21.914062 46.984375 19.851562 51.375 19.179688 L 51.828125 19.109375 L 51.757812 19 C 51.359375 18.378906 51.082031 17.992188 50.753906 17.582031 C 49.789062 16.390625 48.625 15.421875 47.195312 14.621094 C 45.230469 13.523438 42.691406 12.667969 39.476562 12.03125 C 38.871094 11.914062 37.539062 11.683594 36.457031 11.515625 C 34.160156 11.160156 32.679688 10.914062 31.046875 10.636719 C 30.460938 10.535156 29.582031 10.382812 29.003906 10.257812 C 28.703125 10.195312 28.125 10.058594 27.675781 9.902344 C 27.316406 9.761719 26.792969 9.625 26.683594 9.199219 Z M 27.976562 10.449219 C 27.980469 10.445312 28.0625 10.476562 28.167969 10.511719 C 28.355469 10.574219 28.601562 10.648438 28.894531 10.730469 C 29.113281 10.789062 29.332031 10.847656 29.554688 10.90625 C 29.855469 10.980469 30.105469 11.050781 30.109375 11.050781 C 30.144531 11.085938 30.652344 12.703125 30.820312 13.324219 C 30.886719 13.558594 30.9375 13.761719 30.929688 13.761719 C 30.925781 13.765625 30.871094 13.679688 30.804688 13.566406 C 30.21875 12.535156 29.292969 11.488281 28.222656 10.644531 C 28.082031 10.542969 27.976562 10.453125 27.976562 10.449219 Z M 30.441406 11.132812 C 30.464844 11.132812 30.574219 11.144531 30.710938 11.175781 C 31.5625 11.367188 33.089844 11.65625 34.066406 11.820312 C 34.230469 11.847656 34.363281 11.878906 34.363281 11.886719 C 34.363281 11.898438 34.300781 11.933594 34.226562 11.972656 C 34.0625 12.058594 33.394531 12.453125 33.175781 12.605469 C 32.621094 12.972656 32.117188 13.375 31.757812 13.734375 C 31.613281 13.882812 31.488281 14 31.488281 14 C 31.488281 14 31.457031 13.914062 31.433594 13.8125 C 31.25 13.113281 30.875 12.082031 30.535156 11.355469 C 30.480469 11.242188 30.433594 11.136719 30.433594 11.125 C 30.433594 11.136719 30.433594 11.132812 30.441406 11.132812 Z M 34.777344 11.957031 C 34.808594 11.96875 34.859375 12.136719 34.957031 12.511719 C 35.144531 13.238281 35.230469 14.050781 35.199219 14.808594 C 35.1875 15.019531 35.179688 15.214844 35.167969 15.238281 L 35.152344 15.289062 L 34.894531 15.203125 C 34.355469 15.03125 33.484375 14.777344 32.738281 14.566406 C 32.3125 14.453125 31.96875 14.347656 31.96875 14.335938 C 31.96875 14.308594 32.589844 13.683594 32.855469 13.449219 C 33.359375 13.003906 34.734375 11.941406 34.777344 11.957031 Z M 35.125 12.007812 C 35.140625 11.992188 37.199219 12.347656 38.132812 12.527344 C 38.832031 12.664062 39.84375 12.875 39.902344 12.898438 C 39.933594 12.910156 39.828125 12.96875 39.492188 13.121094 C 38.167969 13.714844 37.1875 14.25 36.210938 14.902344 C 35.957031 15.074219 35.738281 15.214844 35.734375 15.214844 C 35.730469 15.214844 35.726562 15.066406 35.726562 14.894531 C 35.726562 13.941406 35.535156 12.980469 35.183594 12.167969 C 35.148438 12.085938 35.117188 12.011719 35.125 12.007812 Z M 40.449219 13.058594 C 40.464844 13.074219 40.398438 13.480469 40.339844 13.71875 C 40.15625 14.46875 39.671875 15.574219 39.074219 16.617188 C 38.972656 16.800781 38.875 16.953125 38.867188 16.957031 C 38.855469 16.960938 38.71875 16.886719 38.566406 16.796875 C 37.984375 16.457031 37.324219 16.136719 36.601562 15.835938 C 36.402344 15.75 36.226562 15.679688 36.222656 15.667969 C 36.1875 15.640625 37.796875 14.570312 38.648438 14.0625 C 39.328125 13.652344 40.429688 13.039062 40.449219 13.058594 Z M 40.828125 13.121094 C 40.875 13.121094 41.785156 13.371094 42.261719 13.511719 C 43.4375 13.859375 44.792969 14.355469 45.671875 14.757812 L 46.039062 14.921875 L 45.78125 14.984375 C 43.628906 15.480469 41.785156 16.050781 40.007812 16.769531 C 39.863281 16.832031 39.730469 16.882812 39.722656 16.882812 C 39.710938 16.882812 39.761719 16.765625 39.828125 16.625 C 40.363281 15.488281 40.707031 14.300781 40.792969 13.289062 C 40.800781 13.195312 40.8125 13.121094 40.828125 13.121094 Z M 31.753906 15.203125 C 31.769531 15.1875 32.464844 15.355469 32.839844 15.457031 C 33.410156 15.617188 34.621094 16.023438 34.621094 16.054688 C 34.621094 16.058594 34.488281 16.175781 34.328125 16.316406 C 33.671875 16.859375 33.039062 17.4375 32.285156 18.167969 C 32.058594 18.382812 31.867188 18.558594 31.859375 18.558594 C 31.847656 18.558594 31.84375 18.527344 31.847656 18.488281 C 31.964844 17.648438 31.9375 16.566406 31.777344 15.46875 C 31.761719 15.328125 31.746094 15.207031 31.753906 15.203125 Z M 46.382812 15.21875 C 46.394531 15.226562 46.0625 15.75 45.851562 16.042969 C 45.554688 16.476562 45.113281 17.046875 44.113281 18.300781 C 43.589844 18.960938 42.996094 19.707031 42.804688 19.957031 C 42.601562 20.207031 42.4375 20.417969 42.433594 20.417969 C 42.425781 20.417969 42.363281 20.328125 42.292969 20.21875 C 41.730469 19.375 41.058594 18.640625 40.261719 17.976562 C 40.113281 17.851562 39.949219 17.71875 39.890625 17.679688 C 39.835938 17.636719 39.792969 17.597656 39.792969 17.59375 C 39.792969 17.578125 40.644531 17.210938 41.289062 16.953125 C 42.421875 16.492188 43.964844 15.941406 45.121094 15.582031 C 45.726562 15.394531 46.375 15.207031 46.382812 15.21875 Z M 46.769531 15.320312 C 46.789062 15.3125 46.910156 15.375 47.054688 15.457031 C 48.273438 16.15625 49.464844 17.050781 50.40625 17.972656 C 50.671875 18.234375 51.328125 18.914062 51.316406 18.921875 C 51.316406 18.921875 51.085938 18.941406 50.816406 18.960938 C 48.707031 19.121094 46.007812 19.566406 43.414062 20.191406 C 43.238281 20.230469 43.082031 20.265625 43.074219 20.265625 C 43.0625 20.265625 43.257812 20.070312 43.503906 19.835938 C 45.027344 18.367188 45.722656 17.441406 46.542969 15.789062 C 46.660156 15.542969 46.761719 15.332031 46.769531 15.320312 C 46.765625 15.320312 46.765625 15.320312 46.769531 15.320312 Z M 35.613281 16.460938 C 35.683594 16.476562 36.335938 16.78125 36.828125 17.027344 C 37.277344 17.25 37.953125 17.613281 37.988281 17.644531 C 37.992188 17.648438 37.753906 17.773438 37.457031 17.917969 C 36.515625 18.390625 35.710938 18.835938 34.867188 19.347656 C 34.628906 19.492188 34.425781 19.609375 34.421875 19.609375 C 34.402344 19.609375 34.40625 19.589844 34.542969 19.347656 C 34.992188 18.523438 35.355469 17.542969 35.558594 16.585938 C 35.578125 16.511719 35.601562 16.460938 35.613281 16.460938 Z M 34.964844 16.582031 C 34.980469 16.597656 34.808594 17.210938 34.703125 17.546875 C 34.496094 18.183594 34.152344 18.980469 33.816406 19.582031 C 33.734375 19.722656 33.617188 19.925781 33.550781 20.042969 L 33.425781 20.242188 L 33.144531 19.972656 C 32.820312 19.65625 32.554688 19.460938 32.214844 19.285156 C 32.078125 19.214844 31.972656 19.15625 31.972656 19.144531 C 31.972656 19.105469 32.828125 18.328125 33.484375 17.769531 C 33.957031 17.363281 34.949219 16.566406 34.964844 16.582031 Z M 38.945312 18.21875 L 39.191406 18.378906 C 39.753906 18.746094 40.414062 19.230469 40.917969 19.65625 C 41.203125 19.890625 41.753906 20.386719 41.867188 20.507812 L 41.925781 20.574219 L 41.519531 20.6875 C 39.226562 21.324219 37.453125 21.890625 35.382812 22.652344 C 35.152344 22.738281 34.957031 22.808594 34.945312 22.808594 C 34.914062 22.808594 34.886719 22.832031 35.40625 22.355469 C 36.726562 21.140625 37.898438 19.796875 38.769531 18.488281 Z M 37.898438 18.480469 C 37.910156 18.488281 37.222656 19.457031 36.8125 20.003906 C 36.320312 20.652344 35.449219 21.746094 34.847656 22.457031 C 34.597656 22.753906 34.382812 22.996094 34.371094 23.003906 C 34.355469 23.007812 34.351562 22.933594 34.351562 22.816406 C 34.351562 22.210938 34.195312 21.566406 33.925781 21.015625 C 33.8125 20.785156 33.792969 20.726562 33.816406 20.703125 C 33.910156 20.617188 35.371094 19.785156 36.289062 19.289062 C 36.910156 18.960938 37.882812 18.46875 37.898438 18.480469 Z M 31.566406 20.03125 C 31.582031 20.03125 31.699219 20.09375 31.828125 20.164062 C 32.148438 20.335938 32.433594 20.53125 32.6875 20.742188 C 32.699219 20.753906 32.570312 20.859375 32.398438 20.984375 C 31.921875 21.324219 31.203125 21.871094 30.78125 22.207031 C 30.339844 22.558594 30.324219 22.566406 30.375 22.492188 C 30.707031 21.984375 30.871094 21.699219 31.046875 21.335938 C 31.203125 21.007812 31.355469 20.625 31.46875 20.289062 C 31.507812 20.140625 31.558594 20.03125 31.566406 20.03125 Z M 33.253906 21.355469 C 33.28125 21.347656 33.3125 21.394531 33.445312 21.59375 C 33.730469 22.019531 33.953125 22.589844 34.007812 23.050781 L 34.015625 23.152344 L 33.332031 23.417969 C 32.101562 23.894531 30.972656 24.363281 30.203125 24.714844 C 29.988281 24.816406 29.613281 24.996094 29.367188 25.117188 C 29.121094 25.242188 28.921875 25.335938 28.921875 25.332031 C 28.921875 25.328125 29.078125 25.210938 29.269531 25.070312 C 30.765625 23.984375 32.0625 22.792969 33.035156 21.601562 C 33.140625 21.476562 33.234375 21.359375 33.246094 21.355469 Z M 32.480469 21.542969 C 32.5 21.566406 31.929688 22.210938 31.539062 22.605469 C 30.570312 23.59375 29.613281 24.363281 28.425781 25.117188 C 28.277344 25.210938 28.140625 25.296875 28.125 25.308594 C 28.089844 25.328125 28.136719 25.277344 28.65625 24.710938 C 28.988281 24.355469 29.238281 24.054688 29.523438 23.683594 C 29.714844 23.4375 29.75 23.402344 30.023438 23.207031 C 30.761719 22.675781 32.460938 21.523438 32.480469 21.542969 Z M 32.480469 21.542969 "/>
<path style=" stroke:none;fill-rule:nonzero;fill:rgb(13.72549%,12.156863%,12.156863%);fill-opacity:1;" d="M 10.789062 42.285156 C 10.695312 42.285156 10.601562 42.292969 10.511719 42.292969 C 8.644531 42.394531 7.386719 43.214844 6.652344 44.820312 C 6.019531 46.269531 6.089844 48.167969 6.65625 49.625 C 7.316406 51.050781 8.386719 51.804688 10.164062 52.089844 C 10.542969 52.152344 10.796875 52.359375 11.523438 53.210938 L 12.421875 54.261719 L 14.050781 54.261719 L 12.96875 53.171875 C 12.371094 52.570312 11.886719 52.050781 11.886719 52.003906 C 11.886719 51.957031 12.113281 51.859375 12.390625 51.773438 C 13.304688 51.496094 14.066406 50.792969 14.59375 49.710938 C 15.023438 48.839844 15.085938 48.570312 15.148438 47.492188 C 15.308594 44.273438 13.613281 42.261719 10.789062 42.285156 Z M 12.214844 50.699219 C 11.421875 51.082031 10.273438 51.160156 9.523438 50.886719 C 8.746094 50.601562 7.992188 49.792969 7.65625 48.878906 C 7.28125 47.882812 7.332031 46.039062 7.761719 45.210938 C 8.453125 43.890625 9.367188 43.285156 10.703125 43.285156 C 12.683594 43.285156 13.8125 44.496094 13.957031 46.777344 C 14.074219 48.679688 13.4375 50.109375 12.21875 50.699219 Z M 40.347656 45.035156 C 39.667969 45.035156 39.144531 45.3125 38.792969 45.855469 L 38.515625 46.285156 L 38.515625 45.164062 L 37.332031 45.164062 L 37.332031 51.890625 L 38.515625 51.890625 L 38.515625 49.742188 C 38.515625 47.777344 38.539062 47.546875 38.8125 47.007812 C 39.191406 46.269531 39.84375 45.902344 40.472656 46.078125 L 40.894531 46.203125 L 40.894531 45.035156 Z M 33.402344 44.972656 C 33.171875 44.972656 32.925781 45.003906 32.683594 45.058594 C 31.101562 45.472656 30.207031 46.984375 30.261719 48.542969 C 30.261719 49.847656 30.515625 50.5 31.144531 51.183594 C 32.433594 52.242188 33.601562 52.328125 35.175781 51.757812 C 35.445312 51.644531 35.738281 51.511719 35.738281 51.511719 L 35.738281 50.453125 L 35.175781 50.746094 C 33.902344 51.300781 32.941406 51.300781 32.175781 50.644531 C 31.683594 50.148438 31.46875 49.546875 31.367188 48.867188 L 36.136719 48.867188 L 36.136719 47.957031 C 36.136719 46.109375 35.023438 44.941406 33.402344 44.972656 Z M 31.476562 47.921875 C 31.476562 47.921875 31.652344 46.769531 32.304688 46.316406 C 32.621094 46.09375 32.980469 45.988281 33.332031 45.988281 C 33.6875 45.988281 34.039062 46.101562 34.332031 46.324219 C 34.929688 46.785156 35.03125 47.914062 35.03125 47.914062 L 31.476562 47.914062 Z M 2.972656 46.707031 C 1.691406 45.933594 1.121094 45.371094 1.191406 44.710938 C 1.390625 42.886719 3.648438 43.136719 4.898438 43.828125 L 4.90625 42.601562 C 4.90625 42.601562 4.214844 42.300781 3.226562 42.285156 C 1.707031 42.261719 0.722656 42.761719 0.265625 43.773438 C -0.414062 45.269531 0.1875 46.398438 2.351562 47.660156 C 3.566406 48.367188 4.101562 48.980469 4.101562 49.648438 C 4.101562 51.03125 2.4375 51.511719 0.714844 50.644531 C 0.363281 50.46875 0.0625 50.324219 0.046875 50.324219 C -0.015625 50.714844 0.015625 51.652344 0.015625 51.652344 C 0.015625 51.652344 0.546875 51.875 1.335938 52.027344 C 3.300781 52.417969 5.089844 51.496094 5.257812 50 C 5.40625 48.59375 4.898438 47.859375 2.972656 46.707031 Z M 50.8125 44.957031 C 50.582031 44.957031 50.335938 44.988281 50.082031 45.042969 C 48.503906 45.457031 47.613281 46.96875 47.671875 48.527344 C 47.671875 49.832031 47.925781 50.476562 48.554688 51.160156 C 49.84375 52.21875 51.011719 52.304688 52.59375 51.734375 C 52.859375 51.621094 53.152344 51.492188 53.152344 51.492188 L 53.152344 50.433594 L 52.59375 50.722656 C 51.316406 51.277344 50.355469 51.277344 49.589844 50.625 C 49.097656 50.125 48.882812 49.535156 48.785156 48.84375 L 53.542969 48.84375 L 53.542969 47.9375 C 53.542969 46.097656 52.429688 44.929688 50.808594 44.957031 Z M 48.886719 47.90625 C 48.886719 47.90625 49.0625 46.753906 49.714844 46.292969 C 50.027344 46.070312 50.390625 45.964844 50.742188 45.964844 C 51.09375 45.964844 51.449219 46.078125 51.742188 46.300781 C 52.339844 46.761719 52.441406 47.898438 52.441406 47.898438 L 48.886719 47.898438 Z M 27.214844 46.722656 C 25.933594 45.949219 25.367188 45.386719 25.433594 44.726562 C 25.632812 42.898438 27.890625 43.152344 29.140625 43.84375 L 29.148438 42.613281 C 29.148438 42.613281 28.457031 42.316406 27.46875 42.300781 C 25.949219 42.277344 24.964844 42.777344 24.503906 43.792969 C 23.832031 45.289062 24.4375 46.417969 26.59375 47.675781 C 27.808594 48.382812 28.34375 48.988281 28.34375 49.65625 C 28.34375 51.039062 26.679688 51.527344 24.957031 50.652344 C 24.605469 50.476562 24.308594 50.332031 24.289062 50.332031 C 24.226562 50.722656 24.261719 51.660156 24.261719 51.660156 C 24.261719 51.660156 24.78125 51.875 25.570312 52.035156 C 27.539062 52.429688 29.328125 51.507812 29.496094 50.011719 C 29.640625 48.613281 29.132812 47.875 27.214844 46.726562 Z M 57.761719 45.019531 C 57.078125 45.019531 56.546875 45.296875 56.203125 45.839844 L 55.925781 46.269531 L 55.925781 45.152344 L 54.742188 45.152344 L 54.742188 51.875 L 55.925781 51.875 L 55.925781 49.726562 C 55.925781 47.761719 55.949219 47.527344 56.222656 46.992188 C 56.601562 46.253906 57.253906 45.886719 57.882812 46.0625 L 58.304688 46.1875 L 58.304688 45.019531 Z M 17.8125 46.683594 L 17.8125 42.402344 L 16.621094 42.402344 L 16.621094 51.890625 L 21.632812 51.890625 L 21.632812 50.769531 L 17.8125 50.769531 Z M 45.378906 48.019531 L 44.394531 50.578125 L 43.449219 48.007812 L 42.492188 45.15625 L 41.269531 45.15625 C 42.0625 47.398438 42.921875 49.679688 43.789062 51.890625 C 44.164062 51.898438 44.542969 51.890625 44.917969 51.890625 L 46.246094 48.558594 L 47.59375 45.160156 L 46.429688 45.160156 C 46.429688 45.160156 45.914062 46.507812 45.378906 48.019531 Z M 20.558594 39.816406 C 20.75 39.816406 20.910156 39.753906 21.042969 39.621094 C 21.175781 39.492188 21.242188 39.339844 21.242188 39.148438 C 21.242188 38.953125 21.175781 38.792969 21.042969 38.671875 C 20.910156 38.546875 20.757812 38.484375 20.570312 38.484375 C 20.375 38.484375 20.214844 38.546875 20.085938 38.679688 C 19.953125 38.808594 19.890625 38.96875 19.890625 39.152344 C 19.890625 39.347656 19.953125 39.507812 20.085938 39.628906 C 20.207031 39.753906 20.367188 39.8125 20.558594 39.8125 Z M 20.136719 38.722656 C 20.25 38.609375 20.390625 38.558594 20.570312 38.558594 C 20.734375 38.558594 20.875 38.609375 20.992188 38.722656 C 21.105469 38.839844 21.167969 38.976562 21.167969 39.148438 C 21.167969 39.316406 21.105469 39.460938 20.992188 39.574219 C 20.875 39.691406 20.734375 39.746094 20.570312 39.746094 C 20.398438 39.746094 20.261719 39.691406 20.144531 39.574219 C 20.03125 39.460938 19.96875 39.316406 19.96875 39.148438 C 19.96875 38.976562 20.023438 38.839844 20.136719 38.722656 Z M 20.421875 39.207031 L 20.5 39.207031 C 20.554688 39.207031 20.605469 39.261719 20.652344 39.363281 L 20.746094 39.570312 L 20.890625 39.570312 L 20.777344 39.339844 C 20.730469 39.246094 20.683594 39.191406 20.628906 39.175781 C 20.699219 39.160156 20.75 39.136719 20.789062 39.09375 C 20.828125 39.054688 20.84375 39 20.84375 38.9375 C 20.84375 38.867188 20.820312 38.816406 20.773438 38.777344 C 20.722656 38.734375 20.636719 38.710938 20.527344 38.710938 L 20.285156 38.710938 L 20.285156 39.570312 L 20.40625 39.570312 L 20.40625 39.207031 Z M 20.421875 38.808594 L 20.527344 38.808594 C 20.605469 38.808594 20.660156 38.824219 20.691406 38.847656 C 20.71875 38.871094 20.726562 38.898438 20.726562 38.953125 C 20.726562 39.054688 20.667969 39.101562 20.550781 39.101562 L 20.417969 39.101562 L 20.417969 38.808594 Z M 0.730469 39.132812 C 0.730469 38.832031 0.722656 38.609375 0.714844 38.476562 L 0.722656 38.476562 C 0.753906 38.632812 0.792969 38.75 0.824219 38.824219 L 1.96875 41.382812 L 2.160156 41.382812 L 3.304688 38.800781 C 3.335938 38.730469 3.363281 38.625 3.402344 38.480469 L 3.410156 38.480469 C 3.390625 38.734375 3.382812 38.957031 3.382812 39.132812 L 3.382812 41.390625 L 3.773438 41.390625 L 3.773438 38.035156 L 3.28125 38.035156 L 2.230469 40.367188 C 2.191406 40.460938 2.136719 40.597656 2.066406 40.78125 L 2.050781 40.78125 C 2.03125 40.691406 1.976562 40.554688 1.898438 40.382812 L 0.871094 38.027344 L 0.347656 38.027344 L 0.347656 41.382812 L 0.726562 41.382812 L 0.726562 39.132812 Z M 4.632812 39.136719 L 4.96875 39.136719 L 4.96875 41.226562 L 4.632812 41.226562 Z M 4.800781 38.371094 C 4.871094 38.371094 4.929688 38.347656 4.976562 38.300781 C 5.023438 38.253906 5.054688 38.195312 5.054688 38.125 C 5.054688 38.058594 5.03125 37.996094 4.976562 37.949219 C 4.929688 37.902344 4.867188 37.878906 4.800781 37.878906 C 4.730469 37.878906 4.667969 37.902344 4.625 37.949219 C 4.578125 37.996094 4.546875 38.058594 4.546875 38.125 C 4.546875 38.203125 4.570312 38.253906 4.625 38.300781 C 4.675781 38.347656 4.730469 38.371094 4.800781 38.371094 Z M 7.378906 41.273438 L 7.378906 40.90625 C 7.195312 41.042969 6.996094 41.113281 6.789062 41.113281 C 6.542969 41.113281 6.34375 41.027344 6.195312 40.863281 C 6.050781 40.703125 5.972656 40.480469 5.972656 40.203125 C 5.972656 39.914062 6.050781 39.683594 6.210938 39.507812 C 6.367188 39.339844 6.566406 39.253906 6.8125 39.253906 C 7.011719 39.253906 7.203125 39.316406 7.378906 39.4375 L 7.378906 39.046875 C 7.21875 38.960938 7.035156 38.925781 6.828125 38.925781 C 6.441406 38.925781 6.144531 39.046875 5.921875 39.285156 C 5.699219 39.523438 5.582031 39.847656 5.582031 40.234375 C 5.582031 40.582031 5.683594 40.875 5.890625 41.097656 C 6.105469 41.324219 6.382812 41.441406 6.71875 41.441406 C 6.980469 41.433594 7.195312 41.378906 7.378906 41.273438 Z M 8.347656 40.160156 C 8.347656 39.882812 8.410156 39.660156 8.523438 39.507812 C 8.628906 39.371094 8.761719 39.300781 8.914062 39.300781 C 9.046875 39.300781 9.136719 39.324219 9.207031 39.378906 L 9.207031 38.976562 C 9.152344 38.953125 9.074219 38.945312 8.976562 38.945312 C 8.839844 38.945312 8.714844 38.992188 8.605469 39.078125 C 8.492188 39.167969 8.402344 39.308594 8.347656 39.484375 L 8.339844 39.484375 L 8.339844 38.992188 L 7.957031 38.992188 L 7.957031 41.386719 L 8.339844 41.386719 L 8.339844 40.160156 Z M 10.550781 41.433594 C 10.910156 41.433594 11.203125 41.320312 11.417969 41.089844 C 11.632812 40.859375 11.738281 40.550781 11.738281 40.167969 C 11.738281 39.777344 11.640625 39.476562 11.441406 39.253906 C 11.242188 39.03125 10.964844 38.921875 10.605469 38.921875 C 10.242188 38.921875 9.953125 39.03125 9.738281 39.238281 C 9.507812 39.46875 9.382812 39.789062 9.382812 40.207031 C 9.382812 40.566406 9.484375 40.867188 9.691406 41.089844 C 9.90625 41.320312 10.191406 41.433594 10.550781 41.433594 Z M 10.003906 39.484375 C 10.152344 39.332031 10.34375 39.253906 10.582031 39.253906 C 10.828125 39.253906 11.011719 39.332031 11.148438 39.484375 C 11.289062 39.644531 11.355469 39.875 11.355469 40.183594 C 11.355469 40.476562 11.292969 40.703125 11.164062 40.859375 C 11.035156 41.019531 10.84375 41.105469 10.589844 41.105469 C 10.339844 41.105469 10.152344 41.019531 10.003906 40.859375 C 9.859375 40.695312 9.789062 40.476562 9.789062 40.183594 C 9.773438 39.890625 9.851562 39.65625 10.003906 39.484375 Z M 13.421875 41.226562 C 13.566406 41.097656 13.644531 40.9375 13.644531 40.734375 C 13.644531 40.558594 13.582031 40.414062 13.46875 40.296875 C 13.375 40.207031 13.230469 40.121094 13.023438 40.039062 C 12.835938 39.960938 12.722656 39.890625 12.660156 39.835938 C 12.597656 39.777344 12.5625 39.699219 12.5625 39.589844 C 12.5625 39.492188 12.601562 39.414062 12.675781 39.351562 C 12.753906 39.292969 12.851562 39.261719 12.984375 39.261719 C 13.191406 39.261719 13.367188 39.316406 13.53125 39.433594 L 13.53125 39.046875 C 13.375 38.96875 13.207031 38.933594 13.015625 38.933594 C 12.769531 38.933594 12.558594 39 12.40625 39.132812 C 12.246094 39.261719 12.167969 39.433594 12.167969 39.628906 C 12.167969 39.808594 12.222656 39.953125 12.324219 40.058594 C 12.40625 40.152344 12.550781 40.246094 12.753906 40.328125 C 12.945312 40.414062 13.074219 40.488281 13.144531 40.550781 C 13.210938 40.613281 13.242188 40.691406 13.242188 40.78125 C 13.242188 41.003906 13.089844 41.121094 12.789062 41.121094 C 12.558594 41.121094 12.351562 41.042969 12.167969 40.890625 L 12.167969 41.304688 C 12.335938 41.40625 12.535156 41.449219 12.757812 41.449219 C 13.042969 41.433594 13.265625 41.367188 13.417969 41.226562 Z M 15.246094 38.925781 C 14.886719 38.925781 14.597656 39.03125 14.378906 39.238281 C 14.152344 39.46875 14.027344 39.792969 14.027344 40.207031 C 14.027344 40.566406 14.128906 40.867188 14.335938 41.089844 C 14.550781 41.320312 14.835938 41.433594 15.195312 41.433594 C 15.566406 41.433594 15.847656 41.320312 16.0625 41.085938 C 16.277344 40.859375 16.386719 40.550781 16.386719 40.167969 C 16.386719 39.773438 16.285156 39.476562 16.085938 39.253906 C 15.878906 39.03125 15.601562 38.921875 15.25 38.921875 Z M 15.992188 40.183594 C 15.992188 40.476562 15.929688 40.703125 15.800781 40.859375 C 15.671875 41.019531 15.476562 41.105469 15.226562 41.105469 C 14.976562 41.105469 14.789062 41.019531 14.640625 40.859375 C 14.496094 40.695312 14.425781 40.476562 14.425781 40.183594 C 14.425781 39.875 14.503906 39.636719 14.65625 39.476562 C 14.800781 39.324219 14.996094 39.246094 15.234375 39.246094 C 15.46875 39.246094 15.660156 39.324219 15.800781 39.476562 C 15.921875 39.644531 15.992188 39.875 15.992188 40.183594 Z M 17.03125 41.382812 L 17.414062 41.382812 L 17.414062 39.308594 L 17.972656 39.308594 L 17.972656 38.984375 L 17.414062 38.984375 L 17.414062 38.617188 C 17.414062 38.28125 17.542969 38.109375 17.8125 38.109375 C 17.902344 38.109375 17.996094 38.132812 18.0625 38.171875 L 18.0625 37.828125 C 17.996094 37.796875 17.902344 37.789062 17.789062 37.789062 C 17.582031 37.789062 17.410156 37.851562 17.273438 37.980469 C 17.113281 38.132812 17.027344 38.332031 17.027344 38.601562 L 17.027344 38.996094 L 16.621094 38.996094 L 16.621094 39.316406 L 17.027344 39.316406 L 17.027344 41.382812 Z M 18.601562 40.726562 C 18.601562 41.195312 18.808594 41.433594 19.230469 41.433594 C 19.386719 41.433594 19.5 41.410156 19.59375 41.355469 L 19.59375 41.027344 C 19.523438 41.078125 19.4375 41.105469 19.347656 41.105469 C 19.214844 41.105469 19.125 41.074219 19.070312 41.003906 C 19.015625 40.933594 18.984375 40.816406 18.984375 40.65625 L 18.984375 39.308594 L 19.59375 39.308594 L 19.59375 38.984375 L 18.984375 38.984375 L 18.984375 38.277344 C 18.855469 38.324219 18.722656 38.363281 18.601562 38.402344 L 18.601562 38.984375 L 18.1875 38.984375 L 18.1875 39.308594 L 18.601562 39.308594 Z M 59.800781 45.140625 C 59.671875 45.019531 59.519531 44.957031 59.328125 44.957031 C 59.132812 44.957031 58.972656 45.019531 58.84375 45.152344 C 58.710938 45.28125 58.652344 45.441406 58.652344 45.625 C 58.652344 45.816406 58.710938 45.976562 58.839844 46.101562 C 58.972656 46.222656 59.132812 46.285156 59.324219 46.285156 C 59.515625 46.285156 59.679688 46.222656 59.808594 46.09375 C 59.941406 45.960938 60.007812 45.808594 60.007812 45.617188 C 60 45.425781 59.929688 45.265625 59.800781 45.140625 Z M 59.742188 46.046875 C 59.625 46.164062 59.488281 46.214844 59.316406 46.214844 C 59.152344 46.214844 59.011719 46.164062 58.894531 46.046875 C 58.78125 45.933594 58.71875 45.785156 58.71875 45.617188 C 58.71875 45.449219 58.773438 45.3125 58.886719 45.195312 C 59.003906 45.082031 59.140625 45.027344 59.316406 45.027344 C 59.484375 45.027344 59.625 45.082031 59.742188 45.195312 C 59.855469 45.3125 59.917969 45.449219 59.917969 45.617188 C 59.917969 45.792969 59.863281 45.933594 59.742188 46.046875 Z M 59.394531 45.65625 C 59.464844 45.640625 59.519531 45.609375 59.554688 45.570312 C 59.59375 45.53125 59.609375 45.480469 59.609375 45.417969 C 59.609375 45.347656 59.585938 45.292969 59.539062 45.257812 C 59.488281 45.210938 59.402344 45.1875 59.292969 45.1875 L 59.050781 45.1875 L 59.050781 46.046875 L 59.171875 46.046875 L 59.171875 45.6875 L 59.25 45.6875 C 59.300781 45.6875 59.355469 45.738281 59.402344 45.839844 L 59.496094 46.046875 L 59.640625 46.046875 L 59.527344 45.816406 C 59.488281 45.714844 59.441406 45.667969 59.394531 45.65625 Z M 59.3125 45.578125 L 59.179688 45.578125 L 59.179688 45.289062 L 59.289062 45.289062 C 59.363281 45.289062 59.417969 45.304688 59.449219 45.328125 C 59.480469 45.347656 59.484375 45.378906 59.484375 45.433594 C 59.484375 45.535156 59.425781 45.578125 59.308594 45.578125 Z M 37.894531 38.886719 L 38 38.886719 L 38 38.027344 L 38.285156 38.027344 L 38.285156 37.917969 L 37.609375 37.917969 L 37.609375 38.027344 L 37.894531 38.027344 Z M 38.546875 38.238281 C 38.546875 38.15625 38.546875 38.085938 38.539062 38.050781 C 38.546875 38.09375 38.5625 38.125 38.570312 38.148438 L 38.898438 38.886719 L 38.953125 38.886719 L 39.28125 38.140625 C 39.292969 38.117188 39.296875 38.089844 39.3125 38.050781 C 39.304688 38.125 39.304688 38.1875 39.304688 38.234375 L 39.304688 38.886719 L 39.421875 38.886719 L 39.421875 37.917969 L 39.28125 37.917969 L 38.984375 38.585938 C 38.976562 38.609375 38.953125 38.65625 38.9375 38.710938 L 38.929688 38.710938 C 38.921875 38.679688 38.90625 38.648438 38.882812 38.59375 L 38.585938 37.917969 L 38.429688 37.917969 L 38.429688 38.886719 L 38.539062 38.886719 L 38.539062 38.242188 Z M 38.546875 38.238281 "/>
</g>
</svg>
