<?xml version="1.0" encoding="UTF-8"?>
<svg xmlns="http://www.w3.org/2000/svg" xmlns:xlink="http://www.w3.org/1999/xlink" width="40px" height="40px" viewBox="0 0 40 40" version="1.1">
<defs>
<linearGradient id="linear0" gradientUnits="userSpaceOnUse" x1="-2901.952" y1="923.573" x2="-2061.249" y2="1420.331" gradientTransform="matrix(0.00190026,0,0,-0.00190026,23.235204,25.46442)">
<stop offset="0" style="stop-color:rgb(56.470588%,61.176471%,66.27451%);stop-opacity:1;"/>
<stop offset="1" style="stop-color:rgb(92.941176%,92.941176%,93.333333%);stop-opacity:1;"/>
</linearGradient>
<linearGradient id="linear1" gradientUnits="userSpaceOnUse" x1="-2882.7" y1="10288.81" x2="-2206.249" y2="10288.81" gradientTransform="matrix(0.00190026,0,0,-0.00190026,23.235204,25.46442)">
<stop offset="0" style="stop-color:rgb(57.647059%,62.352941%,67.058824%);stop-opacity:1;"/>
<stop offset="1" style="stop-color:rgb(86.27451%,87.058824%,88.235294%);stop-opacity:1;"/>
</linearGradient>
<radialGradient id="radial0" gradientUnits="userSpaceOnUse" cx="-14217.448" cy="7277.705" fx="-14217.448" fy="7277.705" r="898.12" gradientTransform="matrix(-0.0018248,-0.000274106,-0.000554371,0.00364961,2.334117,-18.649449)">
<stop offset="0" style="stop-color:rgb(93.333333%,20.784314%,17.254902%);stop-opacity:1;"/>
<stop offset="1" style="stop-color:rgb(66.27451%,11.372549%,13.333333%);stop-opacity:1;"/>
</radialGradient>
</defs>
<g id="surface1">
<path style=" stroke:none;fill-rule:nonzero;fill:url(#linear0);" d="M 27.121094 14.128906 L 22.703125 15.570312 L 18.859375 17.269531 L 17.785156 17.550781 C 17.511719 17.8125 17.226562 18.078125 16.914062 18.34375 C 16.574219 18.636719 16.257812 18.90625 16.011719 19.097656 C 15.742188 19.3125 15.339844 19.714844 15.136719 19.964844 C 14.832031 20.347656 14.59375 20.75 14.488281 21.0625 C 14.304688 21.625 14.394531 22.191406 14.75 22.714844 C 15.203125 23.382812 16.109375 24.0625 17.164062 24.527344 C 17.703125 24.765625 18.605469 25.070312 19.289062 25.238281 C 20.421875 25.527344 22.609375 25.835938 23.816406 25.882812 C 24.058594 25.894531 24.386719 25.894531 24.402344 25.882812 C 24.425781 25.867188 24.613281 25.511719 24.832031 25.066406 C 25.574219 23.554688 26.105469 22.132812 26.398438 20.921875 C 26.570312 20.1875 26.707031 19.207031 26.796875 18.050781 C 26.820312 17.726562 26.832031 16.640625 26.8125 16.273438 C 26.78125 15.671875 26.726562 15.183594 26.644531 14.707031 C 26.632812 14.636719 26.628906 14.574219 26.636719 14.570312 C 26.648438 14.558594 26.6875 14.546875 27.234375 14.390625 Z M 26.113281 14.71875 C 26.152344 14.71875 26.261719 15.746094 26.289062 16.394531 C 26.292969 16.53125 26.292969 16.621094 26.285156 16.621094 C 26.257812 16.621094 25.71875 16.304688 25.335938 16.0625 C 25.003906 15.851562 24.367188 15.433594 24.265625 15.351562 C 24.234375 15.328125 24.238281 15.324219 24.511719 15.230469 C 24.976562 15.074219 26.078125 14.71875 26.113281 14.71875 Z M 23.863281 15.460938 C 23.894531 15.460938 23.96875 15.503906 24.152344 15.617188 C 24.839844 16.050781 25.777344 16.570312 26.175781 16.746094 C 26.300781 16.796875 26.3125 16.777344 26.03125 16.972656 C 25.421875 17.386719 24.664062 17.792969 23.738281 18.203125 C 23.574219 18.277344 23.4375 18.332031 23.433594 18.332031 C 23.425781 18.332031 23.445312 18.25 23.472656 18.148438 C 23.695312 17.320312 23.824219 16.476562 23.828125 15.800781 C 23.832031 15.46875 23.832031 15.46875 23.863281 15.457031 C 23.855469 15.460938 23.859375 15.460938 23.863281 15.460938 Z M 23.398438 15.640625 C 23.417969 15.660156 23.40625 16.40625 23.378906 16.609375 C 23.320312 17.097656 23.226562 17.550781 23.070312 18.0625 C 23.035156 18.1875 23 18.289062 22.996094 18.296875 C 22.980469 18.3125 22.523438 17.867188 22.375 17.691406 C 22.113281 17.390625 21.910156 17.089844 21.757812 16.796875 C 21.683594 16.648438 21.5625 16.351562 21.574219 16.34375 C 21.625 16.308594 23.386719 15.625 23.398438 15.640625 Z M 21.214844 16.496094 C 21.21875 16.496094 21.222656 16.496094 21.226562 16.5 C 21.230469 16.507812 21.253906 16.558594 21.273438 16.621094 C 21.382812 16.910156 21.621094 17.339844 21.828125 17.613281 C 22.058594 17.914062 22.355469 18.234375 22.601562 18.445312 C 22.679688 18.511719 22.753906 18.574219 22.765625 18.585938 C 22.785156 18.605469 22.792969 18.601562 22.246094 18.808594 C 21.617188 19.046875 20.929688 19.289062 20.140625 19.542969 C 19.953125 19.601562 19.761719 19.664062 19.574219 19.726562 C 19.546875 19.734375 19.554688 19.71875 19.640625 19.582031 C 20.03125 18.972656 20.628906 17.773438 20.960938 16.925781 C 21.019531 16.777344 21.074219 16.628906 21.085938 16.597656 C 21.097656 16.550781 21.113281 16.535156 21.160156 16.511719 C 21.183594 16.503906 21.207031 16.496094 21.214844 16.496094 Z M 20.546875 16.773438 C 20.558594 16.78125 20.386719 17.136719 20.21875 17.464844 C 19.894531 18.097656 19.542969 18.71875 19.066406 19.472656 C 18.988281 19.601562 18.910156 19.722656 18.902344 19.734375 C 18.882812 19.757812 18.878906 19.753906 18.824219 19.648438 C 18.710938 19.425781 18.617188 19.136719 18.566406 18.875 C 18.515625 18.613281 18.527344 18.160156 18.582031 17.878906 C 18.628906 17.671875 18.625 17.675781 18.722656 17.625 C 19.152344 17.410156 20.535156 16.761719 20.546875 16.773438 Z M 26.308594 17.007812 L 26.308594 17.148438 C 26.308594 17.894531 26.226562 18.914062 26.109375 19.660156 C 26.089844 19.789062 26.074219 19.898438 26.070312 19.898438 C 26.070312 19.898438 25.972656 19.875 25.859375 19.839844 C 25.359375 19.683594 24.816406 19.453125 24.324219 19.183594 C 24 19.003906 23.53125 18.714844 23.542969 18.699219 C 23.546875 18.699219 23.6875 18.625 23.851562 18.539062 C 24.503906 18.195312 25.132812 17.828125 25.675781 17.464844 C 25.878906 17.328125 26.1875 17.109375 26.253906 17.046875 Z M 18.027344 17.996094 C 18.039062 17.996094 18.035156 18.023438 18.015625 18.144531 C 18.003906 18.230469 17.984375 18.390625 17.980469 18.5 C 17.953125 18.988281 18.03125 19.347656 18.273438 19.84375 C 18.339844 19.980469 18.394531 20.09375 18.390625 20.097656 C 18.367188 20.117188 16.15625 20.765625 15.460938 20.957031 C 15.253906 21.011719 15.074219 21.0625 15.0625 21.066406 C 15.039062 21.070312 15.035156 21.070312 15.042969 21.011719 C 15.121094 20.519531 15.496094 19.878906 16.015625 19.339844 C 16.363281 18.976562 16.640625 18.769531 17.113281 18.496094 C 17.453125 18.304688 17.980469 18.011719 18.019531 18 C 18.019531 17.996094 18.023438 17.996094 18.027344 17.996094 Z M 23.234375 18.929688 C 23.238281 18.925781 23.320312 18.96875 23.414062 19.023438 C 24.128906 19.4375 25.125 19.824219 25.972656 20.019531 L 26.050781 20.035156 L 25.945312 20.097656 C 25.5 20.34375 24.039062 20.953125 22.546875 21.507812 C 22.332031 21.589844 22.117188 21.667969 22.078125 21.6875 C 22.035156 21.703125 22 21.714844 22 21.710938 C 22 21.707031 22.058594 21.589844 22.136719 21.445312 C 22.554688 20.664062 22.976562 19.714844 23.1875 19.050781 C 23.214844 18.988281 23.230469 18.929688 23.234375 18.929688 Z M 22.703125 19.101562 C 22.707031 19.105469 22.679688 19.175781 22.648438 19.253906 C 22.355469 19.960938 21.976562 20.726562 21.488281 21.589844 C 21.367188 21.808594 21.261719 21.988281 21.257812 21.988281 C 21.253906 21.988281 21.15625 21.925781 21.035156 21.851562 C 20.328125 21.417969 19.699219 20.886719 19.289062 20.367188 L 19.226562 20.292969 L 19.53125 20.210938 C 20.621094 19.914062 21.546875 19.59375 22.464844 19.199219 C 22.59375 19.144531 22.703125 19.101562 22.703125 19.101562 Z M 26.003906 20.253906 C 26.003906 20.253906 26.007812 20.257812 26.003906 20.253906 C 26.007812 20.332031 25.835938 21.019531 25.695312 21.515625 C 25.578125 21.933594 25.480469 22.261719 25.296875 22.839844 C 25.214844 23.09375 25.144531 23.300781 25.140625 23.300781 C 25.140625 23.300781 25.117188 23.300781 25.097656 23.292969 C 24.105469 23.113281 23.21875 22.863281 22.382812 22.527344 C 22.148438 22.433594 21.816406 22.285156 21.796875 22.265625 C 21.789062 22.261719 21.988281 22.167969 22.242188 22.058594 C 23.761719 21.394531 25.339844 20.636719 25.878906 20.3125 C 25.945312 20.273438 25.992188 20.253906 26.003906 20.253906 Z M 18.386719 20.515625 C 18.394531 20.519531 17.96875 21.132812 17.375 21.964844 C 17.167969 22.253906 16.925781 22.59375 16.835938 22.722656 C 16.746094 22.847656 16.609375 23.050781 16.535156 23.167969 L 16.394531 23.386719 L 16.242188 23.257812 C 16.066406 23.113281 15.757812 22.796875 15.621094 22.625 C 15.335938 22.269531 15.140625 21.890625 15.0625 21.546875 C 15.027344 21.386719 15.027344 21.304688 15.0625 21.296875 C 15.109375 21.28125 16.003906 21.070312 16.835938 20.878906 C 17.300781 20.773438 17.839844 20.644531 18.03125 20.597656 C 18.226562 20.550781 18.382812 20.515625 18.386719 20.515625 Z M 18.8125 20.679688 L 18.921875 20.796875 C 19.402344 21.335938 19.894531 21.734375 20.488281 22.082031 C 20.59375 22.140625 20.675781 22.195312 20.667969 22.199219 C 20.644531 22.214844 18.605469 22.9375 17.660156 23.265625 C 17.128906 23.453125 16.691406 23.601562 16.6875 23.601562 C 16.683594 23.601562 16.652344 23.582031 16.621094 23.558594 L 16.558594 23.515625 L 16.65625 23.375 C 16.972656 22.921875 17.363281 22.425781 18.222656 21.390625 Z M 21.480469 22.585938 C 21.480469 22.582031 21.628906 22.636719 21.808594 22.703125 C 22.242188 22.867188 22.585938 22.96875 23.046875 23.085938 C 23.617188 23.230469 24.4375 23.371094 24.921875 23.410156 C 24.996094 23.417969 25.035156 23.421875 25.023438 23.433594 C 25 23.445312 24.507812 23.609375 24.148438 23.722656 C 23.574219 23.902344 21.820312 24.421875 20.390625 24.832031 C 20.125 24.910156 19.898438 24.972656 19.886719 24.976562 C 19.851562 24.984375 19.742188 24.953125 19.742188 24.9375 C 19.742188 24.933594 19.824219 24.828125 19.917969 24.714844 C 20.398438 24.140625 20.878906 23.5 21.273438 22.890625 C 21.386719 22.726562 21.480469 22.589844 21.480469 22.585938 Z M 20.890625 22.601562 C 20.894531 22.605469 20.65625 22.984375 20.242188 23.640625 C 20.066406 23.917969 19.871094 24.230469 19.800781 24.339844 C 19.734375 24.449219 19.632812 24.613281 19.574219 24.707031 L 19.480469 24.878906 L 19.429688 24.867188 C 19.308594 24.832031 18.464844 24.535156 18.238281 24.445312 C 17.960938 24.335938 17.675781 24.199219 17.460938 24.085938 C 17.195312 23.945312 16.859375 23.730469 16.886719 23.722656 C 16.894531 23.71875 17.351562 23.597656 17.902344 23.445312 C 19.363281 23.050781 20.175781 22.820312 20.707031 22.652344 C 20.804688 22.621094 20.886719 22.597656 20.890625 22.601562 Z M 25.046875 23.578125 L 25.050781 23.578125 C 25.066406 23.609375 24.523438 25.113281 24.328125 25.585938 C 24.285156 25.695312 24.265625 25.71875 24.242188 25.71875 C 24.1875 25.714844 23.402344 25.605469 22.925781 25.535156 C 22.09375 25.40625 20.699219 25.164062 20.347656 25.082031 L 20.265625 25.066406 L 20.765625 24.953125 C 21.832031 24.710938 22.347656 24.582031 22.867188 24.421875 C 23.527344 24.222656 24.175781 23.96875 24.835938 23.664062 C 24.9375 23.617188 25.027344 23.578125 25.046875 23.578125 Z M 25.046875 23.578125 "/>
<path style=" stroke:none;fill-rule:nonzero;fill:url(#linear1);" d="M 22.566406 3.832031 C 22.496094 3.820312 21.308594 4.25 20.542969 4.558594 C 19.511719 4.980469 18.710938 5.378906 18.214844 5.726562 C 18.03125 5.859375 17.800781 6.089844 17.765625 6.179688 C 17.753906 6.210938 17.746094 6.25 17.746094 6.292969 L 18.191406 6.714844 L 19.257812 7.054688 L 21.792969 7.511719 L 24.691406 8.007812 L 24.722656 7.757812 C 24.710938 7.757812 24.703125 7.753906 24.695312 7.753906 L 24.3125 7.695312 L 24.238281 7.558594 C 23.84375 6.863281 23.410156 6 23.15625 5.421875 C 22.957031 4.96875 22.769531 4.449219 22.667969 4.074219 C 22.609375 3.847656 22.605469 3.835938 22.566406 3.832031 Z M 22.515625 4 L 22.519531 4 C 22.519531 4.003906 22.535156 4.097656 22.546875 4.207031 C 22.605469 4.675781 22.707031 5.125 22.871094 5.613281 C 22.996094 5.980469 22.996094 5.960938 22.851562 5.917969 C 22.511719 5.824219 20.984375 5.5625 19.878906 5.40625 C 19.703125 5.382812 19.550781 5.359375 19.550781 5.355469 C 19.539062 5.34375 20.351562 4.917969 20.707031 4.753906 C 21.164062 4.542969 22.421875 4.019531 22.515625 4 Z M 19.296875 5.496094 L 19.425781 5.539062 C 20.132812 5.78125 21.914062 6.121094 22.894531 6.203125 C 23.003906 6.210938 23.097656 6.222656 23.101562 6.222656 C 23.105469 6.226562 23.011719 6.273438 22.890625 6.332031 C 22.417969 6.570312 21.894531 6.859375 21.535156 7.082031 C 21.429688 7.148438 21.332031 7.203125 21.320312 7.203125 C 21.304688 7.203125 21.234375 7.191406 21.160156 7.179688 L 21.027344 7.160156 L 20.695312 6.832031 C 20.105469 6.261719 19.644531 5.820312 19.46875 5.652344 Z M 19.160156 5.601562 L 19.632812 6.1875 C 19.890625 6.511719 20.148438 6.828125 20.207031 6.898438 C 20.261719 6.96875 20.308594 7.027344 20.308594 7.03125 C 20.292969 7.039062 19.625 6.910156 19.273438 6.828125 C 18.90625 6.746094 18.757812 6.707031 18.535156 6.636719 L 18.351562 6.574219 L 18.351562 6.527344 C 18.351562 6.304688 18.636719 5.972656 19.117188 5.628906 Z M 23.160156 6.402344 C 23.175781 6.402344 23.191406 6.433594 23.230469 6.523438 C 23.347656 6.773438 23.699219 7.449219 23.785156 7.578125 C 23.8125 7.621094 23.859375 7.625 23.390625 7.546875 C 22.257812 7.363281 21.894531 7.304688 21.894531 7.296875 C 21.894531 7.292969 21.925781 7.269531 21.96875 7.246094 C 22.320312 7.054688 22.675781 6.804688 22.988281 6.542969 C 23.066406 6.480469 23.136719 6.417969 23.148438 6.410156 C 23.152344 6.402344 23.160156 6.398438 23.160156 6.402344 Z M 23.160156 6.402344 "/>
<path style=" stroke:none;fill-rule:nonzero;fill:url(#radial0);" d="M 17.789062 6.132812 C 17.789062 6.132812 17.714844 6.25 17.785156 6.421875 C 17.828125 6.527344 17.957031 6.660156 18.097656 6.792969 C 18.097656 6.792969 19.585938 8.242188 19.765625 8.449219 C 20.585938 9.398438 20.945312 10.332031 20.976562 11.621094 C 21 12.449219 20.839844 13.175781 20.449219 14.023438 C 19.757812 15.539062 18.289062 17.210938 16.027344 19.070312 L 16.359375 18.957031 C 16.574219 18.796875 16.863281 18.628906 17.546875 18.253906 C 19.117188 17.390625 20.886719 16.601562 23.058594 15.785156 C 26.183594 14.609375 31.324219 13.234375 34.25 12.785156 L 34.550781 12.742188 L 34.507812 12.667969 C 34.238281 12.253906 34.054688 11.996094 33.835938 11.722656 C 33.195312 10.925781 32.414062 10.28125 31.464844 9.75 C 30.15625 9.015625 28.460938 8.445312 26.316406 8.023438 C 25.914062 7.941406 25.027344 7.789062 24.304688 7.679688 C 22.773438 7.441406 21.785156 7.277344 20.699219 7.089844 C 20.308594 7.023438 19.722656 6.921875 19.335938 6.839844 C 19.132812 6.796875 18.75 6.707031 18.449219 6.601562 C 18.210938 6.507812 17.863281 6.414062 17.789062 6.132812 Z M 18.652344 6.964844 C 18.652344 6.964844 18.707031 6.984375 18.777344 7.007812 C 18.90625 7.050781 19.066406 7.101562 19.261719 7.152344 C 19.410156 7.195312 19.554688 7.234375 19.703125 7.269531 C 19.902344 7.320312 20.070312 7.367188 20.074219 7.367188 C 20.097656 7.390625 20.433594 8.46875 20.546875 8.882812 C 20.589844 9.039062 20.625 9.171875 20.621094 9.171875 C 20.617188 9.175781 20.582031 9.121094 20.539062 9.042969 C 20.148438 8.355469 19.527344 7.65625 18.8125 7.097656 C 18.722656 7.03125 18.652344 6.96875 18.652344 6.964844 Z M 20.292969 7.421875 C 20.308594 7.421875 20.382812 7.429688 20.472656 7.449219 C 21.042969 7.578125 22.058594 7.769531 22.710938 7.882812 C 22.820312 7.898438 22.910156 7.917969 22.910156 7.925781 C 22.910156 7.929688 22.867188 7.953125 22.816406 7.980469 C 22.707031 8.039062 22.265625 8.300781 22.117188 8.402344 C 21.746094 8.648438 21.414062 8.917969 21.171875 9.15625 C 21.074219 9.253906 20.992188 9.335938 20.992188 9.335938 C 20.992188 9.335938 20.972656 9.277344 20.953125 9.207031 C 20.835938 8.742188 20.585938 8.054688 20.355469 7.570312 C 20.320312 7.492188 20.289062 7.425781 20.289062 7.417969 C 20.289062 7.425781 20.289062 7.421875 20.292969 7.421875 Z M 23.183594 7.972656 C 23.207031 7.976562 23.238281 8.09375 23.304688 8.34375 C 23.429688 8.828125 23.484375 9.367188 23.464844 9.871094 C 23.460938 10.011719 23.453125 10.140625 23.445312 10.160156 L 23.4375 10.191406 L 23.261719 10.136719 C 22.90625 10.023438 22.324219 9.851562 21.828125 9.710938 C 21.542969 9.632812 21.3125 9.566406 21.3125 9.558594 C 21.3125 9.539062 21.726562 9.125 21.902344 8.964844 C 22.242188 8.667969 23.15625 7.960938 23.183594 7.972656 Z M 23.414062 8.003906 C 23.425781 7.996094 24.796875 8.230469 25.421875 8.351562 C 25.886719 8.441406 26.5625 8.582031 26.601562 8.597656 C 26.621094 8.605469 26.550781 8.644531 26.328125 8.746094 C 25.445312 9.144531 24.792969 9.5 24.140625 9.933594 C 23.96875 10.046875 23.828125 10.140625 23.824219 10.140625 C 23.820312 10.140625 23.816406 10.046875 23.816406 9.929688 C 23.816406 9.292969 23.691406 8.652344 23.457031 8.113281 C 23.433594 8.058594 23.414062 8.007812 23.414062 8.003906 Z M 26.964844 8.707031 C 26.976562 8.714844 26.933594 8.988281 26.890625 9.148438 C 26.773438 9.644531 26.449219 10.382812 26.050781 11.078125 C 25.980469 11.199219 25.917969 11.300781 25.910156 11.304688 C 25.902344 11.308594 25.8125 11.257812 25.710938 11.199219 C 25.324219 10.96875 24.882812 10.757812 24.402344 10.554688 C 24.265625 10.5 24.152344 10.453125 24.148438 10.445312 C 24.125 10.425781 25.199219 9.714844 25.765625 9.375 C 26.21875 9.101562 26.953125 8.691406 26.964844 8.707031 Z M 27.21875 8.746094 C 27.25 8.746094 27.855469 8.914062 28.175781 9.007812 C 28.960938 9.242188 29.859375 9.570312 30.449219 9.839844 L 30.691406 9.949219 L 30.523438 9.988281 C 29.085938 10.320312 27.855469 10.699219 26.671875 11.179688 C 26.574219 11.222656 26.488281 11.253906 26.480469 11.253906 C 26.476562 11.253906 26.507812 11.175781 26.550781 11.082031 C 26.910156 10.324219 27.140625 9.535156 27.195312 8.859375 C 27.199219 8.796875 27.210938 8.746094 27.21875 8.746094 Z M 21.167969 10.136719 C 21.179688 10.125 21.644531 10.234375 21.894531 10.304688 C 22.273438 10.414062 23.082031 10.683594 23.082031 10.703125 C 23.082031 10.707031 22.992188 10.785156 22.886719 10.875 C 22.449219 11.242188 22.027344 11.625 21.523438 12.113281 C 21.371094 12.257812 21.246094 12.371094 21.238281 12.371094 C 21.230469 12.371094 21.230469 12.351562 21.230469 12.324219 C 21.308594 11.765625 21.292969 11.042969 21.183594 10.3125 C 21.175781 10.21875 21.164062 10.140625 21.167969 10.136719 Z M 30.921875 10.144531 C 30.929688 10.152344 30.710938 10.5 30.570312 10.695312 C 30.367188 10.984375 30.074219 11.363281 29.410156 12.199219 C 29.058594 12.640625 28.664062 13.136719 28.535156 13.304688 C 28.402344 13.472656 28.292969 13.613281 28.289062 13.613281 C 28.285156 13.613281 28.242188 13.550781 28.195312 13.476562 C 27.820312 12.917969 27.371094 12.425781 26.84375 11.984375 C 26.742188 11.902344 26.632812 11.8125 26.59375 11.785156 C 26.558594 11.757812 26.527344 11.730469 26.527344 11.726562 C 26.527344 11.71875 27.097656 11.472656 27.527344 11.300781 C 28.28125 10.992188 29.308594 10.625 30.082031 10.390625 C 30.484375 10.261719 30.917969 10.140625 30.921875 10.144531 Z M 31.179688 10.210938 C 31.191406 10.210938 31.273438 10.25 31.371094 10.304688 C 32.183594 10.769531 32.976562 11.367188 33.605469 11.980469 C 33.78125 12.15625 34.21875 12.609375 34.210938 12.613281 C 34.210938 12.613281 34.058594 12.625 33.878906 12.640625 C 32.472656 12.746094 30.671875 13.042969 28.941406 13.460938 C 28.824219 13.488281 28.722656 13.511719 28.714844 13.511719 C 28.707031 13.511719 28.839844 13.382812 29.003906 13.222656 C 30.019531 12.246094 30.480469 11.628906 31.03125 10.527344 C 31.105469 10.363281 31.171875 10.222656 31.179688 10.210938 C 31.175781 10.210938 31.175781 10.210938 31.179688 10.210938 Z M 23.742188 10.972656 C 23.789062 10.984375 24.222656 11.1875 24.550781 11.351562 C 24.851562 11.5 25.300781 11.742188 25.324219 11.761719 C 25.328125 11.765625 25.167969 11.847656 24.972656 11.945312 C 24.34375 12.257812 23.804688 12.554688 23.246094 12.898438 C 23.085938 12.992188 22.953125 13.074219 22.949219 13.074219 C 22.933594 13.074219 22.9375 13.0625 23.027344 12.898438 C 23.328125 12.347656 23.570312 11.695312 23.707031 11.058594 C 23.71875 11.007812 23.734375 10.972656 23.742188 10.972656 Z M 23.308594 11.054688 C 23.320312 11.0625 23.207031 11.476562 23.136719 11.699219 C 23 12.121094 22.769531 12.652344 22.542969 13.054688 C 22.492188 13.148438 22.410156 13.285156 22.367188 13.363281 L 22.285156 13.496094 L 22.097656 13.316406 C 21.878906 13.105469 21.703125 12.972656 21.476562 12.855469 C 21.386719 12.808594 21.316406 12.769531 21.316406 12.761719 C 21.316406 12.738281 21.886719 12.21875 22.324219 11.84375 C 22.636719 11.574219 23.300781 11.042969 23.308594 11.054688 Z M 25.964844 12.144531 L 26.128906 12.253906 C 26.5 12.496094 26.941406 12.820312 27.28125 13.105469 C 27.46875 13.261719 27.835938 13.59375 27.910156 13.671875 L 27.949219 13.714844 L 27.679688 13.792969 C 26.152344 14.214844 24.96875 14.59375 23.589844 15.101562 C 23.4375 15.15625 23.304688 15.203125 23.296875 15.203125 C 23.277344 15.203125 23.257812 15.222656 23.601562 14.902344 C 24.484375 14.09375 25.265625 13.199219 25.847656 12.324219 Z M 25.265625 12.320312 C 25.273438 12.324219 24.816406 12.96875 24.542969 13.335938 C 24.214844 13.769531 23.632812 14.496094 23.230469 14.972656 C 23.066406 15.167969 22.921875 15.332031 22.914062 15.335938 C 22.90625 15.339844 22.902344 15.289062 22.902344 15.210938 C 22.902344 14.808594 22.796875 14.375 22.617188 14.007812 C 22.539062 13.855469 22.527344 13.820312 22.542969 13.800781 C 22.609375 13.746094 23.578125 13.191406 24.195312 12.859375 C 24.609375 12.640625 25.253906 12.3125 25.265625 12.320312 Z M 21.042969 13.355469 C 21.054688 13.355469 21.132812 13.394531 21.21875 13.441406 C 21.433594 13.558594 21.621094 13.6875 21.792969 13.828125 C 21.800781 13.835938 21.710938 13.90625 21.597656 13.988281 C 21.28125 14.214844 20.800781 14.582031 20.519531 14.804688 C 20.226562 15.039062 20.214844 15.042969 20.25 14.996094 C 20.46875 14.65625 20.582031 14.464844 20.699219 14.222656 C 20.800781 14.007812 20.90625 13.75 20.976562 13.523438 C 21.003906 13.429688 21.039062 13.355469 21.042969 13.355469 Z M 22.171875 14.234375 C 22.1875 14.234375 22.207031 14.261719 22.296875 14.398438 C 22.488281 14.679688 22.632812 15.0625 22.671875 15.367188 L 22.679688 15.433594 L 22.21875 15.613281 C 21.402344 15.929688 20.648438 16.242188 20.136719 16.476562 C 19.992188 16.542969 19.742188 16.664062 19.578125 16.746094 C 19.414062 16.828125 19.28125 16.890625 19.28125 16.886719 C 19.28125 16.882812 19.386719 16.808594 19.511719 16.714844 C 20.511719 15.988281 21.375 15.195312 22.023438 14.398438 C 22.09375 14.316406 22.15625 14.238281 22.164062 14.234375 Z M 21.652344 14.363281 C 21.667969 14.375 21.285156 14.808594 21.023438 15.070312 C 20.378906 15.730469 19.742188 16.242188 18.949219 16.746094 C 18.851562 16.808594 18.761719 16.863281 18.75 16.871094 C 18.726562 16.882812 18.757812 16.851562 19.105469 16.472656 C 19.324219 16.238281 19.492188 16.035156 19.683594 15.789062 C 19.808594 15.625 19.832031 15.601562 20.015625 15.472656 C 20.507812 15.117188 21.640625 14.351562 21.652344 14.363281 Z M 21.652344 14.363281 "/>
<path style=" stroke:none;fill-rule:nonzero;fill:rgb(13.72549%,12.156863%,12.156863%);fill-opacity:1;" d="M 7.191406 28.191406 C 7.128906 28.191406 7.070312 28.195312 7.007812 28.195312 C 5.761719 28.261719 4.925781 28.808594 4.433594 29.878906 C 4.015625 30.847656 4.058594 32.109375 4.4375 33.085938 C 4.878906 34.035156 5.589844 34.535156 6.777344 34.726562 C 7.027344 34.765625 7.195312 34.90625 7.683594 35.472656 L 8.28125 36.175781 L 9.367188 36.175781 L 8.644531 35.445312 C 8.246094 35.046875 7.925781 34.699219 7.925781 34.667969 C 7.925781 34.640625 8.078125 34.574219 8.261719 34.515625 C 8.871094 34.332031 9.375 33.859375 9.730469 33.140625 C 10.015625 32.558594 10.058594 32.382812 10.097656 31.660156 C 10.207031 29.515625 9.074219 28.175781 7.191406 28.191406 Z M 8.144531 33.800781 C 7.617188 34.054688 6.847656 34.105469 6.347656 33.921875 C 5.832031 33.734375 5.328125 33.195312 5.105469 32.585938 C 4.851562 31.921875 4.890625 30.695312 5.175781 30.140625 C 5.636719 29.261719 6.246094 28.855469 7.136719 28.855469 C 8.457031 28.855469 9.207031 29.664062 9.304688 31.183594 C 9.382812 32.453125 8.957031 33.40625 8.144531 33.800781 Z M 26.898438 30.023438 C 26.445312 30.023438 26.09375 30.207031 25.859375 30.570312 L 25.675781 30.859375 L 25.675781 30.109375 L 24.886719 30.109375 L 24.886719 34.59375 L 25.675781 34.59375 L 25.675781 33.160156 C 25.675781 31.851562 25.691406 31.695312 25.875 31.339844 C 26.128906 30.847656 26.5625 30.601562 26.980469 30.71875 L 27.261719 30.800781 L 27.261719 30.023438 Z M 22.269531 29.980469 C 22.113281 29.980469 21.949219 30.003906 21.789062 30.039062 C 20.734375 30.3125 20.140625 31.324219 20.175781 32.363281 C 20.175781 33.230469 20.34375 33.667969 20.765625 34.121094 C 21.625 34.828125 22.402344 34.882812 23.449219 34.507812 C 23.628906 34.429688 23.824219 34.339844 23.824219 34.339844 L 23.824219 33.636719 L 23.449219 33.828125 C 22.601562 34.199219 21.960938 34.199219 21.449219 33.765625 C 21.121094 33.429688 20.980469 33.03125 20.914062 32.578125 L 24.089844 32.578125 L 24.089844 31.972656 C 24.089844 30.738281 23.347656 29.960938 22.269531 29.980469 Z M 20.984375 31.949219 C 20.984375 31.949219 21.101562 31.179688 21.535156 30.878906 C 21.746094 30.730469 21.988281 30.65625 22.222656 30.65625 C 22.457031 30.65625 22.695312 30.734375 22.886719 30.882812 C 23.285156 31.191406 23.355469 31.941406 23.355469 31.941406 L 20.984375 31.941406 Z M 1.980469 31.140625 C 1.128906 30.621094 0.75 30.25 0.796875 29.808594 C 0.925781 28.589844 2.433594 28.757812 3.265625 29.21875 L 3.273438 28.398438 C 3.273438 28.398438 2.8125 28.199219 2.152344 28.191406 C 1.136719 28.175781 0.484375 28.507812 0.175781 29.183594 C -0.273438 30.179688 0.125 30.933594 1.566406 31.773438 C 2.375 32.242188 2.734375 32.652344 2.734375 33.097656 C 2.734375 34.019531 1.625 34.339844 0.476562 33.761719 C 0.242188 33.644531 0.0429688 33.546875 0.03125 33.546875 C -0.0078125 33.808594 0.0117188 34.433594 0.0117188 34.433594 C 0.0117188 34.433594 0.363281 34.582031 0.890625 34.683594 C 2.203125 34.945312 3.394531 34.332031 3.507812 33.332031 C 3.605469 32.398438 3.265625 31.90625 1.980469 31.136719 Z M 33.875 29.972656 C 33.722656 29.972656 33.558594 29.992188 33.386719 30.027344 C 32.335938 30.304688 31.742188 31.3125 31.78125 32.351562 C 31.78125 33.222656 31.949219 33.652344 32.371094 34.105469 C 33.230469 34.8125 34.007812 34.871094 35.0625 34.492188 C 35.242188 34.414062 35.433594 34.328125 35.433594 34.328125 L 35.433594 33.621094 L 35.0625 33.816406 C 34.210938 34.183594 33.570312 34.183594 33.058594 33.75 C 32.730469 33.417969 32.589844 33.023438 32.523438 32.5625 L 35.695312 32.5625 L 35.695312 31.957031 C 35.695312 30.730469 34.953125 29.953125 33.875 29.972656 Z M 32.589844 31.9375 C 32.589844 31.9375 32.707031 31.167969 33.144531 30.863281 C 33.351562 30.714844 33.59375 30.640625 33.828125 30.640625 C 34.0625 30.640625 34.300781 30.71875 34.492188 30.867188 C 34.894531 31.175781 34.960938 31.933594 34.960938 31.933594 L 32.589844 31.933594 Z M 18.144531 31.148438 C 17.289062 30.632812 16.910156 30.257812 16.957031 29.816406 C 17.089844 28.597656 18.59375 28.769531 19.425781 29.230469 L 19.433594 28.410156 C 19.433594 28.410156 18.972656 28.210938 18.3125 28.199219 C 17.300781 28.1875 16.644531 28.519531 16.335938 29.195312 C 15.886719 30.191406 16.292969 30.945312 17.730469 31.785156 C 18.539062 32.253906 18.894531 32.65625 18.894531 33.105469 C 18.894531 34.027344 17.785156 34.351562 16.640625 33.769531 C 16.40625 33.652344 16.203125 33.554688 16.191406 33.554688 C 16.152344 33.816406 16.171875 34.441406 16.171875 34.441406 C 16.171875 34.441406 16.519531 34.582031 17.046875 34.691406 C 18.359375 34.953125 19.550781 34.339844 19.664062 33.339844 C 19.761719 32.410156 19.421875 31.917969 18.144531 31.148438 Z M 38.507812 30.011719 C 38.050781 30.011719 37.699219 30.195312 37.46875 30.558594 L 37.285156 30.847656 L 37.285156 30.101562 L 36.496094 30.101562 L 36.496094 34.582031 L 37.28125 34.582031 L 37.28125 33.148438 C 37.28125 31.839844 37.296875 31.6875 37.484375 31.328125 C 37.734375 30.835938 38.167969 30.589844 38.589844 30.707031 L 38.871094 30.792969 L 38.871094 30.011719 Z M 11.875 31.125 L 11.875 28.265625 L 11.082031 28.265625 L 11.082031 34.59375 L 14.421875 34.59375 L 14.421875 33.847656 L 11.875 33.847656 Z M 30.253906 32.011719 L 29.597656 33.71875 L 28.96875 32.003906 L 28.328125 30.105469 L 27.515625 30.105469 C 28.042969 31.597656 28.613281 33.121094 29.191406 34.59375 C 29.441406 34.597656 29.695312 34.59375 29.945312 34.59375 L 30.828125 32.371094 L 31.730469 30.105469 L 30.953125 30.105469 C 30.953125 30.105469 30.609375 31.007812 30.25 32.015625 Z M 13.707031 26.542969 C 13.835938 26.542969 13.941406 26.503906 14.027344 26.414062 C 14.117188 26.328125 14.160156 26.226562 14.160156 26.097656 C 14.160156 25.96875 14.117188 25.863281 14.027344 25.78125 C 13.941406 25.699219 13.839844 25.65625 13.710938 25.65625 C 13.582031 25.65625 13.476562 25.699219 13.390625 25.785156 C 13.300781 25.871094 13.261719 25.980469 13.261719 26.101562 C 13.261719 26.230469 13.300781 26.339844 13.390625 26.417969 C 13.472656 26.5 13.578125 26.542969 13.707031 26.542969 Z M 13.425781 25.816406 C 13.5 25.738281 13.59375 25.703125 13.710938 25.703125 C 13.824219 25.703125 13.917969 25.738281 13.992188 25.816406 C 14.070312 25.890625 14.113281 25.984375 14.113281 26.097656 C 14.113281 26.210938 14.070312 26.308594 13.992188 26.382812 C 13.917969 26.460938 13.824219 26.496094 13.710938 26.496094 C 13.597656 26.496094 13.507812 26.460938 13.429688 26.382812 C 13.355469 26.308594 13.3125 26.210938 13.3125 26.097656 C 13.3125 25.984375 13.347656 25.890625 13.425781 25.816406 Z M 13.613281 26.140625 L 13.664062 26.140625 C 13.703125 26.140625 13.738281 26.175781 13.769531 26.242188 L 13.832031 26.378906 L 13.925781 26.378906 L 13.851562 26.226562 C 13.820312 26.164062 13.789062 26.128906 13.753906 26.117188 C 13.796875 26.109375 13.835938 26.09375 13.859375 26.0625 C 13.886719 26.035156 13.894531 26 13.894531 25.960938 C 13.894531 25.914062 13.878906 25.878906 13.851562 25.851562 C 13.816406 25.820312 13.757812 25.804688 13.683594 25.804688 L 13.523438 25.804688 L 13.523438 26.378906 L 13.605469 26.378906 L 13.605469 26.140625 Z M 13.613281 25.871094 L 13.6875 25.871094 C 13.738281 25.871094 13.773438 25.882812 13.792969 25.898438 C 13.8125 25.914062 13.820312 25.933594 13.820312 25.96875 C 13.820312 26.035156 13.777344 26.066406 13.703125 26.066406 L 13.613281 26.066406 Z M 0.488281 26.085938 C 0.488281 25.886719 0.480469 25.738281 0.476562 25.652344 L 0.480469 25.652344 C 0.503906 25.753906 0.527344 25.832031 0.546875 25.882812 L 1.3125 27.585938 L 1.4375 27.585938 L 2.203125 25.867188 C 2.222656 25.820312 2.242188 25.75 2.269531 25.652344 L 2.273438 25.652344 C 2.257812 25.824219 2.253906 25.972656 2.253906 26.089844 L 2.253906 27.59375 L 2.515625 27.59375 L 2.515625 25.355469 L 2.1875 25.355469 L 1.484375 26.914062 C 1.460938 26.972656 1.425781 27.066406 1.378906 27.1875 L 1.367188 27.1875 C 1.351562 27.128906 1.316406 27.035156 1.265625 26.921875 L 0.582031 25.351562 L 0.234375 25.351562 L 0.234375 27.585938 L 0.484375 27.585938 L 0.484375 26.089844 Z M 3.085938 26.09375 L 3.3125 26.09375 L 3.3125 27.484375 L 3.085938 27.484375 Z M 3.199219 25.582031 C 3.246094 25.582031 3.285156 25.566406 3.316406 25.535156 C 3.347656 25.503906 3.367188 25.464844 3.367188 25.417969 C 3.367188 25.371094 3.355469 25.328125 3.316406 25.300781 C 3.285156 25.269531 3.246094 25.253906 3.199219 25.253906 C 3.152344 25.253906 3.113281 25.269531 3.082031 25.300781 C 3.050781 25.328125 3.03125 25.371094 3.03125 25.417969 C 3.03125 25.46875 3.046875 25.503906 3.082031 25.535156 C 3.117188 25.566406 3.152344 25.582031 3.199219 25.582031 Z M 4.917969 27.515625 L 4.917969 27.269531 C 4.796875 27.363281 4.664062 27.40625 4.527344 27.40625 C 4.363281 27.40625 4.230469 27.351562 4.132812 27.242188 C 4.035156 27.136719 3.984375 26.988281 3.984375 26.804688 C 3.984375 26.609375 4.035156 26.457031 4.140625 26.339844 C 4.242188 26.226562 4.378906 26.167969 4.539062 26.167969 C 4.671875 26.167969 4.800781 26.210938 4.917969 26.292969 L 4.917969 26.03125 C 4.8125 25.976562 4.691406 25.949219 4.550781 25.949219 C 4.296875 25.949219 4.09375 26.03125 3.945312 26.191406 C 3.796875 26.347656 3.722656 26.5625 3.722656 26.824219 C 3.722656 27.054688 3.789062 27.25 3.925781 27.398438 C 4.070312 27.550781 4.253906 27.628906 4.480469 27.628906 C 4.652344 27.625 4.796875 27.585938 4.917969 27.515625 Z M 5.566406 26.773438 C 5.566406 26.589844 5.605469 26.441406 5.683594 26.339844 C 5.753906 26.246094 5.839844 26.199219 5.941406 26.199219 C 6.03125 26.199219 6.089844 26.214844 6.136719 26.25 L 6.136719 25.984375 C 6.101562 25.96875 6.050781 25.964844 5.984375 25.964844 C 5.890625 25.964844 5.808594 25.996094 5.738281 26.050781 C 5.660156 26.113281 5.601562 26.207031 5.566406 26.324219 L 5.558594 26.324219 L 5.558594 25.996094 L 5.304688 25.996094 L 5.304688 27.59375 L 5.558594 27.59375 L 5.558594 26.773438 Z M 7.035156 27.625 C 7.273438 27.625 7.46875 27.546875 7.613281 27.390625 C 7.753906 27.238281 7.828125 27.035156 7.828125 26.777344 C 7.828125 26.515625 7.761719 26.316406 7.625 26.167969 C 7.496094 26.019531 7.308594 25.949219 7.070312 25.949219 C 6.828125 25.949219 6.636719 26.019531 6.492188 26.160156 C 6.335938 26.3125 6.257812 26.527344 6.257812 26.804688 C 6.257812 27.042969 6.320312 27.242188 6.460938 27.390625 C 6.605469 27.546875 6.792969 27.621094 7.035156 27.621094 Z M 6.667969 26.324219 C 6.765625 26.21875 6.894531 26.167969 7.054688 26.167969 C 7.21875 26.167969 7.339844 26.21875 7.433594 26.324219 C 7.523438 26.429688 7.570312 26.582031 7.570312 26.789062 C 7.570312 26.984375 7.53125 27.136719 7.441406 27.238281 C 7.355469 27.347656 7.226562 27.402344 7.058594 27.402344 C 6.894531 27.402344 6.765625 27.347656 6.667969 27.238281 C 6.574219 27.132812 6.527344 26.984375 6.527344 26.789062 C 6.515625 26.59375 6.566406 26.4375 6.667969 26.324219 Z M 8.945312 27.484375 C 9.042969 27.398438 9.097656 27.289062 9.097656 27.15625 C 9.097656 27.039062 9.054688 26.941406 8.980469 26.867188 C 8.917969 26.804688 8.820312 26.746094 8.679688 26.691406 C 8.558594 26.640625 8.480469 26.59375 8.441406 26.558594 C 8.398438 26.515625 8.375 26.464844 8.375 26.394531 C 8.375 26.328125 8.398438 26.277344 8.449219 26.234375 C 8.503906 26.195312 8.566406 26.175781 8.65625 26.175781 C 8.792969 26.175781 8.910156 26.210938 9.019531 26.289062 L 9.019531 26.03125 C 8.917969 25.980469 8.804688 25.957031 8.675781 25.957031 C 8.511719 25.957031 8.375 26 8.269531 26.089844 C 8.164062 26.175781 8.113281 26.289062 8.113281 26.421875 C 8.113281 26.539062 8.148438 26.636719 8.214844 26.707031 C 8.269531 26.769531 8.367188 26.832031 8.5 26.886719 C 8.628906 26.941406 8.714844 26.992188 8.761719 27.035156 C 8.808594 27.074219 8.828125 27.125 8.828125 27.1875 C 8.828125 27.335938 8.726562 27.414062 8.527344 27.414062 C 8.375 27.414062 8.234375 27.363281 8.113281 27.261719 L 8.113281 27.535156 C 8.222656 27.601562 8.359375 27.632812 8.503906 27.632812 C 8.695312 27.625 8.84375 27.578125 8.945312 27.484375 Z M 10.164062 25.949219 C 9.925781 25.949219 9.730469 26.019531 9.585938 26.160156 C 9.433594 26.3125 9.351562 26.527344 9.351562 26.804688 C 9.351562 27.042969 9.417969 27.242188 9.558594 27.390625 C 9.699219 27.546875 9.890625 27.625 10.128906 27.625 C 10.375 27.625 10.5625 27.546875 10.707031 27.390625 C 10.851562 27.238281 10.921875 27.035156 10.921875 26.777344 C 10.921875 26.515625 10.855469 26.316406 10.722656 26.167969 C 10.585938 26.019531 10.402344 25.949219 10.167969 25.949219 Z M 10.660156 26.789062 C 10.660156 26.984375 10.621094 27.136719 10.535156 27.238281 C 10.445312 27.347656 10.320312 27.402344 10.148438 27.402344 C 9.984375 27.402344 9.859375 27.347656 9.761719 27.238281 C 9.664062 27.132812 9.617188 26.984375 9.617188 26.789062 C 9.617188 26.582031 9.667969 26.425781 9.769531 26.316406 C 9.867188 26.214844 9.996094 26.164062 10.15625 26.164062 C 10.3125 26.164062 10.441406 26.214844 10.53125 26.316406 C 10.617188 26.429688 10.660156 26.582031 10.660156 26.789062 Z M 11.351562 27.585938 L 11.609375 27.585938 L 11.609375 26.207031 L 11.980469 26.207031 L 11.980469 25.992188 L 11.609375 25.992188 L 11.609375 25.742188 C 11.609375 25.519531 11.695312 25.40625 11.875 25.40625 C 11.933594 25.40625 11.996094 25.421875 12.042969 25.449219 L 12.042969 25.21875 C 11.996094 25.195312 11.933594 25.191406 11.859375 25.191406 C 11.71875 25.191406 11.609375 25.234375 11.515625 25.320312 C 11.40625 25.421875 11.351562 25.554688 11.351562 25.734375 L 11.351562 25.996094 L 11.082031 25.996094 L 11.082031 26.210938 L 11.351562 26.210938 L 11.351562 27.589844 Z M 12.402344 27.152344 C 12.402344 27.464844 12.539062 27.625 12.820312 27.625 C 12.921875 27.625 13 27.605469 13.0625 27.570312 L 13.0625 27.351562 C 13.015625 27.386719 12.960938 27.402344 12.898438 27.402344 C 12.8125 27.402344 12.75 27.382812 12.714844 27.335938 C 12.675781 27.289062 12.65625 27.210938 12.65625 27.105469 L 12.65625 26.203125 L 13.0625 26.203125 L 13.0625 25.988281 L 12.65625 25.988281 L 12.65625 25.519531 C 12.570312 25.550781 12.484375 25.574219 12.402344 25.601562 L 12.402344 25.988281 L 12.125 25.988281 L 12.125 26.203125 L 12.402344 26.203125 Z M 39.867188 30.09375 C 39.78125 30.011719 39.679688 29.972656 39.550781 29.972656 C 39.421875 29.972656 39.316406 30.011719 39.226562 30.101562 C 39.140625 30.1875 39.101562 30.292969 39.101562 30.417969 C 39.101562 30.546875 39.140625 30.652344 39.226562 30.734375 C 39.316406 30.816406 39.421875 30.859375 39.550781 30.859375 C 39.679688 30.859375 39.785156 30.816406 39.875 30.730469 C 39.960938 30.640625 40.003906 30.539062 40.003906 30.414062 C 40 30.285156 39.953125 30.175781 39.867188 30.09375 Z M 39.828125 30.699219 C 39.75 30.773438 39.65625 30.808594 39.546875 30.808594 C 39.433594 30.808594 39.339844 30.773438 39.265625 30.699219 C 39.1875 30.621094 39.144531 30.523438 39.144531 30.410156 C 39.144531 30.300781 39.179688 30.207031 39.257812 30.128906 C 39.335938 30.054688 39.425781 30.019531 39.546875 30.019531 C 39.65625 30.019531 39.75 30.054688 39.828125 30.128906 C 39.902344 30.207031 39.945312 30.300781 39.945312 30.410156 C 39.945312 30.53125 39.910156 30.621094 39.828125 30.699219 Z M 39.597656 30.4375 C 39.644531 30.425781 39.679688 30.40625 39.703125 30.382812 C 39.730469 30.355469 39.738281 30.320312 39.738281 30.277344 C 39.738281 30.230469 39.726562 30.195312 39.695312 30.171875 C 39.660156 30.140625 39.601562 30.125 39.53125 30.125 L 39.367188 30.125 L 39.367188 30.699219 L 39.449219 30.699219 L 39.449219 30.457031 L 39.5 30.457031 C 39.535156 30.457031 39.570312 30.492188 39.601562 30.558594 L 39.664062 30.699219 L 39.761719 30.699219 L 39.683594 30.542969 C 39.65625 30.476562 39.628906 30.445312 39.597656 30.4375 Z M 39.539062 30.386719 L 39.453125 30.386719 L 39.453125 30.191406 L 39.523438 30.191406 C 39.574219 30.191406 39.613281 30.203125 39.632812 30.21875 C 39.652344 30.234375 39.65625 30.253906 39.65625 30.289062 C 39.65625 30.355469 39.617188 30.386719 39.539062 30.386719 Z M 25.261719 25.925781 L 25.332031 25.925781 L 25.332031 25.351562 L 25.523438 25.351562 L 25.523438 25.277344 L 25.074219 25.277344 L 25.074219 25.351562 L 25.261719 25.351562 Z M 25.695312 25.492188 C 25.695312 25.4375 25.695312 25.390625 25.691406 25.367188 C 25.695312 25.394531 25.707031 25.417969 25.710938 25.433594 L 25.933594 25.925781 L 25.96875 25.925781 L 26.1875 25.425781 C 26.195312 25.414062 26.199219 25.390625 26.210938 25.367188 C 26.203125 25.417969 26.203125 25.457031 26.203125 25.488281 L 26.203125 25.921875 L 26.28125 25.921875 L 26.28125 25.277344 L 26.1875 25.277344 L 25.988281 25.722656 C 25.984375 25.738281 25.96875 25.769531 25.957031 25.804688 L 25.953125 25.804688 C 25.949219 25.785156 25.9375 25.765625 25.921875 25.730469 L 25.722656 25.277344 L 25.621094 25.277344 L 25.621094 25.925781 L 25.691406 25.925781 L 25.691406 25.492188 Z M 25.695312 25.492188 "/>
</g>
</svg>
