<?xml version="1.0" encoding="UTF-8"?>
<svg xmlns="http://www.w3.org/2000/svg" xmlns:xlink="http://www.w3.org/1999/xlink" width="30px" height="px" viewBox="0 0 30 30" version="1.1">
<defs>
<linearGradient id="linear0" gradientUnits="userSpaceOnUse" x1="-2901.952" y1="923.573" x2="-2061.249" y2="1420.331" gradientTransform="matrix(0.00142519,0,0,-0.00142519,17.426403,19.098315)">
<stop offset="0" style="stop-color:rgb(56.470588%,61.176471%,66.27451%);stop-opacity:1;"/>
<stop offset="1" style="stop-color:rgb(92.941176%,92.941176%,93.333333%);stop-opacity:1;"/>
</linearGradient>
<linearGradient id="linear1" gradientUnits="userSpaceOnUse" x1="-2882.7" y1="10288.81" x2="-2206.249" y2="10288.81" gradientTransform="matrix(0.00142519,0,0,-0.00142519,17.426403,19.098315)">
<stop offset="0" style="stop-color:rgb(57.647059%,62.352941%,67.058824%);stop-opacity:1;"/>
<stop offset="1" style="stop-color:rgb(86.27451%,87.058824%,88.235294%);stop-opacity:1;"/>
</linearGradient>
<radialGradient id="radial0" gradientUnits="userSpaceOnUse" cx="-14217.448" cy="7277.705" fx="-14217.448" fy="7277.705" r="898.12" gradientTransform="matrix(-0.0013686,-0.000205579,-0.000415778,0.00273721,1.750587,-13.987087)">
<stop offset="0" style="stop-color:rgb(93.333333%,20.784314%,17.254902%);stop-opacity:1;"/>
<stop offset="1" style="stop-color:rgb(66.27451%,11.372549%,13.333333%);stop-opacity:1;"/>
</radialGradient>
</defs>
<g id="surface1">
<path style=" stroke:none;fill-rule:nonzero;fill:url(#linear0);" d="M 20.34375 10.597656 L 17.027344 11.679688 L 14.144531 12.953125 L 13.339844 13.164062 C 13.132812 13.359375 12.917969 13.558594 12.6875 13.757812 C 12.429688 13.976562 12.191406 14.179688 12.007812 14.324219 C 11.804688 14.484375 11.507812 14.785156 11.351562 14.976562 C 11.125 15.261719 10.945312 15.5625 10.867188 15.796875 C 10.730469 16.21875 10.796875 16.644531 11.0625 17.035156 C 11.402344 17.539062 12.082031 18.046875 12.875 18.394531 C 13.277344 18.574219 13.957031 18.800781 14.464844 18.929688 C 15.316406 19.144531 16.957031 19.378906 17.863281 19.414062 C 18.046875 19.421875 18.289062 19.421875 18.300781 19.414062 C 18.320312 19.402344 18.460938 19.132812 18.625 18.800781 C 19.179688 17.664062 19.582031 16.601562 19.796875 15.691406 C 19.929688 15.140625 20.03125 14.40625 20.097656 13.539062 C 20.117188 13.292969 20.125 12.480469 20.109375 12.203125 C 20.085938 11.753906 20.046875 11.386719 19.984375 11.03125 C 19.972656 10.976562 19.972656 10.929688 19.976562 10.925781 C 19.984375 10.921875 20.015625 10.910156 20.425781 10.792969 Z M 19.585938 11.039062 C 19.617188 11.039062 19.695312 11.808594 19.714844 12.296875 C 19.722656 12.398438 19.71875 12.464844 19.714844 12.464844 C 19.691406 12.464844 19.289062 12.226562 19.003906 12.046875 C 18.75 11.890625 18.277344 11.574219 18.199219 11.515625 C 18.175781 11.496094 18.179688 11.492188 18.382812 11.421875 C 18.730469 11.304688 19.558594 11.039062 19.585938 11.039062 Z M 17.898438 11.597656 C 17.921875 11.597656 17.976562 11.628906 18.117188 11.714844 C 18.632812 12.039062 19.332031 12.429688 19.632812 12.558594 C 19.726562 12.597656 19.734375 12.582031 19.523438 12.726562 C 19.066406 13.039062 18.5 13.34375 17.800781 13.652344 C 17.679688 13.707031 17.578125 13.75 17.574219 13.75 C 17.570312 13.75 17.585938 13.6875 17.605469 13.613281 C 17.773438 12.988281 17.867188 12.359375 17.871094 11.851562 C 17.875 11.601562 17.875 11.601562 17.898438 11.59375 C 17.890625 11.597656 17.894531 11.597656 17.898438 11.597656 Z M 17.550781 11.730469 C 17.5625 11.746094 17.554688 12.304688 17.535156 12.457031 C 17.488281 12.824219 17.417969 13.164062 17.304688 13.546875 C 17.277344 13.640625 17.25 13.71875 17.246094 13.722656 C 17.234375 13.734375 16.894531 13.398438 16.78125 13.269531 C 16.585938 13.042969 16.433594 12.820312 16.320312 12.597656 C 16.261719 12.484375 16.171875 12.265625 16.179688 12.257812 C 16.21875 12.230469 17.539062 11.71875 17.550781 11.730469 Z M 15.910156 12.371094 C 15.914062 12.371094 15.917969 12.371094 15.917969 12.375 C 15.925781 12.378906 15.941406 12.421875 15.957031 12.464844 C 16.035156 12.683594 16.21875 13.003906 16.371094 13.210938 C 16.542969 13.433594 16.765625 13.675781 16.949219 13.832031 C 17.011719 13.882812 17.066406 13.929688 17.074219 13.9375 C 17.089844 13.953125 17.09375 13.949219 16.683594 14.105469 C 16.210938 14.285156 15.695312 14.464844 15.105469 14.65625 C 14.964844 14.703125 14.824219 14.75 14.683594 14.792969 C 14.660156 14.800781 14.667969 14.789062 14.730469 14.6875 C 15.023438 14.230469 15.46875 13.328125 15.722656 12.695312 C 15.761719 12.582031 15.804688 12.472656 15.8125 12.449219 C 15.824219 12.414062 15.835938 12.398438 15.867188 12.382812 C 15.886719 12.378906 15.902344 12.371094 15.910156 12.371094 Z M 15.410156 12.582031 C 15.417969 12.585938 15.289062 12.855469 15.164062 13.097656 C 14.921875 13.574219 14.65625 14.039062 14.300781 14.605469 C 14.242188 14.703125 14.183594 14.792969 14.175781 14.800781 C 14.164062 14.820312 14.160156 14.816406 14.117188 14.738281 C 14.03125 14.570312 13.960938 14.355469 13.925781 14.15625 C 13.886719 13.960938 13.894531 13.621094 13.9375 13.410156 C 13.96875 13.253906 13.96875 13.257812 14.042969 13.21875 C 14.363281 13.054688 15.402344 12.570312 15.410156 12.582031 Z M 19.730469 12.757812 L 19.730469 12.859375 C 19.730469 13.417969 19.671875 14.1875 19.582031 14.746094 C 19.566406 14.84375 19.554688 14.921875 19.554688 14.925781 C 19.554688 14.925781 19.480469 14.90625 19.394531 14.878906 C 19.019531 14.761719 18.609375 14.589844 18.242188 14.386719 C 18 14.253906 17.648438 14.035156 17.65625 14.027344 C 17.660156 14.023438 17.765625 13.96875 17.886719 13.902344 C 18.378906 13.648438 18.847656 13.371094 19.257812 13.097656 C 19.410156 12.996094 19.640625 12.832031 19.691406 12.785156 Z M 13.519531 13.496094 C 13.53125 13.496094 13.527344 13.515625 13.511719 13.609375 C 13.503906 13.671875 13.488281 13.792969 13.484375 13.875 C 13.464844 14.242188 13.523438 14.511719 13.703125 14.882812 C 13.753906 14.984375 13.796875 15.070312 13.792969 15.074219 C 13.773438 15.085938 12.117188 15.574219 11.597656 15.714844 C 11.441406 15.757812 11.304688 15.796875 11.296875 15.800781 C 11.277344 15.804688 11.277344 15.800781 11.28125 15.757812 C 11.339844 15.390625 11.621094 14.910156 12.011719 14.503906 C 12.273438 14.234375 12.480469 14.074219 12.835938 13.871094 C 13.089844 13.726562 13.484375 13.511719 13.515625 13.5 C 13.515625 13.496094 13.515625 13.496094 13.519531 13.496094 Z M 17.425781 14.195312 C 17.429688 14.195312 17.488281 14.226562 17.5625 14.269531 C 18.097656 14.578125 18.84375 14.867188 19.480469 15.015625 L 19.539062 15.027344 L 19.457031 15.074219 C 19.125 15.257812 18.03125 15.714844 16.910156 16.132812 C 16.746094 16.191406 16.585938 16.253906 16.558594 16.265625 C 16.527344 16.277344 16.5 16.285156 16.5 16.28125 C 16.5 16.28125 16.546875 16.191406 16.601562 16.085938 C 16.914062 15.5 17.230469 14.785156 17.390625 14.289062 C 17.410156 14.242188 17.425781 14.199219 17.425781 14.195312 Z M 17.027344 14.328125 C 17.03125 14.328125 17.011719 14.382812 16.984375 14.441406 C 16.769531 14.96875 16.484375 15.546875 16.117188 16.191406 C 16.023438 16.359375 15.945312 16.492188 15.945312 16.492188 C 15.941406 16.492188 15.867188 16.445312 15.777344 16.390625 C 15.246094 16.066406 14.773438 15.664062 14.464844 15.277344 L 14.421875 15.21875 L 14.648438 15.15625 C 15.464844 14.933594 16.160156 14.695312 16.847656 14.398438 C 16.945312 14.359375 17.027344 14.328125 17.027344 14.328125 Z M 19.503906 15.191406 C 19.503906 15.246094 19.378906 15.765625 19.273438 16.136719 C 19.183594 16.449219 19.109375 16.695312 18.972656 17.128906 C 18.910156 17.320312 18.859375 17.476562 18.855469 17.476562 C 18.855469 17.476562 18.839844 17.472656 18.824219 17.46875 C 18.082031 17.335938 17.414062 17.144531 16.789062 16.894531 C 16.613281 16.824219 16.363281 16.714844 16.347656 16.699219 C 16.34375 16.695312 16.492188 16.625 16.683594 16.542969 C 17.824219 16.042969 19.003906 15.476562 19.410156 15.234375 C 19.457031 15.207031 19.496094 15.191406 19.503906 15.191406 Z M 13.789062 15.386719 C 13.796875 15.390625 13.476562 15.847656 13.03125 16.472656 C 12.875 16.691406 12.695312 16.945312 12.628906 17.042969 C 12.558594 17.136719 12.457031 17.285156 12.398438 17.375 L 12.292969 17.539062 L 12.183594 17.445312 C 12.050781 17.335938 11.820312 17.097656 11.714844 16.96875 C 11.5 16.699219 11.355469 16.417969 11.296875 16.160156 C 11.269531 16.039062 11.269531 15.980469 11.296875 15.972656 C 11.332031 15.960938 12 15.804688 12.628906 15.660156 C 12.976562 15.578125 13.378906 15.484375 13.523438 15.449219 C 13.667969 15.414062 13.789062 15.386719 13.789062 15.386719 Z M 14.109375 15.507812 L 14.191406 15.597656 C 14.550781 16 14.917969 16.300781 15.367188 16.558594 C 15.445312 16.605469 15.503906 16.644531 15.5 16.648438 C 15.484375 16.660156 13.953125 17.203125 13.242188 17.449219 C 12.847656 17.589844 12.519531 17.703125 12.515625 17.703125 C 12.511719 17.703125 12.488281 17.6875 12.464844 17.667969 L 12.421875 17.636719 L 12.492188 17.53125 C 12.726562 17.191406 13.023438 16.820312 13.667969 16.042969 Z M 16.109375 16.9375 C 16.113281 16.9375 16.222656 16.976562 16.355469 17.027344 C 16.683594 17.148438 16.941406 17.226562 17.285156 17.3125 C 17.710938 17.421875 18.328125 17.527344 18.691406 17.558594 C 18.746094 17.5625 18.777344 17.566406 18.765625 17.574219 C 18.75 17.585938 18.382812 17.707031 18.109375 17.792969 C 17.679688 17.929688 16.363281 18.316406 15.292969 18.625 C 15.09375 18.683594 14.925781 18.730469 14.914062 18.730469 C 14.890625 18.738281 14.808594 18.714844 14.808594 18.703125 C 14.808594 18.699219 14.867188 18.621094 14.941406 18.535156 C 15.300781 18.105469 15.660156 17.625 15.957031 17.167969 C 16.039062 17.042969 16.109375 16.941406 16.109375 16.9375 Z M 15.667969 16.949219 C 15.671875 16.953125 15.492188 17.238281 15.183594 17.730469 C 15.050781 17.9375 14.902344 18.171875 14.847656 18.257812 C 14.800781 18.335938 14.722656 18.460938 14.683594 18.53125 L 14.609375 18.660156 L 14.570312 18.648438 C 14.480469 18.625 13.847656 18.402344 13.679688 18.332031 C 13.472656 18.25 13.257812 18.152344 13.097656 18.066406 C 12.894531 17.957031 12.644531 17.796875 12.664062 17.792969 C 12.671875 17.789062 13.011719 17.699219 13.425781 17.585938 C 14.523438 17.285156 15.132812 17.113281 15.53125 16.988281 C 15.601562 16.964844 15.664062 16.949219 15.667969 16.949219 Z M 18.785156 17.683594 L 18.789062 17.683594 C 18.800781 17.707031 18.394531 18.835938 18.246094 19.191406 C 18.214844 19.269531 18.199219 19.289062 18.183594 19.289062 C 18.140625 19.285156 17.550781 19.203125 17.195312 19.148438 C 16.570312 19.054688 15.523438 18.871094 15.261719 18.8125 L 15.199219 18.800781 L 15.574219 18.714844 C 16.375 18.535156 16.761719 18.4375 17.152344 18.316406 C 17.644531 18.164062 18.132812 17.976562 18.625 17.746094 C 18.703125 17.710938 18.769531 17.683594 18.785156 17.683594 Z M 18.785156 17.683594 "/>
<path style=" stroke:none;fill-rule:nonzero;fill:url(#linear1);" d="M 16.925781 2.875 C 16.871094 2.867188 15.980469 3.1875 15.40625 3.417969 C 14.632812 3.734375 14.03125 4.035156 13.664062 4.296875 C 13.523438 4.394531 13.351562 4.566406 13.324219 4.632812 C 13.3125 4.660156 13.308594 4.6875 13.308594 4.71875 L 13.644531 5.035156 L 14.445312 5.292969 L 16.34375 5.632812 L 18.519531 6.007812 L 18.542969 5.820312 C 18.535156 5.820312 18.527344 5.816406 18.519531 5.816406 L 18.234375 5.769531 L 18.179688 5.667969 C 17.882812 5.148438 17.558594 4.5 17.367188 4.066406 C 17.21875 3.726562 17.078125 3.335938 17 3.054688 C 16.957031 2.886719 16.953125 2.875 16.925781 2.875 L 16.925781 2.871094 Z M 16.886719 3 C 16.890625 3.003906 16.902344 3.074219 16.910156 3.15625 C 16.953125 3.507812 17.03125 3.84375 17.152344 4.210938 C 17.246094 4.484375 17.246094 4.472656 17.136719 4.4375 C 16.882812 4.367188 15.738281 4.171875 14.910156 4.054688 C 14.777344 4.039062 14.664062 4.019531 14.664062 4.019531 C 14.652344 4.007812 15.261719 3.691406 15.53125 3.5625 C 15.875 3.40625 16.816406 3.011719 16.886719 3 Z M 14.472656 4.121094 L 14.570312 4.15625 C 15.101562 4.335938 16.433594 4.589844 17.171875 4.652344 C 17.253906 4.660156 17.324219 4.667969 17.328125 4.667969 C 17.328125 4.667969 17.257812 4.707031 17.167969 4.75 C 16.8125 4.925781 16.421875 5.144531 16.152344 5.3125 C 16.070312 5.363281 16 5.402344 15.988281 5.402344 C 15.980469 5.402344 15.925781 5.394531 15.871094 5.386719 L 15.769531 5.371094 L 15.519531 5.125 C 15.078125 4.695312 14.734375 4.367188 14.601562 4.242188 Z M 14.371094 4.199219 L 14.722656 4.640625 C 14.917969 4.882812 15.113281 5.121094 15.15625 5.175781 C 15.199219 5.226562 15.234375 5.269531 15.230469 5.273438 C 15.21875 5.28125 14.71875 5.183594 14.453125 5.121094 C 14.179688 5.058594 14.066406 5.03125 13.898438 4.976562 L 13.761719 4.933594 L 13.761719 4.898438 C 13.765625 4.730469 13.976562 4.476562 14.339844 4.222656 Z M 17.371094 4.800781 C 17.382812 4.800781 17.394531 4.824219 17.425781 4.890625 C 17.507812 5.078125 17.773438 5.585938 17.839844 5.683594 C 17.859375 5.714844 17.894531 5.71875 17.542969 5.660156 C 16.691406 5.523438 16.417969 5.476562 16.417969 5.472656 C 16.417969 5.46875 16.445312 5.453125 16.476562 5.433594 C 16.742188 5.289062 17.007812 5.105469 17.242188 4.90625 C 17.300781 4.859375 17.351562 4.8125 17.363281 4.804688 C 17.363281 4.800781 17.367188 4.800781 17.371094 4.800781 Z M 17.371094 4.800781 "/>
<path style=" stroke:none;fill-rule:nonzero;fill:url(#radial0);" d="M 13.339844 4.597656 C 13.339844 4.597656 13.285156 4.6875 13.339844 4.816406 C 13.371094 4.898438 13.46875 4.996094 13.574219 5.09375 C 13.574219 5.09375 14.6875 6.179688 14.824219 6.335938 C 15.441406 7.046875 15.707031 7.75 15.734375 8.714844 C 15.75 9.335938 15.632812 9.882812 15.335938 10.515625 C 14.816406 11.652344 13.71875 12.910156 12.023438 14.300781 L 12.269531 14.21875 C 12.429688 14.097656 12.648438 13.972656 13.160156 13.691406 C 14.339844 13.042969 15.664062 12.449219 17.292969 11.839844 C 19.636719 10.957031 23.492188 9.925781 25.6875 9.589844 L 25.914062 9.554688 L 25.878906 9.5 C 25.679688 9.191406 25.542969 8.996094 25.375 8.792969 C 24.894531 8.195312 24.3125 7.710938 23.597656 7.3125 C 22.617188 6.761719 21.347656 6.335938 19.738281 6.015625 C 19.433594 5.957031 18.769531 5.839844 18.226562 5.757812 C 17.082031 5.582031 16.339844 5.457031 15.523438 5.316406 C 15.230469 5.265625 14.792969 5.191406 14.5 5.128906 C 14.351562 5.097656 14.0625 5.03125 13.835938 4.953125 C 13.65625 4.882812 13.398438 4.8125 13.339844 4.597656 Z M 13.988281 5.226562 C 13.992188 5.222656 14.03125 5.238281 14.082031 5.253906 C 14.179688 5.289062 14.300781 5.324219 14.445312 5.363281 C 14.554688 5.394531 14.667969 5.425781 14.777344 5.453125 C 14.925781 5.492188 15.050781 5.523438 15.054688 5.523438 C 15.074219 5.542969 15.324219 6.351562 15.410156 6.664062 C 15.441406 6.78125 15.46875 6.878906 15.464844 6.878906 C 15.464844 6.882812 15.4375 6.839844 15.402344 6.78125 C 15.109375 6.265625 14.648438 5.742188 14.109375 5.324219 C 14.039062 5.273438 13.988281 5.226562 13.988281 5.226562 Z M 15.21875 5.566406 C 15.234375 5.566406 15.289062 5.574219 15.355469 5.589844 C 15.78125 5.683594 16.546875 5.828125 17.035156 5.910156 C 17.117188 5.921875 17.179688 5.9375 17.179688 5.945312 C 17.179688 5.949219 17.152344 5.964844 17.113281 5.984375 C 17.03125 6.027344 16.699219 6.226562 16.585938 6.300781 C 16.308594 6.488281 16.058594 6.6875 15.878906 6.867188 C 15.804688 6.941406 15.742188 7 15.742188 7 C 15.742188 7 15.730469 6.957031 15.714844 6.90625 C 15.625 6.558594 15.4375 6.042969 15.269531 5.679688 C 15.238281 5.621094 15.21875 5.566406 15.21875 5.5625 C 15.21875 5.566406 15.21875 5.566406 15.21875 5.566406 Z M 17.390625 5.980469 C 17.402344 5.984375 17.429688 6.070312 17.480469 6.257812 C 17.570312 6.621094 17.613281 7.027344 17.597656 7.402344 C 17.59375 7.507812 17.589844 7.605469 17.585938 7.621094 L 17.578125 7.644531 L 17.445312 7.601562 C 17.179688 7.515625 16.742188 7.390625 16.371094 7.285156 C 16.15625 7.226562 15.984375 7.171875 15.984375 7.167969 C 15.984375 7.152344 16.292969 6.84375 16.425781 6.726562 C 16.679688 6.503906 17.367188 5.972656 17.390625 5.980469 Z M 17.5625 6.003906 C 17.570312 5.996094 18.597656 6.175781 19.066406 6.265625 C 19.414062 6.332031 19.921875 6.4375 19.953125 6.449219 C 19.964844 6.453125 19.914062 6.484375 19.746094 6.558594 C 19.085938 6.859375 18.59375 7.125 18.105469 7.453125 C 17.976562 7.535156 17.871094 7.605469 17.867188 7.605469 C 17.863281 7.605469 17.863281 7.535156 17.863281 7.445312 C 17.863281 6.96875 17.765625 6.488281 17.59375 6.082031 C 17.574219 6.042969 17.558594 6.007812 17.5625 6.003906 Z M 20.222656 6.53125 C 20.230469 6.539062 20.199219 6.738281 20.167969 6.859375 C 20.078125 7.234375 19.835938 7.785156 19.539062 8.308594 C 19.484375 8.402344 19.4375 8.476562 19.433594 8.476562 C 19.429688 8.480469 19.359375 8.441406 19.28125 8.398438 C 18.992188 8.226562 18.660156 8.066406 18.300781 7.917969 C 18.199219 7.875 18.113281 7.839844 18.109375 7.835938 C 18.09375 7.820312 18.898438 7.285156 19.324219 7.03125 C 19.664062 6.824219 20.214844 6.519531 20.222656 6.53125 Z M 20.414062 6.558594 C 20.4375 6.558594 20.894531 6.683594 21.128906 6.753906 C 21.71875 6.929688 22.394531 7.179688 22.835938 7.378906 L 23.019531 7.460938 L 22.890625 7.492188 C 21.816406 7.738281 20.894531 8.023438 20.003906 8.386719 C 19.929688 8.414062 19.867188 8.441406 19.859375 8.441406 C 19.855469 8.441406 19.882812 8.382812 19.914062 8.3125 C 20.183594 7.746094 20.355469 7.152344 20.398438 6.644531 C 20.398438 6.597656 20.40625 6.558594 20.414062 6.558594 Z M 15.875 7.601562 C 15.882812 7.59375 16.230469 7.675781 16.417969 7.730469 C 16.707031 7.808594 17.3125 8.011719 17.3125 8.027344 C 17.3125 8.03125 17.242188 8.085938 17.164062 8.15625 C 16.835938 8.429688 16.519531 8.71875 16.140625 9.085938 C 16.027344 9.191406 15.933594 9.28125 15.929688 9.28125 C 15.925781 9.28125 15.921875 9.265625 15.925781 9.246094 C 15.980469 8.824219 15.96875 8.28125 15.890625 7.734375 C 15.882812 7.664062 15.875 7.605469 15.875 7.601562 Z M 23.191406 7.609375 C 23.195312 7.613281 23.03125 7.875 22.925781 8.023438 C 22.777344 8.238281 22.554688 8.523438 22.058594 9.148438 C 21.792969 9.480469 21.5 9.851562 21.402344 9.976562 C 21.300781 10.105469 21.21875 10.207031 21.214844 10.207031 C 21.214844 10.207031 21.179688 10.164062 21.144531 10.109375 C 20.867188 9.6875 20.53125 9.320312 20.132812 8.988281 C 20.054688 8.925781 19.972656 8.859375 19.945312 8.839844 C 19.917969 8.820312 19.894531 8.796875 19.894531 8.796875 C 19.894531 8.789062 20.320312 8.605469 20.644531 8.476562 C 21.210938 8.246094 21.980469 7.96875 22.5625 7.792969 C 22.863281 7.695312 23.1875 7.605469 23.191406 7.609375 Z M 23.386719 7.660156 C 23.394531 7.65625 23.457031 7.6875 23.527344 7.730469 C 24.136719 8.078125 24.730469 8.527344 25.203125 8.988281 C 25.335938 9.117188 25.664062 9.457031 25.660156 9.460938 C 25.660156 9.460938 25.542969 9.46875 25.410156 9.480469 C 24.355469 9.558594 23.003906 9.78125 21.707031 10.097656 C 21.621094 10.117188 21.542969 10.132812 21.535156 10.132812 C 21.53125 10.132812 21.628906 10.035156 21.753906 9.917969 C 22.511719 9.183594 22.863281 8.722656 23.273438 7.894531 C 23.328125 7.773438 23.378906 7.667969 23.386719 7.660156 C 23.382812 7.660156 23.382812 7.660156 23.386719 7.660156 Z M 17.808594 8.230469 C 17.84375 8.238281 18.167969 8.390625 18.414062 8.511719 C 18.640625 8.625 18.976562 8.804688 18.996094 8.820312 C 18.996094 8.824219 18.875 8.886719 18.730469 8.960938 C 18.257812 9.195312 17.855469 9.417969 17.433594 9.671875 C 17.3125 9.746094 17.214844 9.804688 17.210938 9.804688 C 17.203125 9.804688 17.203125 9.796875 17.269531 9.671875 C 17.496094 9.261719 17.675781 8.769531 17.78125 8.292969 C 17.789062 8.253906 17.800781 8.230469 17.808594 8.230469 Z M 17.480469 8.289062 C 17.488281 8.296875 17.402344 8.605469 17.351562 8.773438 C 17.25 9.09375 17.074219 9.488281 16.910156 9.789062 C 16.867188 9.859375 16.808594 9.964844 16.777344 10.019531 L 16.710938 10.121094 L 16.574219 9.984375 C 16.410156 9.828125 16.277344 9.730469 16.105469 9.644531 C 16.039062 9.609375 15.988281 9.578125 15.988281 9.574219 C 15.988281 9.550781 16.414062 9.164062 16.742188 8.882812 C 16.976562 8.679688 17.472656 8.28125 17.480469 8.289062 Z M 19.472656 9.109375 L 19.59375 9.191406 C 19.875 9.371094 20.207031 9.617188 20.460938 9.828125 C 20.601562 9.945312 20.878906 10.195312 20.933594 10.253906 L 20.964844 10.285156 L 20.761719 10.34375 C 19.613281 10.664062 18.726562 10.945312 17.691406 11.324219 C 17.578125 11.367188 17.480469 11.402344 17.472656 11.402344 C 17.457031 11.402344 17.445312 11.417969 17.703125 11.179688 C 18.363281 10.570312 18.949219 9.898438 19.386719 9.246094 Z M 18.949219 9.238281 C 18.953125 9.246094 18.609375 9.726562 18.40625 10 C 18.160156 10.328125 17.726562 10.871094 17.425781 11.226562 C 17.300781 11.375 17.191406 11.5 17.1875 11.5 C 17.179688 11.503906 17.175781 11.464844 17.175781 11.410156 C 17.175781 11.105469 17.097656 10.78125 16.964844 10.507812 C 16.90625 10.390625 16.894531 10.363281 16.910156 10.351562 C 16.957031 10.308594 17.683594 9.894531 18.144531 9.644531 C 18.457031 9.480469 18.941406 9.234375 18.949219 9.238281 Z M 15.785156 10.015625 C 15.792969 10.015625 15.847656 10.046875 15.914062 10.082031 C 16.074219 10.167969 16.21875 10.265625 16.34375 10.371094 C 16.351562 10.375 16.285156 10.429688 16.199219 10.492188 C 15.960938 10.664062 15.601562 10.933594 15.390625 11.101562 C 15.171875 11.277344 15.164062 11.285156 15.1875 11.246094 C 15.351562 10.992188 15.433594 10.851562 15.523438 10.667969 C 15.601562 10.503906 15.679688 10.3125 15.734375 10.144531 C 15.753906 10.070312 15.777344 10.015625 15.785156 10.015625 Z M 16.628906 10.675781 C 16.640625 10.675781 16.65625 10.695312 16.722656 10.796875 C 16.867188 11.011719 16.976562 11.296875 17.003906 11.527344 L 17.007812 11.578125 L 16.664062 11.710938 C 16.050781 11.945312 15.484375 12.183594 15.101562 12.359375 C 14.996094 12.40625 14.808594 12.496094 14.683594 12.558594 C 14.5625 12.621094 14.460938 12.667969 14.460938 12.664062 C 14.460938 12.664062 14.539062 12.605469 14.632812 12.535156 C 15.382812 11.992188 16.03125 11.394531 16.515625 10.800781 C 16.570312 10.738281 16.617188 10.679688 16.621094 10.675781 Z M 16.238281 10.773438 C 16.25 10.78125 15.964844 11.105469 15.769531 11.304688 C 15.285156 11.796875 14.808594 12.183594 14.214844 12.558594 C 14.136719 12.605469 14.070312 12.648438 14.0625 12.652344 C 14.046875 12.664062 14.066406 12.636719 14.328125 12.355469 C 14.492188 12.175781 14.617188 12.027344 14.761719 11.84375 C 14.855469 11.71875 14.875 11.703125 15.011719 11.605469 C 15.378906 11.339844 16.230469 10.761719 16.238281 10.773438 Z M 16.238281 10.773438 "/>
<path style=" stroke:none;fill-rule:nonzero;fill:rgb(13.72549%,12.156863%,12.156863%);fill-opacity:1;" d="M 5.394531 21.144531 C 5.347656 21.144531 5.300781 21.148438 5.253906 21.148438 C 4.324219 21.195312 3.691406 21.609375 3.324219 22.410156 C 3.011719 23.136719 3.042969 24.082031 3.328125 24.8125 C 3.660156 25.527344 4.191406 25.902344 5.082031 26.042969 C 5.269531 26.074219 5.398438 26.179688 5.761719 26.605469 L 6.210938 27.132812 L 7.027344 27.132812 L 6.484375 26.585938 C 6.183594 26.285156 5.941406 26.023438 5.941406 26.003906 C 5.941406 25.980469 6.058594 25.929688 6.195312 25.886719 C 6.652344 25.75 7.03125 25.394531 7.296875 24.855469 C 7.511719 24.421875 7.542969 24.285156 7.574219 23.746094 C 7.65625 22.136719 6.804688 21.132812 5.394531 21.140625 Z M 6.109375 25.351562 C 5.710938 25.542969 5.136719 25.582031 4.761719 25.441406 C 4.371094 25.300781 3.996094 24.898438 3.828125 24.441406 C 3.640625 23.941406 3.667969 23.019531 3.882812 22.605469 C 4.226562 21.945312 4.683594 21.640625 5.351562 21.640625 C 6.34375 21.640625 6.90625 22.25 6.980469 23.386719 C 7.039062 24.339844 6.71875 25.054688 6.109375 25.351562 Z M 20.175781 22.515625 C 19.832031 22.515625 19.570312 22.65625 19.394531 22.929688 L 19.257812 23.144531 L 19.257812 22.582031 L 18.667969 22.582031 L 18.667969 25.945312 L 19.257812 25.945312 L 19.257812 24.871094 C 19.257812 23.886719 19.269531 23.773438 19.40625 23.503906 C 19.597656 23.136719 19.921875 22.949219 20.238281 23.039062 L 20.449219 23.101562 L 20.449219 22.519531 L 20.175781 22.519531 Z M 16.703125 22.484375 C 16.585938 22.484375 16.464844 22.5 16.339844 22.527344 C 15.550781 22.734375 15.105469 23.492188 15.132812 24.273438 C 15.132812 24.925781 15.257812 25.25 15.574219 25.59375 C 16.21875 26.121094 16.800781 26.164062 17.589844 25.878906 C 17.722656 25.824219 17.867188 25.757812 17.867188 25.757812 L 17.867188 25.226562 L 17.589844 25.371094 C 16.949219 25.648438 16.472656 25.648438 16.085938 25.324219 C 15.84375 25.074219 15.734375 24.773438 15.683594 24.433594 L 18.066406 24.433594 L 18.066406 23.980469 C 18.066406 23.054688 17.511719 22.472656 16.703125 22.484375 Z M 15.738281 23.960938 C 15.738281 23.960938 15.824219 23.382812 16.152344 23.15625 C 16.308594 23.046875 16.488281 22.992188 16.667969 22.992188 C 16.84375 22.992188 17.019531 23.050781 17.164062 23.160156 C 17.464844 23.390625 17.515625 23.957031 17.515625 23.957031 L 15.738281 23.957031 Z M 1.488281 23.355469 C 0.847656 22.964844 0.5625 22.6875 0.597656 22.355469 C 0.695312 21.441406 1.824219 21.570312 2.449219 21.914062 L 2.453125 21.300781 C 2.453125 21.300781 2.109375 21.152344 1.613281 21.140625 C 0.851562 21.132812 0.363281 21.378906 0.132812 21.886719 C -0.207031 22.636719 0.09375 23.199219 1.175781 23.828125 C 1.78125 24.183594 2.050781 24.488281 2.050781 24.824219 C 2.050781 25.515625 1.21875 25.757812 0.359375 25.324219 C 0.179688 25.234375 0.03125 25.160156 0.0234375 25.160156 C -0.0078125 25.355469 0.0078125 25.824219 0.0078125 25.824219 C 0.0078125 25.824219 0.273438 25.9375 0.667969 26.011719 C 1.652344 26.210938 2.546875 25.75 2.628906 25 C 2.703125 24.296875 2.449219 23.929688 1.488281 23.355469 Z M 25.40625 22.476562 C 25.292969 22.476562 25.167969 22.496094 25.042969 22.519531 C 24.25 22.726562 23.804688 23.484375 23.835938 24.265625 C 23.835938 24.914062 23.960938 25.238281 24.277344 25.582031 C 24.921875 26.109375 25.503906 26.152344 26.296875 25.867188 C 26.429688 25.8125 26.574219 25.746094 26.574219 25.746094 L 26.574219 25.214844 L 26.296875 25.363281 C 25.65625 25.636719 25.179688 25.636719 24.796875 25.3125 C 24.546875 25.0625 24.441406 24.765625 24.390625 24.421875 L 26.773438 24.421875 L 26.773438 23.96875 C 26.773438 23.046875 26.214844 22.464844 25.40625 22.480469 Z M 24.441406 23.953125 C 24.441406 23.953125 24.53125 23.378906 24.859375 23.148438 C 25.015625 23.035156 25.195312 22.980469 25.371094 22.980469 C 25.546875 22.980469 25.726562 23.039062 25.871094 23.152344 C 26.167969 23.378906 26.21875 23.949219 26.21875 23.949219 L 24.441406 23.949219 Z M 13.609375 23.363281 C 12.964844 22.972656 12.683594 22.695312 12.71875 22.363281 C 12.816406 21.449219 13.945312 21.578125 14.570312 21.921875 L 14.574219 21.308594 C 14.574219 21.308594 14.230469 21.15625 13.734375 21.152344 C 12.972656 21.140625 12.484375 21.386719 12.253906 21.894531 C 11.914062 22.644531 12.21875 23.207031 13.296875 23.835938 C 13.902344 24.191406 14.171875 24.492188 14.171875 24.828125 C 14.171875 25.519531 13.339844 25.765625 12.480469 25.328125 C 12.304688 25.238281 12.152344 25.164062 12.144531 25.164062 C 12.113281 25.363281 12.128906 25.832031 12.128906 25.832031 C 12.128906 25.832031 12.390625 25.9375 12.785156 26.019531 C 13.769531 26.214844 14.664062 25.753906 14.746094 25.003906 C 14.820312 24.308594 14.566406 23.9375 13.609375 23.363281 Z M 28.878906 22.507812 C 28.539062 22.507812 28.273438 22.648438 28.101562 22.921875 L 27.960938 23.136719 L 27.960938 22.574219 L 27.371094 22.574219 L 27.371094 25.9375 L 27.960938 25.9375 L 27.960938 24.863281 C 27.960938 23.878906 27.972656 23.765625 28.113281 23.496094 C 28.300781 23.128906 28.625 22.941406 28.941406 23.03125 L 29.152344 23.09375 L 29.152344 22.507812 Z M 8.90625 23.34375 L 8.90625 21.199219 L 8.3125 21.199219 L 8.3125 25.945312 L 10.816406 25.945312 L 10.816406 25.382812 L 8.90625 25.382812 Z M 22.6875 24.011719 L 22.199219 25.289062 L 21.726562 24.003906 L 21.246094 22.578125 L 20.636719 22.578125 C 21.03125 23.699219 21.460938 24.839844 21.894531 25.945312 C 22.082031 25.949219 22.269531 25.945312 22.457031 25.945312 L 23.121094 24.277344 L 23.796875 22.578125 L 23.214844 22.578125 C 23.214844 22.578125 22.957031 23.253906 22.6875 24.011719 Z M 10.28125 19.90625 C 10.375 19.90625 10.457031 19.878906 10.523438 19.8125 C 10.585938 19.746094 10.621094 19.667969 10.621094 19.574219 C 10.621094 19.476562 10.585938 19.398438 10.523438 19.335938 C 10.457031 19.273438 10.378906 19.242188 10.285156 19.242188 C 10.1875 19.242188 10.105469 19.273438 10.042969 19.339844 C 9.976562 19.402344 9.945312 19.484375 9.945312 19.578125 C 9.945312 19.671875 9.976562 19.753906 10.042969 19.816406 C 10.105469 19.875 10.183594 19.90625 10.28125 19.90625 Z M 10.070312 19.363281 C 10.125 19.304688 10.195312 19.277344 10.285156 19.277344 C 10.367188 19.277344 10.4375 19.304688 10.496094 19.363281 C 10.554688 19.417969 10.582031 19.488281 10.582031 19.574219 C 10.582031 19.65625 10.554688 19.730469 10.496094 19.789062 C 10.4375 19.84375 10.367188 19.871094 10.285156 19.871094 C 10.199219 19.871094 10.128906 19.847656 10.074219 19.789062 C 10.015625 19.730469 9.984375 19.65625 9.984375 19.574219 C 9.984375 19.488281 10.011719 19.417969 10.070312 19.363281 Z M 10.210938 19.605469 L 10.25 19.605469 C 10.277344 19.605469 10.304688 19.628906 10.328125 19.679688 L 10.371094 19.785156 L 10.445312 19.785156 L 10.386719 19.667969 C 10.363281 19.621094 10.34375 19.597656 10.316406 19.589844 C 10.347656 19.582031 10.375 19.570312 10.394531 19.546875 C 10.414062 19.527344 10.421875 19.5 10.421875 19.46875 C 10.421875 19.433594 10.410156 19.40625 10.386719 19.386719 C 10.359375 19.367188 10.320312 19.355469 10.265625 19.355469 L 10.140625 19.355469 L 10.140625 19.785156 L 10.203125 19.785156 L 10.203125 19.605469 Z M 10.210938 19.402344 L 10.265625 19.402344 C 10.304688 19.402344 10.332031 19.414062 10.34375 19.421875 C 10.359375 19.433594 10.363281 19.449219 10.363281 19.476562 C 10.363281 19.527344 10.332031 19.550781 10.277344 19.550781 L 10.210938 19.550781 Z M 0.367188 19.566406 C 0.367188 19.417969 0.363281 19.304688 0.359375 19.238281 L 0.363281 19.238281 C 0.378906 19.316406 0.394531 19.375 0.410156 19.414062 L 0.984375 20.691406 L 1.078125 20.691406 L 1.652344 19.402344 C 1.667969 19.367188 1.683594 19.3125 1.703125 19.238281 L 1.707031 19.238281 C 1.695312 19.367188 1.691406 19.476562 1.691406 19.566406 L 1.691406 20.695312 L 1.886719 20.695312 L 1.886719 19.019531 L 1.640625 19.019531 L 1.113281 20.183594 C 1.09375 20.230469 1.070312 20.300781 1.035156 20.390625 L 1.027344 20.390625 C 1.015625 20.347656 0.988281 20.277344 0.949219 20.191406 L 0.433594 19.015625 L 0.175781 19.015625 L 0.175781 20.691406 L 0.363281 20.691406 L 0.363281 19.566406 Z M 2.316406 19.570312 L 2.484375 19.570312 L 2.484375 20.613281 L 2.316406 20.613281 Z M 2.398438 19.1875 C 2.433594 19.1875 2.464844 19.175781 2.488281 19.152344 C 2.511719 19.128906 2.527344 19.097656 2.527344 19.0625 C 2.527344 19.027344 2.515625 18.996094 2.488281 18.976562 C 2.464844 18.953125 2.433594 18.9375 2.398438 18.9375 C 2.367188 18.9375 2.335938 18.953125 2.3125 18.976562 C 2.289062 18.996094 2.273438 19.027344 2.273438 19.0625 C 2.273438 19.101562 2.285156 19.128906 2.3125 19.152344 C 2.339844 19.175781 2.367188 19.1875 2.398438 19.1875 Z M 3.691406 20.636719 L 3.691406 20.453125 C 3.597656 20.519531 3.496094 20.554688 3.394531 20.554688 C 3.273438 20.554688 3.171875 20.511719 3.097656 20.433594 C 3.027344 20.351562 2.988281 20.242188 2.988281 20.101562 C 2.988281 19.957031 3.027344 19.839844 3.105469 19.753906 C 3.183594 19.667969 3.28125 19.628906 3.40625 19.628906 C 3.503906 19.628906 3.601562 19.65625 3.691406 19.71875 L 3.691406 19.523438 C 3.609375 19.480469 3.515625 19.460938 3.414062 19.460938 C 3.222656 19.460938 3.070312 19.523438 2.960938 19.640625 C 2.847656 19.761719 2.792969 19.921875 2.792969 20.117188 C 2.792969 20.292969 2.839844 20.4375 2.945312 20.546875 C 3.054688 20.664062 3.191406 20.722656 3.359375 20.722656 C 3.492188 20.71875 3.597656 20.691406 3.691406 20.636719 Z M 4.171875 20.078125 C 4.171875 19.941406 4.203125 19.832031 4.261719 19.753906 C 4.316406 19.683594 4.378906 19.648438 4.457031 19.648438 C 4.523438 19.648438 4.570312 19.660156 4.601562 19.6875 L 4.601562 19.488281 C 4.578125 19.476562 4.539062 19.472656 4.488281 19.472656 C 4.417969 19.472656 4.359375 19.496094 4.304688 19.539062 C 4.246094 19.585938 4.199219 19.652344 4.171875 19.742188 L 4.167969 19.742188 L 4.167969 19.496094 L 3.976562 19.496094 L 3.976562 20.695312 L 4.167969 20.695312 L 4.167969 20.078125 Z M 5.273438 20.71875 C 5.457031 20.71875 5.601562 20.660156 5.707031 20.542969 C 5.816406 20.429688 5.871094 20.277344 5.871094 20.082031 C 5.871094 19.886719 5.820312 19.738281 5.71875 19.625 C 5.621094 19.515625 5.484375 19.460938 5.300781 19.460938 C 5.121094 19.460938 4.976562 19.515625 4.867188 19.621094 C 4.753906 19.734375 4.691406 19.894531 4.691406 20.101562 C 4.691406 20.285156 4.742188 20.433594 4.84375 20.542969 C 4.953125 20.660156 5.09375 20.71875 5.273438 20.71875 Z M 5.003906 19.742188 C 5.074219 19.664062 5.171875 19.628906 5.289062 19.628906 C 5.414062 19.628906 5.503906 19.664062 5.574219 19.742188 C 5.644531 19.824219 5.679688 19.9375 5.679688 20.089844 C 5.679688 20.238281 5.648438 20.351562 5.582031 20.429688 C 5.515625 20.511719 5.421875 20.550781 5.292969 20.550781 C 5.171875 20.550781 5.074219 20.511719 5.003906 20.429688 C 4.929688 20.347656 4.894531 20.238281 4.894531 20.089844 C 4.886719 19.945312 4.925781 19.828125 5.003906 19.742188 Z M 6.710938 20.613281 C 6.785156 20.546875 6.820312 20.46875 6.820312 20.367188 C 6.820312 20.28125 6.792969 20.207031 6.734375 20.148438 C 6.6875 20.101562 6.613281 20.0625 6.511719 20.019531 C 6.417969 19.980469 6.359375 19.945312 6.332031 19.917969 C 6.300781 19.886719 6.28125 19.851562 6.28125 19.796875 C 6.28125 19.746094 6.300781 19.707031 6.335938 19.675781 C 6.375 19.644531 6.425781 19.632812 6.492188 19.632812 C 6.59375 19.632812 6.683594 19.660156 6.765625 19.714844 L 6.765625 19.523438 C 6.6875 19.484375 6.601562 19.46875 6.507812 19.46875 C 6.382812 19.46875 6.28125 19.5 6.203125 19.566406 C 6.121094 19.632812 6.085938 19.714844 6.085938 19.816406 C 6.085938 19.902344 6.109375 19.976562 6.160156 20.03125 C 6.203125 20.074219 6.277344 20.121094 6.375 20.164062 C 6.472656 20.207031 6.539062 20.246094 6.570312 20.277344 C 6.605469 20.304688 6.621094 20.34375 6.621094 20.390625 C 6.621094 20.503906 6.546875 20.558594 6.394531 20.558594 C 6.28125 20.558594 6.175781 20.523438 6.085938 20.445312 L 6.085938 20.652344 C 6.167969 20.703125 6.269531 20.726562 6.378906 20.726562 C 6.519531 20.71875 6.632812 20.683594 6.710938 20.613281 Z M 7.625 19.460938 C 7.445312 19.460938 7.296875 19.515625 7.191406 19.621094 C 7.074219 19.734375 7.015625 19.894531 7.015625 20.101562 C 7.015625 20.285156 7.0625 20.433594 7.167969 20.542969 C 7.273438 20.660156 7.417969 20.71875 7.597656 20.71875 C 7.78125 20.71875 7.921875 20.660156 8.03125 20.542969 C 8.140625 20.429688 8.191406 20.277344 8.191406 20.082031 C 8.191406 19.886719 8.140625 19.738281 8.042969 19.625 C 7.9375 19.515625 7.800781 19.460938 7.625 19.460938 Z M 7.996094 20.089844 C 7.996094 20.238281 7.964844 20.351562 7.898438 20.429688 C 7.835938 20.511719 7.738281 20.550781 7.613281 20.550781 C 7.488281 20.550781 7.394531 20.511719 7.320312 20.429688 C 7.246094 20.347656 7.214844 20.238281 7.214844 20.089844 C 7.214844 19.9375 7.25 19.820312 7.328125 19.738281 C 7.402344 19.660156 7.496094 19.621094 7.617188 19.621094 C 7.734375 19.621094 7.832031 19.660156 7.898438 19.738281 C 7.960938 19.824219 7.996094 19.9375 7.996094 20.089844 Z M 8.515625 20.691406 L 8.707031 20.691406 L 8.707031 19.652344 L 8.988281 19.652344 L 8.988281 19.492188 L 8.707031 19.492188 L 8.707031 19.308594 C 8.707031 19.140625 8.769531 19.054688 8.90625 19.054688 C 8.953125 19.054688 8.996094 19.066406 9.03125 19.085938 L 9.03125 18.914062 C 8.996094 18.898438 8.953125 18.894531 8.894531 18.894531 C 8.789062 18.894531 8.707031 18.925781 8.636719 18.988281 C 8.554688 19.066406 8.511719 19.167969 8.511719 19.300781 L 8.511719 19.496094 L 8.3125 19.496094 L 8.3125 19.660156 L 8.511719 19.660156 L 8.511719 20.691406 Z M 9.300781 20.363281 C 9.300781 20.597656 9.40625 20.71875 9.617188 20.71875 C 9.691406 20.71875 9.75 20.703125 9.796875 20.675781 L 9.796875 20.511719 C 9.761719 20.539062 9.71875 20.550781 9.671875 20.550781 C 9.609375 20.550781 9.5625 20.535156 9.535156 20.5 C 9.507812 20.46875 9.492188 20.410156 9.492188 20.328125 L 9.492188 19.652344 L 9.796875 19.652344 L 9.796875 19.492188 L 9.492188 19.492188 L 9.492188 19.140625 C 9.425781 19.164062 9.363281 19.179688 9.300781 19.199219 L 9.300781 19.492188 L 9.09375 19.492188 L 9.09375 19.652344 L 9.300781 19.652344 Z M 29.902344 22.570312 C 29.835938 22.507812 29.757812 22.476562 29.664062 22.476562 C 29.566406 22.476562 29.488281 22.507812 29.421875 22.574219 C 29.355469 22.640625 29.324219 22.71875 29.324219 22.8125 C 29.324219 22.910156 29.355469 22.988281 29.421875 23.050781 C 29.484375 23.113281 29.566406 23.144531 29.664062 23.144531 C 29.757812 23.144531 29.839844 23.113281 29.90625 23.046875 C 29.96875 22.980469 30.003906 22.90625 30.003906 22.808594 C 30 22.710938 29.964844 22.632812 29.902344 22.570312 Z M 29.871094 23.023438 C 29.8125 23.082031 29.742188 23.109375 29.660156 23.109375 C 29.574219 23.109375 29.507812 23.082031 29.449219 23.023438 C 29.390625 22.964844 29.359375 22.894531 29.359375 22.808594 C 29.359375 22.726562 29.386719 22.65625 29.445312 22.597656 C 29.5 22.539062 29.570312 22.511719 29.660156 22.511719 C 29.742188 22.511719 29.8125 22.539062 29.871094 22.597656 C 29.925781 22.65625 29.957031 22.726562 29.957031 22.808594 C 29.957031 22.898438 29.933594 22.964844 29.871094 23.023438 Z M 29.699219 22.828125 C 29.730469 22.820312 29.757812 22.804688 29.777344 22.785156 C 29.796875 22.765625 29.804688 22.738281 29.804688 22.707031 C 29.804688 22.675781 29.792969 22.648438 29.769531 22.628906 C 29.742188 22.605469 29.703125 22.59375 29.648438 22.59375 L 29.523438 22.59375 L 29.523438 23.023438 L 29.585938 23.023438 L 29.585938 22.84375 L 29.625 22.84375 C 29.652344 22.84375 29.675781 22.871094 29.703125 22.917969 L 29.746094 23.023438 L 29.820312 23.023438 L 29.761719 22.90625 C 29.742188 22.859375 29.71875 22.835938 29.695312 22.828125 Z M 29.65625 22.789062 L 29.589844 22.789062 L 29.589844 22.644531 L 29.644531 22.644531 C 29.683594 22.644531 29.707031 22.652344 29.722656 22.664062 C 29.738281 22.675781 29.742188 22.691406 29.742188 22.71875 C 29.742188 22.765625 29.710938 22.789062 29.65625 22.789062 Z M 18.945312 19.441406 L 19 19.441406 L 19 19.011719 L 19.140625 19.011719 L 19.140625 18.960938 L 18.804688 18.960938 L 18.804688 19.011719 L 18.945312 19.011719 Z M 19.273438 19.121094 C 19.273438 19.078125 19.273438 19.042969 19.269531 19.023438 C 19.273438 19.046875 19.28125 19.0625 19.285156 19.074219 L 19.449219 19.441406 L 19.476562 19.441406 L 19.640625 19.070312 C 19.644531 19.058594 19.648438 19.042969 19.65625 19.023438 C 19.652344 19.0625 19.652344 19.09375 19.652344 19.117188 L 19.652344 19.441406 L 19.710938 19.441406 L 19.710938 18.960938 L 19.640625 18.960938 L 19.492188 19.292969 C 19.488281 19.304688 19.476562 19.328125 19.46875 19.355469 L 19.464844 19.355469 C 19.460938 19.339844 19.453125 19.324219 19.441406 19.296875 L 19.292969 18.960938 L 19.214844 18.960938 L 19.214844 19.445312 L 19.269531 19.445312 L 19.269531 19.121094 Z M 19.273438 19.121094 "/>
</g>
</svg>
