<?xml version="1.0" encoding="UTF-8"?>
<svg xmlns="http://www.w3.org/2000/svg" xmlns:xlink="http://www.w3.org/1999/xlink" width="30px" height="30px" viewBox="0 0 30 30" version="1.1">
<g id="surface1">
<path style=" stroke:none;fill-rule:evenodd;fill:rgb(58.039216%,47.45098%,36.470588%);fill-opacity:1;" d="M 20.453125 23.46875 C 20.492188 23.394531 20.527344 23.328125 20.5625 23.257812 C 20.582031 23.210938 20.613281 23.203125 20.65625 23.203125 C 20.921875 23.210938 21.1875 23.21875 21.453125 23.222656 C 21.679688 23.226562 21.90625 23.222656 22.132812 23.21875 C 22.386719 23.214844 22.640625 23.203125 22.894531 23.210938 C 23.234375 23.21875 23.5625 23.285156 23.871094 23.4375 C 24.234375 23.617188 24.511719 23.890625 24.703125 24.253906 C 24.820312 24.484375 24.890625 24.726562 24.917969 24.988281 C 24.960938 25.367188 24.933594 25.734375 24.8125 26.09375 C 24.667969 26.539062 24.386719 26.882812 23.992188 27.140625 C 23.695312 27.335938 23.363281 27.453125 23.011719 27.519531 C 22.636719 27.589844 22.261719 27.566406 21.886719 27.566406 C 21.472656 27.570312 21.0625 27.5625 20.652344 27.554688 C 20.578125 27.554688 20.570312 27.542969 20.589844 27.472656 L 20.605469 27.410156 C 20.644531 27.285156 20.667969 27.277344 20.796875 27.257812 C 20.882812 27.242188 20.976562 27.210938 21.050781 27.160156 C 21.09375 27.132812 21.109375 27.058594 21.128906 27 C 21.140625 26.949219 21.144531 26.894531 21.144531 26.839844 C 21.148438 26.039062 21.15625 25.234375 21.160156 24.433594 C 21.160156 24.230469 21.15625 24.027344 21.144531 23.824219 C 21.136719 23.683594 21.058594 23.585938 20.890625 23.554688 C 20.757812 23.527344 20.628906 23.507812 20.496094 23.484375 Z M 24.21875 25.414062 C 24.203125 25.253906 24.191406 25.09375 24.164062 24.933594 C 24.09375 24.558594 23.929688 24.226562 23.640625 23.96875 C 23.167969 23.554688 22.605469 23.488281 22.011719 23.539062 C 21.875 23.550781 21.847656 23.59375 21.84375 23.734375 C 21.839844 23.929688 21.839844 24.128906 21.839844 24.324219 C 21.835938 24.949219 21.835938 25.574219 21.839844 26.199219 C 21.839844 26.375 21.839844 26.554688 21.84375 26.730469 C 21.851562 26.914062 21.917969 27.066406 22.09375 27.136719 C 22.375 27.246094 22.667969 27.261719 22.964844 27.214844 C 23.433594 27.144531 23.761719 26.871094 23.980469 26.460938 C 24.15625 26.132812 24.203125 25.777344 24.21875 25.414062 Z M 25.359375 27.539062 C 25.355469 27.441406 25.394531 27.363281 25.445312 27.289062 C 25.457031 27.269531 25.503906 27.269531 25.535156 27.261719 L 25.804688 27.210938 C 25.898438 27.191406 25.949219 27.125 25.960938 27.03125 C 25.96875 26.972656 25.980469 26.910156 25.980469 26.847656 C 25.984375 26.355469 25.992188 25.863281 25.992188 25.371094 C 25.996094 24.878906 25.992188 24.386719 25.992188 23.894531 L 25.992188 23.800781 C 25.980469 23.644531 25.90625 23.5625 25.75 23.539062 L 25.40625 23.488281 C 25.367188 23.480469 25.351562 23.460938 25.367188 23.425781 C 25.390625 23.359375 25.417969 23.292969 25.453125 23.238281 C 25.46875 23.214844 25.515625 23.207031 25.546875 23.207031 C 25.710938 23.210938 25.871094 23.222656 26.035156 23.222656 L 27.449219 23.214844 C 27.722656 23.214844 27.988281 23.261719 28.230469 23.390625 C 28.5 23.535156 28.652344 23.757812 28.695312 24.058594 C 28.738281 24.378906 28.644531 24.644531 28.410156 24.859375 C 28.316406 24.945312 28.191406 25.003906 28.082031 25.074219 L 28.046875 25.097656 C 28.148438 25.132812 28.246094 25.167969 28.339844 25.207031 C 28.621094 25.320312 28.839844 25.5 28.957031 25.78125 C 29.050781 26.007812 29.050781 26.242188 28.996094 26.476562 C 28.910156 26.839844 28.671875 27.082031 28.359375 27.265625 C 28.066406 27.4375 27.746094 27.539062 27.410156 27.554688 C 27.097656 27.570312 26.785156 27.566406 26.472656 27.570312 L 26.289062 27.570312 C 25.988281 27.5625 25.6875 27.554688 25.386719 27.546875 Z M 26.65625 26.113281 L 26.660156 26.113281 C 26.660156 26.265625 26.660156 26.421875 26.660156 26.574219 C 26.664062 26.675781 26.660156 26.777344 26.683594 26.875 C 26.714844 27.015625 26.78125 27.148438 26.941406 27.1875 C 27.160156 27.246094 27.382812 27.253906 27.601562 27.21875 C 27.878906 27.167969 28.097656 27.03125 28.21875 26.769531 C 28.308594 26.574219 28.320312 26.367188 28.289062 26.15625 C 28.25 25.875 28.101562 25.675781 27.855469 25.542969 C 27.695312 25.453125 27.523438 25.402344 27.339844 25.394531 C 27.132812 25.386719 26.929688 25.386719 26.722656 25.378906 C 26.664062 25.378906 26.65625 25.40625 26.65625 25.457031 C 26.660156 25.675781 26.65625 25.894531 26.65625 26.113281 Z M 27.09375 25.0625 C 27.207031 25.058594 27.335938 25.054688 27.460938 25.042969 C 27.703125 25.019531 27.875 24.898438 27.960938 24.667969 C 28.007812 24.550781 28.003906 24.429688 28.007812 24.304688 C 28.011719 23.988281 27.824219 23.726562 27.523438 23.621094 C 27.289062 23.535156 27.046875 23.535156 26.808594 23.542969 C 26.707031 23.542969 26.664062 23.585938 26.664062 23.6875 L 26.648438 24.972656 C 26.648438 25.023438 26.671875 25.046875 26.71875 25.046875 Z M 27.09375 25.0625 "/>
<path style=" stroke:none;fill-rule:evenodd;fill:rgb(31.372549%,21.960784%,16.862745%);fill-opacity:1;" d="M 2.472656 27.292969 L 2.453125 27.515625 C 2.292969 27.515625 2.148438 27.511719 2 27.515625 C 1.722656 27.515625 1.445312 27.523438 1.171875 27.527344 L 1.144531 27.527344 C 1.105469 27.523438 1.03125 27.523438 1.03125 27.511719 C 1.019531 27.445312 1.023438 27.375 1.023438 27.308594 C 1.023438 27.300781 1.050781 27.289062 1.066406 27.285156 L 1.28125 27.238281 C 1.417969 27.203125 1.464844 27.144531 1.472656 27.007812 C 1.476562 26.851562 1.484375 26.695312 1.488281 26.539062 C 1.488281 26.152344 1.484375 25.769531 1.488281 25.382812 C 1.488281 25.292969 1.457031 25.226562 1.371094 25.191406 C 1.273438 25.144531 1.171875 25.101562 1.070312 25.0625 C 1.023438 25.042969 0.960938 25.03125 0.96875 24.96875 C 0.972656 24.902344 1.035156 24.886719 1.089844 24.871094 C 1.324219 24.820312 1.558594 24.765625 1.792969 24.710938 C 1.871094 24.691406 1.941406 24.660156 2.03125 24.628906 C 2.035156 24.675781 2.046875 24.722656 2.042969 24.769531 L 2.03125 24.992188 C 2.03125 25.015625 2.042969 25.046875 2.0625 25.0625 C 2.074219 25.070312 2.109375 25.054688 2.128906 25.039062 C 2.328125 24.886719 2.542969 24.757812 2.78125 24.679688 C 3.15625 24.5625 3.480469 24.671875 3.703125 24.996094 C 3.78125 25.109375 3.785156 25.109375 3.894531 25.027344 C 4.082031 24.890625 4.277344 24.769531 4.5 24.691406 C 4.984375 24.515625 5.449219 24.738281 5.617188 25.226562 C 5.679688 25.402344 5.703125 25.585938 5.703125 25.773438 L 5.699219 27.015625 C 5.699219 27.117188 5.734375 27.175781 5.828125 27.207031 C 5.941406 27.242188 6.054688 27.269531 6.175781 27.300781 L 6.148438 27.515625 C 6.007812 27.515625 5.878906 27.511719 5.75 27.515625 C 5.433594 27.515625 5.121094 27.519531 4.804688 27.527344 C 4.75 27.527344 4.734375 27.515625 4.734375 27.460938 C 4.722656 27.296875 4.722656 27.296875 4.878906 27.261719 L 4.929688 27.246094 C 5.082031 27.207031 5.128906 27.160156 5.132812 27.007812 C 5.136719 26.566406 5.144531 26.125 5.121094 25.6875 C 5.097656 25.230469 4.738281 24.988281 4.296875 25.105469 C 4.152344 25.144531 4.019531 25.210938 3.898438 25.296875 C 3.859375 25.324219 3.851562 25.359375 3.855469 25.410156 C 3.867188 25.605469 3.875 25.796875 3.875 25.992188 C 3.878906 26.332031 3.875 26.671875 3.875 27.011719 C 3.875 27.152344 3.921875 27.203125 4.058594 27.234375 L 4.261719 27.28125 L 4.300781 27.289062 C 4.300781 27.355469 4.304688 27.421875 4.300781 27.484375 C 4.300781 27.523438 4.269531 27.527344 4.234375 27.527344 C 4.035156 27.523438 3.839844 27.515625 3.644531 27.515625 C 3.402344 27.515625 3.164062 27.523438 2.925781 27.527344 L 2.871094 27.527344 C 2.871094 27.460938 2.867188 27.394531 2.871094 27.328125 C 2.875 27.3125 2.902344 27.292969 2.917969 27.285156 L 3.15625 27.234375 C 3.253906 27.210938 3.304688 27.160156 3.308594 27.058594 C 3.335938 26.585938 3.355469 26.117188 3.3125 25.644531 C 3.300781 25.554688 3.273438 25.460938 3.234375 25.378906 C 3.113281 25.109375 2.84375 25 2.527344 25.078125 C 2.378906 25.117188 2.246094 25.183594 2.117188 25.269531 C 2.058594 25.3125 2.03125 25.367188 2.03125 25.433594 C 2.03125 25.902344 2.03125 26.375 2.03125 26.84375 L 2.035156 27.023438 C 2.039062 27.152344 2.09375 27.21875 2.21875 27.246094 C 2.296875 27.261719 2.378906 27.277344 2.472656 27.292969 Z M 2.472656 27.292969 "/>
<path style=" stroke:none;fill-rule:evenodd;fill:rgb(30.980392%,21.960784%,16.862745%);fill-opacity:1;" d="M 16.640625 24.675781 C 16.675781 24.851562 16.675781 25.011719 16.546875 25.132812 C 16.417969 25.253906 16.253906 25.210938 16.09375 25.183594 C 16.109375 25.269531 16.125 25.339844 16.132812 25.414062 C 16.191406 25.949219 15.960938 26.347656 15.464844 26.574219 C 15.277344 26.660156 15.078125 26.691406 14.871094 26.707031 C 14.773438 26.714844 14.683594 26.792969 14.671875 26.878906 C 14.664062 26.960938 14.714844 27.046875 14.824219 27.074219 C 14.949219 27.101562 15.078125 27.113281 15.207031 27.125 C 15.480469 27.15625 15.757812 27.171875 16.03125 27.222656 C 16.441406 27.296875 16.671875 27.65625 16.597656 28.066406 C 16.535156 28.433594 16.320312 28.703125 16.027344 28.90625 C 15.527344 29.253906 14.976562 29.355469 14.394531 29.179688 C 14.058594 29.078125 13.824219 28.855469 13.742188 28.503906 C 13.703125 28.324219 13.746094 28.164062 13.878906 28.042969 C 14.039062 27.898438 14.210938 27.773438 14.378906 27.636719 L 14.429688 27.582031 L 14.371094 27.539062 C 14.199219 27.457031 14.0625 27.347656 14.011719 27.15625 C 13.992188 27.09375 14.011719 27.050781 14.066406 27.015625 C 14.160156 26.960938 14.253906 26.902344 14.347656 26.84375 C 14.390625 26.816406 14.433594 26.789062 14.472656 26.757812 C 14.527344 26.714844 14.523438 26.683594 14.457031 26.660156 C 14.304688 26.601562 14.167969 26.519531 14.0625 26.394531 C 13.882812 26.183594 13.835938 25.929688 13.847656 25.664062 C 13.871094 25.25 14.097656 24.976562 14.464844 24.800781 C 14.898438 24.59375 15.335938 24.578125 15.777344 24.769531 C 15.941406 24.839844 16.117188 24.855469 16.292969 24.84375 C 16.421875 24.832031 16.539062 24.785156 16.640625 24.675781 Z M 15.035156 27.648438 C 14.710938 27.644531 14.609375 27.6875 14.417969 27.882812 C 14.203125 28.101562 14.203125 28.402344 14.417969 28.625 C 14.578125 28.789062 14.78125 28.867188 15.007812 28.890625 C 15.273438 28.917969 15.53125 28.90625 15.769531 28.777344 C 16.027344 28.632812 16.152344 28.371094 16.097656 28.109375 C 16.046875 27.890625 15.886719 27.789062 15.691406 27.730469 C 15.46875 27.667969 15.238281 27.65625 15.035156 27.648438 Z M 14.394531 25.558594 C 14.40625 25.652344 14.414062 25.742188 14.433594 25.832031 C 14.484375 26.0625 14.585938 26.265625 14.8125 26.367188 C 15.082031 26.488281 15.425781 26.4375 15.542969 26.058594 C 15.625 25.800781 15.613281 25.542969 15.515625 25.289062 C 15.472656 25.179688 15.402344 25.082031 15.304688 25.011719 C 15.070312 24.851562 14.648438 24.828125 14.476562 25.1875 C 14.421875 25.304688 14.398438 25.429688 14.394531 25.558594 Z M 14.394531 25.558594 "/>
<path style=" stroke:none;fill-rule:evenodd;fill:rgb(30.980392%,21.568627%,16.862745%);fill-opacity:1;" d="M 11.097656 24.617188 C 11.105469 24.660156 11.125 24.703125 11.125 24.75 C 11.125 24.835938 11.117188 24.921875 11.109375 25.011719 L 11.109375 25.085938 L 11.183594 25.03125 C 11.386719 24.863281 11.601562 24.722656 11.855469 24.644531 C 12.308594 24.507812 12.765625 24.757812 12.914062 25.222656 C 12.96875 25.398438 12.992188 25.578125 12.992188 25.761719 C 12.996094 26.171875 13 26.582031 13.003906 26.992188 C 13.007812 27.136719 13.023438 27.164062 13.164062 27.207031 C 13.242188 27.230469 13.324219 27.246094 13.402344 27.261719 C 13.449219 27.265625 13.46875 27.285156 13.464844 27.328125 L 13.464844 27.367188 C 13.464844 27.539062 13.453125 27.546875 13.289062 27.546875 C 12.894531 27.546875 12.5 27.546875 12.109375 27.550781 C 11.992188 27.550781 11.992188 27.554688 11.980469 27.441406 L 11.976562 27.371094 C 11.984375 27.273438 11.988281 27.273438 12.085938 27.257812 C 12.152344 27.25 12.214844 27.234375 12.28125 27.21875 C 12.347656 27.199219 12.378906 27.152344 12.386719 27.085938 C 12.390625 27.050781 12.398438 27.019531 12.398438 26.984375 C 12.390625 26.539062 12.398438 26.089844 12.375 25.644531 C 12.355469 25.285156 12.082031 25.066406 11.71875 25.09375 C 11.539062 25.105469 11.378906 25.164062 11.230469 25.265625 C 11.136719 25.335938 11.117188 25.433594 11.117188 25.539062 C 11.117188 25.957031 11.121094 26.375 11.125 26.792969 C 11.128906 26.882812 11.128906 26.976562 11.140625 27.066406 C 11.148438 27.164062 11.183594 27.207031 11.28125 27.226562 C 11.375 27.25 11.46875 27.261719 11.570312 27.277344 L 11.578125 27.355469 C 11.582031 27.53125 11.5625 27.546875 11.386719 27.546875 C 10.980469 27.542969 10.574219 27.546875 10.167969 27.550781 C 10.105469 27.550781 10.078125 27.53125 10.078125 27.46875 L 10.078125 27.441406 C 10.066406 27.28125 10.070312 27.273438 10.222656 27.25 L 10.296875 27.234375 C 10.460938 27.195312 10.503906 27.152344 10.507812 26.984375 C 10.515625 26.453125 10.515625 25.921875 10.523438 25.386719 C 10.523438 25.3125 10.496094 25.253906 10.421875 25.222656 C 10.324219 25.175781 10.222656 25.136719 10.121094 25.09375 C 10.066406 25.070312 10 25.054688 10 24.980469 C 10 24.925781 10.054688 24.875 10.136719 24.859375 C 10.296875 24.828125 10.457031 24.800781 10.613281 24.761719 C 10.769531 24.722656 10.925781 24.667969 11.097656 24.617188 Z M 11.097656 24.617188 "/>
<path style=" stroke:none;fill-rule:evenodd;fill:rgb(30.980392%,21.960784%,16.862745%);fill-opacity:1;" d="M 19.890625 26.007812 C 19.882812 26.503906 19.753906 26.90625 19.402344 27.210938 C 18.957031 27.59375 18.261719 27.722656 17.695312 27.4375 C 17.453125 27.3125 17.273438 27.125 17.15625 26.882812 C 16.980469 26.507812 16.933594 26.117188 17.027344 25.714844 C 17.121094 25.316406 17.359375 25.027344 17.722656 24.839844 C 18.09375 24.648438 18.484375 24.574219 18.894531 24.675781 C 19.417969 24.800781 19.792969 25.226562 19.867188 25.769531 C 19.878906 25.863281 19.886719 25.960938 19.890625 26.007812 Z M 19.285156 26.277344 L 19.265625 26.277344 C 19.265625 26.230469 19.269531 26.183594 19.265625 26.136719 C 19.25 25.84375 19.183594 25.566406 19.015625 25.320312 C 18.851562 25.089844 18.632812 24.953125 18.351562 24.933594 C 18.03125 24.910156 17.765625 25.085938 17.667969 25.414062 C 17.527344 25.902344 17.578125 26.378906 17.824219 26.824219 C 17.933594 27.019531 18.09375 27.164062 18.308594 27.238281 C 18.726562 27.386719 19.101562 27.195312 19.210938 26.765625 C 19.25 26.605469 19.261719 26.441406 19.285156 26.277344 Z M 19.285156 26.277344 "/>
<path style=" stroke:none;fill-rule:evenodd;fill:rgb(30.980392%,21.568627%,16.862745%);fill-opacity:1;" d="M 9.566406 26.046875 C 9.558594 26.402344 9.472656 26.734375 9.253906 27.019531 C 9.019531 27.328125 8.695312 27.492188 8.324219 27.558594 C 7.886719 27.640625 7.480469 27.566406 7.128906 27.273438 C 6.960938 27.136719 6.847656 26.957031 6.773438 26.753906 C 6.648438 26.421875 6.621094 26.082031 6.695312 25.734375 C 6.777344 25.359375 6.984375 25.078125 7.3125 24.886719 C 7.6875 24.667969 8.09375 24.566406 8.527344 24.667969 C 9.085938 24.792969 9.40625 25.15625 9.527344 25.707031 C 9.550781 25.820312 9.554688 25.933594 9.566406 26.046875 Z M 8.957031 26.28125 L 8.941406 26.28125 L 8.941406 26.214844 C 8.929688 25.886719 8.867188 25.574219 8.671875 25.300781 C 8.527344 25.101562 8.332031 24.972656 8.085938 24.9375 C 7.679688 24.878906 7.417969 25.121094 7.328125 25.445312 C 7.214844 25.871094 7.25 26.292969 7.425781 26.695312 C 7.539062 26.949219 7.710938 27.144531 7.980469 27.238281 C 8.398438 27.386719 8.777344 27.191406 8.882812 26.761719 C 8.921875 26.605469 8.933594 26.441406 8.957031 26.28125 Z M 8.957031 26.28125 "/>
<path style=" stroke:none;fill-rule:evenodd;fill:rgb(26.27451%,60%,20.392157%);fill-opacity:1;" d="M 19.304688 7.863281 C 19.589844 8.691406 19.796875 9.542969 19.867188 10.421875 C 19.949219 11.511719 19.910156 12.597656 19.683594 13.667969 L 19.652344 13.753906 C 19.582031 13.753906 19.507812 13.746094 19.4375 13.757812 C 18.839844 13.851562 18.246094 13.949219 17.648438 14.042969 C 17.035156 14.144531 16.417969 14.242188 15.804688 14.347656 C 15.585938 14.382812 15.316406 14.339844 15.226562 14.640625 L 15.183594 14.65625 L 15.214844 12.855469 L 15.183594 8.511719 L 15.472656 8.464844 C 15.941406 8.386719 16.410156 8.308594 16.878906 8.234375 C 17.441406 8.144531 18 8.058594 18.5625 7.972656 C 18.808594 7.933594 19.054688 7.898438 19.304688 7.863281 Z M 19.304688 7.863281 "/>
<path style=" stroke:none;fill-rule:evenodd;fill:rgb(27.058824%,64.705882%,21.960784%);fill-opacity:1;" d="M 14.59375 19.902344 C 14.289062 19.640625 13.976562 19.390625 13.6875 19.117188 C 12.128906 17.648438 10.984375 15.914062 10.421875 13.824219 C 10.269531 13.25 10.164062 12.664062 10.132812 12.070312 C 10.109375 11.65625 10.074219 11.238281 10.105469 10.824219 C 10.183594 9.722656 10.34375 8.632812 10.664062 7.574219 L 10.683594 7.550781 C 10.714844 7.589844 10.757812 7.628906 10.773438 7.675781 C 11.089844 8.601562 11.402344 9.53125 11.714844 10.460938 C 12.691406 13.378906 13.664062 16.296875 14.644531 19.214844 C 14.664062 19.273438 14.714844 19.316406 14.75 19.371094 Z M 14.59375 19.902344 "/>
<path style=" stroke:none;fill-rule:evenodd;fill:rgb(27.45098%,62.745098%,21.568627%);fill-opacity:1;" d="M 19.304688 7.863281 C 19.054688 7.898438 18.808594 7.933594 18.5625 7.972656 C 18 8.058594 17.441406 8.144531 16.878906 8.234375 C 16.410156 8.308594 15.941406 8.386719 15.472656 8.464844 L 15.183594 8.511719 L 15.183594 8.324219 C 15.171875 8.171875 15.15625 8.019531 15.15625 7.863281 L 15.121094 4.921875 C 15.117188 4.308594 15.105469 3.695312 15.089844 3.082031 C 15.082031 2.699219 15.074219 2.320312 15.058594 1.9375 C 15.050781 1.734375 15.015625 1.527344 15.003906 1.324219 C 14.996094 1.207031 15.003906 1.089844 15.007812 0.96875 C 15.15625 1.253906 15.296875 1.539062 15.449219 1.820312 C 15.683594 2.265625 16.0625 2.59375 16.40625 2.949219 C 17.75 4.363281 18.707031 6.007812 19.304688 7.863281 Z M 19.304688 7.863281 "/>
<path style=" stroke:none;fill-rule:evenodd;fill:rgb(25.098039%,58.039216%,20%);fill-opacity:1;" d="M 15.1875 14.65625 L 15.226562 14.640625 C 15.316406 14.339844 15.585938 14.382812 15.804688 14.347656 C 16.417969 14.242188 17.035156 14.144531 17.648438 14.042969 C 18.246094 13.949219 18.839844 13.851562 19.4375 13.757812 C 19.507812 13.746094 19.582031 13.753906 19.652344 13.753906 C 19.542969 14.152344 19.453125 14.558594 19.3125 14.945312 C 19.152344 15.382812 18.957031 15.8125 18.75 16.230469 C 18.445312 16.859375 18.058594 17.441406 17.613281 17.980469 C 17.269531 18.390625 16.886719 18.773438 16.503906 19.152344 C 16.292969 19.359375 16.042969 19.53125 15.808594 19.71875 L 15.75 19.675781 L 15.53125 19.492188 L 15.304688 18.996094 C 15.152344 18.421875 15.070312 17.832031 15.058594 17.234375 L 15.0625 17.136719 L 15.089844 16.699219 C 15.101562 16.550781 15.117188 16.40625 15.121094 16.257812 C 15.144531 15.722656 15.164062 15.1875 15.1875 14.65625 Z M 15.1875 14.65625 "/>
<path style=" stroke:none;fill-rule:evenodd;fill:rgb(30.980392%,66.666667%,25.490196%);fill-opacity:1;" d="M 15.1875 14.65625 C 15.164062 15.1875 15.144531 15.722656 15.121094 16.257812 C 15.117188 16.40625 15.101562 16.554688 15.089844 16.703125 L 14.953125 16.753906 C 14.652344 15.859375 14.347656 14.972656 14.046875 14.082031 C 13.554688 12.613281 13.070312 11.140625 12.578125 9.671875 C 12.179688 8.484375 11.78125 7.300781 11.378906 6.113281 C 11.359375 6.058594 11.304688 6.015625 11.269531 5.964844 L 12.144531 4.355469 C 12.175781 4.40625 12.214844 4.457031 12.234375 4.511719 C 12.640625 5.710938 13.042969 6.914062 13.445312 8.113281 C 13.96875 9.675781 14.484375 11.242188 15.007812 12.804688 C 15.027344 12.867188 15.0625 12.925781 15.09375 12.996094 L 15.214844 12.855469 C 15.207031 13.457031 15.195312 14.054688 15.1875 14.65625 Z M 15.1875 14.65625 "/>
<path style=" stroke:none;fill-rule:evenodd;fill:rgb(29.019608%,65.490196%,23.529412%);fill-opacity:1;" d="M 11.269531 5.964844 C 11.304688 6.015625 11.359375 6.058594 11.378906 6.113281 C 11.78125 7.300781 12.179688 8.484375 12.578125 9.671875 C 13.070312 11.140625 13.554688 12.613281 14.046875 14.082031 C 14.347656 14.972656 14.648438 15.859375 14.953125 16.753906 L 15.089844 16.703125 L 15.0625 17.136719 L 15.03125 17.234375 C 14.984375 17.710938 14.945312 18.1875 14.886719 18.664062 C 14.859375 18.902344 14.796875 19.132812 14.75 19.371094 C 14.714844 19.316406 14.664062 19.273438 14.644531 19.214844 C 13.664062 16.296875 12.691406 13.378906 11.710938 10.460938 C 11.402344 9.53125 11.089844 8.601562 10.773438 7.675781 C 10.757812 7.628906 10.714844 7.589844 10.683594 7.550781 Z M 11.269531 5.964844 "/>
<path style=" stroke:none;fill-rule:evenodd;fill:rgb(34.117647%,68.235294%,27.843137%);fill-opacity:1;" d="M 15.214844 12.855469 L 15.09375 12.996094 C 15.0625 12.925781 15.027344 12.867188 15.007812 12.804688 C 14.484375 11.242188 13.96875 9.675781 13.445312 8.113281 C 13.042969 6.914062 12.640625 5.710938 12.234375 4.511719 C 12.214844 4.457031 12.175781 4.40625 12.144531 4.355469 L 13.226562 2.929688 C 13.261719 2.972656 13.3125 3.015625 13.328125 3.066406 C 13.628906 3.949219 13.929688 4.828125 14.226562 5.710938 C 14.5 6.535156 14.773438 7.363281 15.054688 8.183594 C 15.074219 8.242188 15.140625 8.277344 15.183594 8.324219 L 15.183594 8.511719 Z M 15.214844 12.855469 "/>
<path style=" stroke:none;fill-rule:evenodd;fill:rgb(37.647059%,69.803922%,30.980392%);fill-opacity:1;" d="M 15.183594 8.328125 C 15.140625 8.28125 15.074219 8.242188 15.054688 8.183594 C 14.773438 7.363281 14.5 6.535156 14.226562 5.710938 C 13.929688 4.828125 13.628906 3.949219 13.328125 3.066406 C 13.3125 3.015625 13.261719 2.972656 13.226562 2.929688 C 13.582031 2.582031 13.921875 2.226562 14.289062 1.898438 C 14.613281 1.605469 14.878906 1.289062 14.890625 0.828125 L 14.914062 0.734375 L 15.007812 0.96875 C 15.003906 1.089844 14.996094 1.207031 15.003906 1.324219 C 15.015625 1.527344 15.050781 1.734375 15.058594 1.9375 C 15.074219 2.316406 15.082031 2.699219 15.089844 3.082031 C 15.105469 3.695312 15.113281 4.308594 15.121094 4.921875 L 15.15625 7.863281 C 15.15625 8.019531 15.171875 8.171875 15.183594 8.328125 Z M 15.183594 8.328125 "/>
<path style=" stroke:none;fill-rule:evenodd;fill:rgb(66.27451%,66.666667%,53.333333%);fill-opacity:1;" d="M 14.75 19.371094 C 14.796875 19.132812 14.859375 18.902344 14.886719 18.664062 C 14.945312 18.1875 14.984375 17.710938 15.03125 17.234375 L 15.058594 17.234375 C 15.070312 17.832031 15.152344 18.421875 15.304688 18.996094 C 15.273438 19.039062 15.230469 19.078125 15.214844 19.125 C 15.082031 19.488281 14.960938 19.859375 14.828125 20.226562 C 14.8125 20.277344 14.761719 20.316406 14.726562 20.359375 L 14.59375 19.902344 Z M 14.75 19.371094 "/>
<path style=" stroke:none;fill-rule:evenodd;fill:rgb(71.372549%,70.980392%,59.607843%);fill-opacity:1;" d="M 14.726562 20.359375 C 14.761719 20.316406 14.8125 20.277344 14.828125 20.226562 C 14.960938 19.859375 15.082031 19.492188 15.214844 19.125 C 15.230469 19.078125 15.273438 19.039062 15.304688 18.996094 L 15.53125 19.492188 C 15.488281 19.554688 15.425781 19.609375 15.402344 19.679688 L 14.96875 20.945312 C 14.953125 20.996094 14.890625 21.03125 14.851562 21.074219 Z M 14.726562 20.359375 "/>
<path style=" stroke:none;fill-rule:evenodd;fill:rgb(76.078431%,75.686275%,65.490196%);fill-opacity:1;" d="M 14.851562 21.074219 C 14.890625 21.03125 14.953125 20.996094 14.96875 20.945312 L 15.402344 19.679688 C 15.425781 19.609375 15.488281 19.554688 15.53125 19.492188 L 15.75 19.675781 C 15.644531 19.78125 15.585938 19.898438 15.621094 20.050781 L 15.554688 20.269531 C 15.523438 20.304688 15.480469 20.335938 15.464844 20.378906 C 15.316406 20.808594 15.171875 21.242188 15.019531 21.671875 C 15 21.726562 14.949219 21.769531 14.910156 21.820312 Z M 14.851562 21.074219 "/>
<path style=" stroke:none;fill-rule:evenodd;fill:rgb(80.784314%,80.392157%,71.764706%);fill-opacity:1;" d="M 14.910156 21.816406 C 14.949219 21.769531 15 21.726562 15.019531 21.671875 C 15.171875 21.242188 15.316406 20.808594 15.464844 20.378906 C 15.480469 20.335938 15.523438 20.304688 15.554688 20.269531 L 15.460938 21.261719 C 15.4375 21.289062 15.402344 21.3125 15.390625 21.347656 L 15.089844 22.214844 C 15.066406 22.273438 15.027344 22.328125 14.996094 22.382812 C 14.964844 22.347656 14.914062 22.308594 14.914062 22.273438 C 14.902344 22.121094 14.910156 21.96875 14.910156 21.816406 Z M 14.910156 21.816406 "/>
<path style=" stroke:none;fill-rule:evenodd;fill:rgb(85.882353%,85.490196%,78.039216%);fill-opacity:1;" d="M 14.996094 22.382812 C 15.027344 22.328125 15.066406 22.273438 15.089844 22.214844 L 15.390625 21.347656 C 15.402344 21.3125 15.4375 21.289062 15.464844 21.261719 L 15.464844 21.914062 L 15.246094 22.472656 Z M 14.996094 22.382812 "/>
<path style=" stroke:none;fill-rule:evenodd;fill:rgb(92.156863%,91.372549%,86.27451%);fill-opacity:1;" d="M 15.246094 22.472656 L 15.464844 21.914062 L 15.511719 22.574219 Z M 15.246094 22.472656 "/>
<path style=" stroke:none;fill-rule:evenodd;fill:rgb(80.784314%,80.392157%,71.764706%);fill-opacity:1;" d="M 15.621094 20.050781 C 15.585938 19.898438 15.644531 19.78125 15.75 19.675781 L 15.808594 19.71875 Z M 15.621094 20.050781 "/>
<path style=" stroke:none;fill-rule:evenodd;fill:rgb(30.980392%,66.666667%,25.490196%);fill-opacity:1;" d="M 15.058594 17.238281 L 15.046875 17.234375 L 15.03125 17.234375 L 15.0625 17.136719 Z M 15.058594 17.238281 "/>
</g>
</svg>
