<?xml version="1.0" encoding="UTF-8"?>
<svg xmlns="http://www.w3.org/2000/svg" xmlns:xlink="http://www.w3.org/1999/xlink" width="30px" height="30px" viewBox="0 0 30 30" version="1.1">
<defs>
<filter id="alpha" filterUnits="objectBoundingBox" x="0%" y="0%" width="100%" height="100%">
  <feColorMatrix type="matrix" in="SourceGraphic" values="0 0 0 0 1 0 0 0 0 1 0 0 0 0 1 0 0 0 1 0"/>
</filter>
<mask id="mask0">
  <g filter="url(#alpha)">
<rect x="0" y="0" width="30" height="30" style="fill:rgb(0%,0%,0%);fill-opacity:0.101961;stroke:none;"/>
  </g>
</mask>
<clipPath id="clip1">
  <rect x="0" y="0" width="30" height="30"/>
</clipPath>
<g id="surface5" clip-path="url(#clip1)">
<path style=" stroke:none;fill-rule:nonzero;fill:rgb(100%,100%,100%);fill-opacity:1;" d="M 4.601562 4.21875 C 0.449219 7.921875 -1.316406 13.621094 0.0234375 19.019531 C 1.359375 24.421875 5.578125 28.640625 10.980469 29.976562 C 16.378906 31.316406 22.078125 29.550781 25.78125 25.398438 Z M 4.601562 4.21875 "/>
</g>
</defs>
<g id="surface1">
<path style=" stroke:none;fill-rule:nonzero;fill:rgb(36.078431%,17.647059%,56.862745%);fill-opacity:1;" d="M 30 15 C 30 23.285156 23.285156 30 15 30 C 6.714844 30 0 23.285156 0 15 C 0 6.714844 6.714844 0 15 0 C 23.285156 0 30 6.714844 30 15 Z M 30 15 "/>
<use xlink:href="#surface5" mask="url(#mask0)"/>
<path style=" stroke:none;fill-rule:nonzero;fill:rgb(100%,100%,100%);fill-opacity:1;" d="M 3.46875 17.460938 C 3.292969 17.464844 3.121094 17.390625 3 17.265625 C 2.875 17.140625 2.804688 16.972656 2.808594 16.796875 C 2.804688 16.621094 2.875 16.449219 3 16.328125 C 3.121094 16.195312 3.292969 16.121094 3.46875 16.125 C 3.644531 16.125 3.816406 16.199219 3.9375 16.328125 C 4.0625 16.449219 4.136719 16.617188 4.132812 16.796875 C 4.136719 16.972656 4.066406 17.140625 3.9375 17.265625 C 3.816406 17.390625 3.644531 17.460938 3.46875 17.460938 Z M 3.46875 17.460938 "/>
<path style=" stroke:none;fill-rule:nonzero;fill:rgb(100%,100%,100%);fill-opacity:1;" d="M 12.78125 17.34375 L 11.554688 17.34375 L 7.164062 10.527344 C 7.054688 10.359375 6.960938 10.179688 6.890625 9.992188 L 6.851562 9.992188 C 6.894531 10.382812 6.910156 10.773438 6.898438 11.164062 L 6.898438 17.34375 L 5.902344 17.34375 L 5.902344 8.796875 L 7.199219 8.796875 L 11.476562 15.492188 C 11.652344 15.769531 11.769531 15.960938 11.820312 16.0625 L 11.84375 16.0625 C 11.796875 15.648438 11.777344 15.226562 11.785156 14.808594 L 11.785156 8.796875 L 12.78125 8.796875 Z M 12.78125 17.34375 "/>
<path style=" stroke:none;fill-rule:nonzero;fill:rgb(100%,100%,100%);fill-opacity:1;" d="M 19.542969 17.34375 L 15 17.34375 L 15 8.796875 L 19.332031 8.796875 L 19.332031 9.703125 L 16.023438 9.703125 L 16.023438 12.542969 L 19.105469 12.542969 L 19.105469 13.445312 L 16.023438 13.445312 L 16.023438 16.40625 L 19.546875 16.40625 Z M 19.542969 17.34375 "/>
<path style=" stroke:none;fill-rule:nonzero;fill:rgb(100%,100%,100%);fill-opacity:1;" d="M 26.25 9.703125 L 23.765625 9.703125 L 23.765625 17.34375 L 22.765625 17.34375 L 22.765625 9.703125 L 20.3125 9.703125 L 20.3125 8.796875 L 26.25 8.796875 Z M 26.25 9.703125 "/>
<path style=" stroke:none;fill-rule:nonzero;fill:rgb(94.901961%,94.901961%,94.901961%);fill-opacity:1;" d="M 12.242188 23.15625 C 11.90625 23.320312 11.53125 23.398438 11.15625 23.386719 C 10.652344 23.410156 10.160156 23.210938 9.8125 22.847656 C 9.464844 22.460938 9.285156 21.957031 9.304688 21.441406 C 9.277344 20.875 9.484375 20.324219 9.871094 19.914062 C 10.25 19.523438 10.773438 19.3125 11.316406 19.332031 C 11.636719 19.320312 11.957031 19.375 12.253906 19.496094 L 12.253906 19.964844 C 11.964844 19.804688 11.644531 19.722656 11.316406 19.730469 C 10.898438 19.71875 10.496094 19.890625 10.214844 20.199219 C 9.921875 20.53125 9.769531 20.964844 9.792969 21.40625 C 9.769531 21.828125 9.910156 22.238281 10.1875 22.554688 C 10.453125 22.84375 10.832031 23 11.222656 22.984375 C 11.582031 22.992188 11.9375 22.902344 12.25 22.71875 Z M 12.242188 23.15625 "/>
<path style=" stroke:none;fill-rule:nonzero;fill:rgb(94.901961%,94.901961%,94.901961%);fill-opacity:1;" d="M 14.160156 23.386719 C 13.785156 23.398438 13.417969 23.246094 13.164062 22.96875 C 12.90625 22.683594 12.773438 22.308594 12.792969 21.921875 C 12.769531 21.515625 12.910156 21.117188 13.179688 20.816406 C 13.460938 20.546875 13.839844 20.402344 14.226562 20.417969 C 14.59375 20.398438 14.953125 20.542969 15.207031 20.808594 C 15.457031 21.109375 15.582031 21.492188 15.558594 21.882812 C 15.578125 22.277344 15.441406 22.664062 15.179688 22.960938 C 14.917969 23.242188 14.546875 23.398438 14.160156 23.386719 Z M 14.195312 20.820312 C 13.933594 20.8125 13.679688 20.917969 13.507812 21.117188 C 13.328125 21.347656 13.238281 21.640625 13.257812 21.933594 C 13.238281 22.21875 13.332031 22.5 13.507812 22.71875 C 13.683594 22.914062 13.933594 23.023438 14.195312 23.011719 C 14.449219 23.027344 14.695312 22.921875 14.863281 22.730469 C 15.035156 22.496094 15.117188 22.210938 15.097656 21.921875 C 15.117188 21.632812 15.035156 21.347656 14.863281 21.113281 C 14.699219 20.914062 14.449219 20.808594 14.195312 20.820312 Z M 14.195312 20.820312 "/>
<path style=" stroke:none;fill-rule:nonzero;fill:rgb(94.901961%,94.901961%,94.901961%);fill-opacity:1;" d="M 17.746094 20.960938 C 17.644531 20.894531 17.527344 20.863281 17.40625 20.875 C 17.214844 20.878906 17.039062 20.980469 16.9375 21.144531 C 16.796875 21.367188 16.730469 21.625 16.742188 21.886719 L 16.742188 23.320312 L 16.273438 23.320312 L 16.273438 20.507812 L 16.742188 20.507812 L 16.742188 21.09375 C 16.796875 20.914062 16.898438 20.75 17.039062 20.625 C 17.160156 20.519531 17.316406 20.460938 17.480469 20.460938 C 17.570312 20.457031 17.660156 20.46875 17.746094 20.5 Z M 17.746094 20.960938 "/>
<path style=" stroke:none;fill-rule:nonzero;fill:rgb(94.901961%,94.901961%,94.901961%);fill-opacity:1;" d="M 20.492188 22.03125 L 18.511719 22.03125 C 18.496094 22.292969 18.582031 22.550781 18.75 22.753906 C 18.925781 22.929688 19.167969 23.019531 19.414062 23.007812 C 19.734375 23.003906 20.039062 22.890625 20.289062 22.691406 L 20.289062 23.113281 C 19.996094 23.304688 19.65625 23.398438 19.308594 23.382812 C 18.953125 23.398438 18.609375 23.257812 18.371094 22.996094 C 18.125 22.691406 18.003906 22.308594 18.027344 21.917969 C 18.011719 21.527344 18.144531 21.144531 18.398438 20.851562 C 18.632812 20.578125 18.976562 20.425781 19.335938 20.4375 C 19.660156 20.417969 19.972656 20.550781 20.1875 20.792969 C 20.40625 21.078125 20.511719 21.429688 20.488281 21.789062 Z M 20.023438 21.652344 C 20.035156 21.433594 19.96875 21.21875 19.835938 21.046875 C 19.707031 20.898438 19.519531 20.820312 19.320312 20.832031 C 19.117188 20.828125 18.921875 20.910156 18.78125 21.0625 C 18.628906 21.222656 18.53125 21.433594 18.507812 21.65625 Z M 20.023438 21.652344 "/>
</g>
</svg>
