<?xml version="1.0" encoding="UTF-8"?>
<svg xmlns="http://www.w3.org/2000/svg" xmlns:xlink="http://www.w3.org/1999/xlink" width="30px" height="30px" viewBox="0 0 30 30" version="1.1">
<g id="surface1">
<path style=" stroke:none;fill-rule:nonzero;fill:rgb(10.588235%,50.196078%,89.411765%);fill-opacity:1;" d="M 28.105469 7.113281 L 15.875 7.113281 C 15.390625 7.113281 15 7.507812 15 7.992188 C 15 8.476562 15.390625 8.867188 15.875 8.867188 L 25.5625 8.867188 L 20.191406 13.054688 L 16.34375 10.597656 L 15.40625 12.078125 L 19.773438 14.863281 C 19.914062 14.957031 20.078125 15 20.242188 15 C 20.429688 15 20.621094 14.9375 20.78125 14.816406 L 27.234375 9.78125 L 27.234375 21.132812 L 15.875 21.132812 C 15.390625 21.132812 15 21.527344 15 22.007812 C 15 22.492188 15.390625 22.886719 15.875 22.886719 L 28.105469 22.886719 C 28.589844 22.886719 28.980469 22.492188 28.980469 22.007812 L 28.980469 7.992188 C 28.980469 7.507812 28.589844 7.113281 28.105469 7.113281 Z M 28.105469 7.113281 "/>
<path style=" stroke:none;fill-rule:nonzero;fill:rgb(13.333333%,60%,97.254902%);fill-opacity:1;" d="M 16.429688 2.058594 C 16.230469 1.894531 15.964844 1.820312 15.714844 1.875 L 1.730469 4.503906 C 1.316406 4.578125 1.019531 4.941406 1.019531 5.363281 L 1.019531 24.636719 C 1.019531 25.058594 1.316406 25.421875 1.730469 25.5 L 15.714844 28.128906 C 15.765625 28.136719 15.820312 28.144531 15.875 28.144531 C 16.078125 28.144531 16.273438 28.074219 16.429688 27.941406 C 16.632812 27.773438 16.746094 27.527344 16.746094 27.265625 L 16.746094 2.734375 C 16.746094 2.472656 16.632812 2.226562 16.429688 2.058594 Z M 16.429688 2.058594 "/>
<path style=" stroke:none;fill-rule:nonzero;fill:rgb(98.823529%,98.823529%,98.823529%);fill-opacity:1;" d="M 8.882812 21.132812 C 6.476562 21.132812 4.515625 18.773438 4.515625 15.875 C 4.515625 12.980469 6.476562 10.621094 8.882812 10.621094 C 11.292969 10.621094 13.253906 12.980469 13.253906 15.875 C 13.253906 18.773438 11.292969 21.132812 8.882812 21.132812 Z M 8.882812 12.371094 C 7.4375 12.371094 6.261719 13.945312 6.261719 15.875 C 6.261719 17.808594 7.4375 19.382812 8.882812 19.382812 C 10.328125 19.382812 11.503906 17.808594 11.503906 15.875 C 11.503906 13.945312 10.328125 12.371094 8.882812 12.371094 Z M 8.882812 12.371094 "/>
</g>
</svg>
