<?xml version="1.0" encoding="UTF-8"?>
<svg xmlns="http://www.w3.org/2000/svg" xmlns:xlink="http://www.w3.org/1999/xlink" width="30px" height="30px" viewBox="0 0 30 30" version="1.1">
<defs>
<clipPath id="clip1">
  <path d="M 8 2 L 13 2 L 13 7 L 8 7 Z M 8 2 "/>
</clipPath>
<clipPath id="clip2">
  <path d="M 41.921875 15.058594 C 41.921875 29.941406 29.851562 41.996094 14.980469 41.996094 C 0.109375 41.996094 -11.960938 29.941406 -11.960938 15.058594 C -11.960938 0.171875 0.109375 -11.882812 14.980469 -11.882812 C 29.851562 -11.882812 41.921875 0.171875 41.921875 15.058594 Z M 41.921875 15.058594 "/>
</clipPath>
<clipPath id="clip3">
  <path d="M 0 1 L 23 1 L 23 22 L 0 22 Z M 0 1 "/>
</clipPath>
<clipPath id="clip4">
  <path d="M 41.921875 15.058594 C 41.921875 29.941406 29.851562 41.996094 14.980469 41.996094 C 0.109375 41.996094 -11.960938 29.941406 -11.960938 15.058594 C -11.960938 0.171875 0.109375 -11.882812 14.980469 -11.882812 C 29.851562 -11.882812 41.921875 0.171875 41.921875 15.058594 Z M 41.921875 15.058594 "/>
</clipPath>
<clipPath id="clip5">
  <path d="M 17 23 L 21 23 L 21 28 L 17 28 Z M 17 23 "/>
</clipPath>
<clipPath id="clip6">
  <path d="M 41.921875 15.058594 C 41.921875 29.941406 29.851562 41.996094 14.980469 41.996094 C 0.109375 41.996094 -11.960938 29.941406 -11.960938 15.058594 C -11.960938 0.171875 0.109375 -11.882812 14.980469 -11.882812 C 29.851562 -11.882812 41.921875 0.171875 41.921875 15.058594 Z M 41.921875 15.058594 "/>
</clipPath>
<clipPath id="clip7">
  <path d="M 7 8 L 30 8 L 30 30 L 7 30 Z M 7 8 "/>
</clipPath>
<clipPath id="clip8">
  <path d="M 41.921875 15.058594 C 41.921875 29.941406 29.851562 41.996094 14.980469 41.996094 C 0.109375 41.996094 -11.960938 29.941406 -11.960938 15.058594 C -11.960938 0.171875 0.109375 -11.882812 14.980469 -11.882812 C 29.851562 -11.882812 41.921875 0.171875 41.921875 15.058594 Z M 41.921875 15.058594 "/>
</clipPath>
</defs>
<g id="surface1">
<g clip-path="url(#clip1)" clip-rule="nonzero">
<g clip-path="url(#clip2)" clip-rule="nonzero">
<path style=" stroke:none;fill-rule:nonzero;fill:rgb(97.647059%,97.647059%,97.647059%);fill-opacity:1;" d="M 12.476562 4.496094 C 12.476562 5.464844 11.691406 6.253906 10.722656 6.253906 C 9.75 6.253906 8.964844 5.464844 8.964844 4.496094 C 8.964844 3.527344 9.75 2.738281 10.722656 2.738281 C 11.691406 2.738281 12.476562 3.527344 12.476562 4.496094 M 12.476562 4.496094 "/>
</g>
</g>
<g clip-path="url(#clip3)" clip-rule="nonzero">
<g clip-path="url(#clip4)" clip-rule="nonzero">
<path style=" stroke:none;fill-rule:nonzero;fill:rgb(27.058824%,52.54902%,72.54902%);fill-opacity:1;" d="M 14.8125 1 C 13.652344 1.007812 12.546875 1.105469 11.570312 1.273438 C 8.703125 1.777344 8.179688 2.824219 8.179688 4.761719 L 8.179688 7.320312 L 14.960938 7.320312 L 14.960938 8.171875 L 5.636719 8.171875 C 3.664062 8.171875 1.941406 9.34375 1.398438 11.570312 C 0.777344 14.125 0.746094 15.722656 1.398438 18.382812 C 1.878906 20.367188 3.027344 21.78125 5 21.78125 L 6.996094 21.78125 L 6.996094 18.386719 C 6.996094 16.179688 8.933594 14.238281 11.238281 14.238281 L 18.335938 14.238281 C 20.21875 14.238281 22.003906 12.699219 22.003906 10.828125 L 22.003906 4.777344 C 22.003906 2.960938 20.179688 1.589844 18.335938 1.289062 C 17.171875 1.097656 15.964844 1.011719 14.808594 1.015625 M 11.144531 3.054688 C 11.84375 3.054688 12.414062 3.632812 12.414062 4.339844 C 12.414062 5.046875 11.84375 5.613281 11.144531 5.613281 C 10.4375 5.613281 9.867188 5.046875 9.867188 4.339844 C 9.867188 3.632812 10.433594 3.054688 11.144531 3.054688 M 11.144531 3.054688 "/>
</g>
</g>
<g clip-path="url(#clip5)" clip-rule="nonzero">
<g clip-path="url(#clip6)" clip-rule="nonzero">
<path style=" stroke:none;fill-rule:nonzero;fill:rgb(97.647059%,97.647059%,97.647059%);fill-opacity:1;" d="M 20.683594 25.578125 C 20.683594 26.550781 19.894531 27.335938 18.925781 27.335938 C 17.949219 27.335938 17.164062 26.550781 17.164062 25.578125 C 17.164062 24.609375 17.949219 23.824219 18.925781 23.824219 C 19.894531 23.824219 20.683594 24.609375 20.683594 25.578125 M 20.683594 25.578125 "/>
</g>
</g>
<g clip-path="url(#clip7)" clip-rule="nonzero">
<g clip-path="url(#clip8)" clip-rule="nonzero">
<path style=" stroke:none;fill-rule:nonzero;fill:rgb(100%,90.196078%,20.392157%);fill-opacity:1;" d="M 22.96875 8.167969 L 22.96875 11.148438 C 22.96875 13.453125 20.988281 15.125 18.734375 15.125 L 11.292969 15.125 C 9.441406 15.125 7.902344 16.972656 7.902344 18.808594 L 7.902344 25.195312 C 7.902344 27.011719 9.5 28.078125 11.292969 28.597656 C 13.4375 29.222656 15.777344 29.339844 18.34375 28.597656 C 20.050781 28.109375 21.734375 27.125 21.734375 25.195312 L 21.734375 22.636719 L 14.964844 22.636719 L 14.964844 21.785156 L 25.128906 21.785156 C 27.097656 21.785156 27.835938 20.421875 28.519531 18.386719 C 29.230469 16.285156 29.195312 14.265625 28.519531 11.574219 C 28.03125 9.628906 27.101562 8.175781 25.128906 8.175781 M 18.773438 24.34375 C 19.476562 24.34375 20.046875 24.914062 20.046875 25.617188 C 20.046875 26.324219 19.480469 26.902344 18.773438 26.902344 C 18.070312 26.902344 17.5 26.324219 17.5 25.617188 C 17.5 24.914062 18.070312 24.34375 18.773438 24.34375 M 18.773438 24.34375 "/>
</g>
</g>
</g>
</svg>
