<?xml version="1.0" encoding="UTF-8"?>
<svg xmlns="http://www.w3.org/2000/svg" xmlns:xlink="http://www.w3.org/1999/xlink" width="30px" height="30px" viewBox="0 0 30 30" version="1.1">
<g id="surface1">
<path style=" stroke:none;fill-rule:nonzero;fill:rgb(0%,0%,0%);fill-opacity:1;" d="M 22.5 19.6875 L 22.5 8.4375 L 20.625 8.4375 L 20.625 21.5625 L 28.125 21.5625 L 28.125 19.6875 Z M 22.5 19.6875 "/>
<path style=" stroke:none;fill-rule:nonzero;fill:rgb(0%,0%,0%);fill-opacity:1;" d="M 16.875 8.4375 L 13.125 8.4375 C 12.089844 8.4375 11.25 9.277344 11.25 10.3125 L 11.25 19.6875 C 11.25 20.722656 12.089844 21.5625 13.125 21.5625 L 14.0625 21.5625 L 14.0625 23.4375 C 14.0625 24.472656 14.902344 25.3125 15.9375 25.3125 L 17.8125 25.3125 L 17.8125 23.4375 L 15.9375 23.4375 L 15.9375 21.5625 L 16.875 21.5625 C 17.910156 21.5625 18.75 20.722656 18.75 19.6875 L 18.75 10.3125 C 18.75 9.277344 17.910156 8.4375 16.875 8.4375 Z M 13.125 19.6875 L 13.125 10.3125 L 16.875 10.3125 L 16.875 19.6875 Z M 13.125 19.6875 "/>
<path style=" stroke:none;fill-rule:nonzero;fill:rgb(0%,0%,0%);fill-opacity:1;" d="M 7.5 21.5625 L 1.875 21.5625 L 1.875 19.6875 L 7.5 19.6875 L 7.5 15.9375 L 3.75 15.9375 C 2.714844 15.9375 1.875 15.097656 1.875 14.0625 L 1.875 10.3125 C 1.875 9.277344 2.714844 8.4375 3.75 8.4375 L 9.375 8.4375 L 9.375 10.3125 L 3.75 10.3125 L 3.75 14.0625 L 7.5 14.0625 C 8.535156 14.0625 9.375 14.902344 9.375 15.9375 L 9.375 19.6875 C 9.375 20.722656 8.535156 21.5625 7.5 21.5625 Z M 7.5 21.5625 "/>
</g>
</svg>
