<?xml version="1.0" encoding="UTF-8"?>
<svg xmlns="http://www.w3.org/2000/svg" xmlns:xlink="http://www.w3.org/1999/xlink" width="30px" height="30px" viewBox="0 0 30 30" version="1.1">
<g id="surface1">
<path style=" stroke:none;fill-rule:evenodd;fill:rgb(0%,0%,0%);fill-opacity:1;" d="M 10.109375 16.933594 C 9.210938 17.617188 8.332031 18.285156 7.453125 18.957031 C 5.695312 20.296875 3.9375 21.632812 2.1875 22.984375 C 1.953125 23.160156 1.765625 23.183594 1.515625 23.035156 C 1.152344 22.824219 0.773438 22.648438 0.402344 22.460938 C 0.203125 22.363281 0.117188 22.207031 0.117188 21.980469 C 0.121094 17.328125 0.117188 12.675781 0.128906 8.019531 C 0.132812 7.867188 0.265625 7.65625 0.398438 7.574219 C 0.792969 7.332031 1.226562 7.140625 1.640625 6.925781 C 1.867188 6.808594 2.035156 6.910156 2.210938 7.042969 C 3.65625 8.152344 5.105469 9.257812 6.550781 10.363281 C 7.738281 11.265625 8.925781 12.171875 10.128906 13.085938 C 10.214844 13.007812 10.296875 12.933594 10.371094 12.859375 C 14.703125 8.640625 19.035156 4.421875 23.359375 0.195312 C 23.578125 -0.0195312 23.773438 -0.046875 24.050781 0.0664062 C 25.882812 0.808594 27.722656 1.535156 29.550781 2.289062 C 29.6875 2.34375 29.785156 2.53125 29.859375 2.675781 C 29.902344 2.765625 29.871094 2.894531 29.871094 3.003906 C 29.871094 11.003906 29.871094 19.007812 29.871094 27.007812 C 29.871094 27.605469 29.871094 27.601562 29.304688 27.828125 C 27.558594 28.527344 25.8125 29.21875 24.074219 29.929688 C 23.769531 30.054688 23.574219 30.015625 23.339844 29.785156 C 19.050781 25.609375 14.757812 21.4375 10.464844 17.261719 C 10.359375 17.160156 10.25 17.058594 10.109375 16.933594 Z M 22.59375 20.730469 C 22.59375 16.886719 22.59375 13.109375 22.59375 9.289062 C 20.035156 11.203125 17.515625 13.085938 14.976562 14.988281 C 17.523438 16.910156 20.039062 18.804688 22.59375 20.730469 Z M 6.613281 14.992188 C 5.332031 13.847656 4.085938 12.734375 2.8125 11.597656 C 2.8125 13.902344 2.8125 16.148438 2.8125 18.441406 C 4.097656 17.273438 5.339844 16.144531 6.613281 14.992188 Z M 6.613281 14.992188 "/>
</g>
</svg>
