<?xml version="1.0" encoding="UTF-8"?>
<svg xmlns="http://www.w3.org/2000/svg" xmlns:xlink="http://www.w3.org/1999/xlink" width="30px" height="px" viewBox="0 0 30 30" version="1.1">
<g id="surface1">
<path style=" stroke:none;fill-rule:nonzero;fill:rgb(80.784314%,57.647059%,84.705882%);fill-opacity:1;" d="M 27.5 6.945312 L 27.5 23.054688 C 27.5 23.851562 27.007812 24.554688 26.261719 24.820312 L 20.75 27.40625 L 21.25 20.625 L 21.25 9.375 L 20.75 2.59375 L 26.261719 5.179688 C 27.007812 5.445312 27.5 6.148438 27.5 6.945312 Z M 27.5 6.945312 "/>
<path style=" stroke:none;fill-rule:nonzero;fill:rgb(55.686275%,14.117647%,66.666667%);fill-opacity:1;" d="M 2.761719 21.132812 L 4.734375 22.351562 C 5.191406 22.628906 5.773438 22.582031 6.183594 22.238281 L 21.25 9.960938 L 21.25 3.34375 C 21.25 2.597656 20.324219 2.246094 19.828125 2.808594 L 5.625 18.671875 Z M 2.761719 21.132812 "/>
<path style=" stroke:none;fill-rule:nonzero;fill:rgb(67.058824%,27.843137%,73.72549%);fill-opacity:1;" d="M 2.761719 8.867188 L 4.734375 7.648438 C 5.191406 7.371094 5.773438 7.417969 6.183594 7.761719 L 21.25 20.039062 L 21.25 26.65625 C 21.25 27.402344 20.324219 27.753906 19.828125 27.191406 L 5.625 11.328125 Z M 2.761719 8.867188 "/>
<path style=" stroke:none;fill-rule:nonzero;fill:rgb(41.568627%,10.588235%,60.392157%);fill-opacity:1;" d="M 5.625 11.332031 L 5.625 18.667969 L 3.625 21.007812 C 3.261719 21.480469 2.5 21.226562 2.5 20.625 L 2.5 9.375 C 2.5 8.773438 3.261719 8.519531 3.625 8.992188 Z M 5.625 11.332031 "/>
</g>
</svg>
