<?xml version="1.0" encoding="UTF-8"?>
<svg xmlns="http://www.w3.org/2000/svg" xmlns:xlink="http://www.w3.org/1999/xlink" width="30px" height="30px" viewBox="0 0 30 30" version="1.1">
<defs>
<filter id="alpha" filterUnits="objectBoundingBox" x="0%" y="0%" width="100%" height="100%">
  <feColorMatrix type="matrix" in="SourceGraphic" values="0 0 0 0 1 0 0 0 0 1 0 0 0 0 1 0 0 0 1 0"/>
</filter>
<mask id="mask0">
  <g filter="url(#alpha)">
<rect x="0" y="0" width="30" height="30" style="fill:rgb(0%,0%,0%);fill-opacity:0.2;stroke:none;"/>
  </g>
</mask>
<clipPath id="clip1">
  <rect x="0" y="0" width="30" height="30"/>
</clipPath>
<g id="surface5" clip-path="url(#clip1)">
<path style=" stroke:none;fill-rule:nonzero;fill:rgb(0%,0%,0%);fill-opacity:1;" d="M 25.296875 24.957031 L 21.773438 3.808594 C 21.664062 3.160156 21.046875 2.722656 20.390625 2.828125 L 3.816406 5.546875 C 3.160156 5.65625 2.71875 6.265625 2.828125 6.917969 L 6.351562 28.066406 C 6.460938 28.714844 7.078125 29.152344 7.734375 29.046875 L 24.308594 26.328125 C 24.964844 26.21875 25.40625 25.609375 25.296875 24.957031 Z M 25.296875 24.957031 "/>
</g>
<mask id="mask1">
  <g filter="url(#alpha)">
<rect x="0" y="0" width="30" height="30" style="fill:rgb(0%,0%,0%);fill-opacity:0.2;stroke:none;"/>
  </g>
</mask>
<clipPath id="clip2">
  <rect x="0" y="0" width="30" height="30"/>
</clipPath>
<g id="surface8" clip-path="url(#clip2)">
<path style=" stroke:none;fill-rule:nonzero;fill:rgb(0%,0%,0%);fill-opacity:1;" d="M 6.5625 12.921875 L 16.902344 20.625 L 19.6875 18.875 L 8.011719 12.429688 Z M 6.5625 12.921875 "/>
</g>
<mask id="mask2">
  <g filter="url(#alpha)">
<rect x="0" y="0" width="30" height="30" style="fill:rgb(0%,0%,0%);fill-opacity:0.101961;stroke:none;"/>
  </g>
</mask>
<clipPath id="clip3">
  <rect x="0" y="0" width="30" height="30"/>
</clipPath>
<g id="surface11" clip-path="url(#clip3)">
<path style=" stroke:none;fill-rule:nonzero;fill:rgb(100%,100%,100%);fill-opacity:1;" d="M 20.636719 1.875 C 20.554688 1.871094 20.472656 1.878906 20.390625 1.890625 L 3.816406 4.609375 C 3.160156 4.71875 2.71875 5.328125 2.828125 5.980469 L 2.890625 6.347656 C 3.027344 5.945312 3.363281 5.621094 3.816406 5.546875 L 20.390625 2.828125 C 21.046875 2.722656 21.664062 3.15625 21.769531 3.808594 L 25.234375 24.589844 C 25.296875 24.410156 25.328125 24.21875 25.296875 24.019531 L 21.769531 2.871094 C 21.675781 2.300781 21.195312 1.894531 20.636719 1.875 Z M 20.636719 1.875 "/>
</g>
<mask id="mask3">
  <g filter="url(#alpha)">
<rect x="0" y="0" width="30" height="30" style="fill:rgb(0%,0%,0%);fill-opacity:0.2;stroke:none;"/>
  </g>
</mask>
<clipPath id="clip4">
  <rect x="0" y="0" width="30" height="30"/>
</clipPath>
<g id="surface14" clip-path="url(#clip4)">
<path style=" stroke:none;fill-rule:nonzero;fill:rgb(0%,0%,0%);fill-opacity:1;" d="M 19.21875 4.6875 L 24.519531 5.878906 L 27.1875 22.574219 L 22.515625 25.3125 Z M 19.21875 4.6875 "/>
</g>
<mask id="mask4">
  <g filter="url(#alpha)">
<rect x="0" y="0" width="30" height="30" style="fill:rgb(0%,0%,0%);fill-opacity:0.101961;stroke:none;"/>
  </g>
</mask>
<clipPath id="clip5">
  <rect x="0" y="0" width="30" height="30"/>
</clipPath>
<g id="surface17" clip-path="url(#clip5)">
<path style=" stroke:none;fill-rule:nonzero;fill:rgb(100%,100%,100%);fill-opacity:1;" d="M 8.011719 11.492188 L 6.5625 11.984375 L 7.425781 12.628906 L 8.011719 12.429688 L 18.894531 18.4375 L 19.6875 17.9375 Z M 8.011719 11.492188 "/>
</g>
<mask id="mask5">
  <g filter="url(#alpha)">
<rect x="0" y="0" width="30" height="30" style="fill:rgb(0%,0%,0%);fill-opacity:0.2;stroke:none;"/>
  </g>
</mask>
<clipPath id="clip6">
  <rect x="0" y="0" width="30" height="30"/>
</clipPath>
<g id="surface20" clip-path="url(#clip6)">
<path style=" stroke:none;fill-rule:nonzero;fill:rgb(0%,0%,0%);fill-opacity:1;" d="M 7.5 19.015625 L 15.03125 8.4375 L 18.203125 9.226562 L 9.027344 19.03125 Z M 7.5 19.015625 "/>
</g>
<mask id="mask6">
  <g filter="url(#alpha)">
<rect x="0" y="0" width="30" height="30" style="fill:rgb(0%,0%,0%);fill-opacity:0.2;stroke:none;"/>
  </g>
</mask>
<clipPath id="clip7">
  <rect x="0" y="0" width="30" height="30"/>
</clipPath>
<g id="surface23" clip-path="url(#clip7)">
<path style=" stroke:none;fill-rule:nonzero;fill:rgb(100%,100%,100%);fill-opacity:1;" d="M 19.21875 3.75 L 19.375 4.722656 L 24.519531 5.878906 L 27.050781 21.71875 L 27.1875 21.636719 L 24.519531 4.941406 Z M 19.21875 3.75 "/>
</g>
<mask id="mask7">
  <g filter="url(#alpha)">
<rect x="0" y="0" width="30" height="30" style="fill:rgb(0%,0%,0%);fill-opacity:0.2;stroke:none;"/>
  </g>
</mask>
<clipPath id="clip8">
  <rect x="0" y="0" width="30" height="30"/>
</clipPath>
<g id="surface26" clip-path="url(#clip8)">
<path style=" stroke:none;fill-rule:nonzero;fill:rgb(100%,100%,100%);fill-opacity:1;" d="M 15.03125 7.5 L 7.5 18.078125 L 8.164062 18.085938 L 15.03125 8.4375 L 17.492188 9.050781 L 18.203125 8.289062 Z M 15.03125 7.5 "/>
</g>
</defs>
<g id="surface1">
<use xlink:href="#surface5" mask="url(#mask0)"/>
<path style=" stroke:none;fill-rule:nonzero;fill:rgb(24.705882%,24.705882%,24.705882%);fill-opacity:1;" d="M 25.296875 24.019531 L 21.773438 2.871094 C 21.664062 2.222656 21.046875 1.785156 20.390625 1.890625 L 3.816406 4.609375 C 3.160156 4.71875 2.71875 5.328125 2.828125 5.980469 L 6.351562 27.128906 C 6.460938 27.777344 7.078125 28.214844 7.734375 28.109375 L 24.308594 25.390625 C 24.964844 25.28125 25.40625 24.671875 25.296875 24.019531 Z M 25.296875 24.019531 "/>
<use xlink:href="#surface8" mask="url(#mask1)"/>
<use xlink:href="#surface11" mask="url(#mask2)"/>
<path style=" stroke:none;fill-rule:nonzero;fill:rgb(10.980392%,39.607843%,76.078431%);fill-opacity:1;" d="M 6.75 20.625 L 21.976562 20.625 L 22.515625 24.375 Z M 6.75 20.625 "/>
<use xlink:href="#surface14" mask="url(#mask3)"/>
<path style=" stroke:none;fill-rule:nonzero;fill:rgb(16.078431%,58.823529%,86.666667%);fill-opacity:1;" d="M 19.21875 3.75 L 24.519531 4.941406 L 27.1875 21.636719 L 22.515625 24.375 Z M 19.21875 3.75 "/>
<path style=" stroke:none;fill-rule:nonzero;fill:rgb(10.980392%,39.607843%,76.078431%);fill-opacity:1;" d="M 15.03125 7.5 L 18.203125 8.289062 L 19.6875 17.9375 L 16.902344 19.6875 Z M 15.03125 7.5 "/>
<path style=" stroke:none;fill-rule:nonzero;fill:rgb(16.078431%,58.823529%,86.666667%);fill-opacity:1;" d="M 6.5625 11.984375 L 16.902344 19.6875 L 19.6875 17.9375 L 8.011719 11.492188 Z M 6.5625 11.984375 "/>
<use xlink:href="#surface17" mask="url(#mask4)"/>
<use xlink:href="#surface20" mask="url(#mask5)"/>
<path style=" stroke:none;fill-rule:nonzero;fill:rgb(16.078431%,58.823529%,86.666667%);fill-opacity:1;" d="M 7.5 18.078125 L 15.03125 7.5 L 18.203125 8.289062 L 9.027344 18.09375 Z M 7.5 18.078125 "/>
<use xlink:href="#surface23" mask="url(#mask6)"/>
<use xlink:href="#surface26" mask="url(#mask7)"/>
</g>
</svg>
